<svg xmlns="http://www.w3.org/2000/svg" viewBox="0 0 1400 900" role="img" aria-label="Runner's legs in motion">
  <defs>
    <linearGradient id="skin" x1="0" y1="0" x2=".82" y2="1">
      <stop stop-color="#f3c39d"/>
      <stop offset=".28" stop-color="#bd7957"/>
      <stop offset=".62" stop-color="#704331"/>
      <stop offset="1" stop-color="#2e2525"/>
    </linearGradient>
    <linearGradient id="skin-lit" x1="0" y1="0" x2="1" y2=".8">
      <stop stop-color="#ffd6af"/>
      <stop offset=".3" stop-color="#d98962"/>
      <stop offset=".72" stop-color="#7f4939"/>
      <stop offset="1" stop-color="#37272b"/>
    </linearGradient>
    <linearGradient id="shorts" x1="0" y1="0" x2="1" y2="1">
      <stop stop-color="#cadadd"/>
      <stop offset=".36" stop-color="#628b95"/>
      <stop offset="1" stop-color="#1b3f4c"/>
    </linearGradient>
    <linearGradient id="shoe" x1="0" y1="0" x2="1" y2=".5">
      <stop stop-color="#f5f5e9"/>
      <stop offset=".38" stop-color="#8fd0cf"/>
      <stop offset=".72" stop-color="#37748a"/>
      <stop offset="1" stop-color="#18384b"/>
    </linearGradient>
    <linearGradient id="sole" x1="0" y1="0" x2="1" y2="0">
      <stop stop-color="#f8e6c8"/>
      <stop offset=".5" stop-color="#efb86d"/>
      <stop offset="1" stop-color="#bf633a"/>
    </linearGradient>
    <linearGradient id="sheen" x1="0" y1="0" x2="1" y2=".2">
      <stop stop-color="#fff" stop-opacity=".65"/>
      <stop offset=".45" stop-color="#fff" stop-opacity="0"/>
    </linearGradient>
    <filter id="soft" x="-20%" y="-20%" width="140%" height="140%"><feGaussianBlur stdDeviation="18"/></filter>
    <filter id="blur" x="-20%" y="-30%" width="140%" height="160%"><feGaussianBlur stdDeviation="7"/></filter>
    <mask id="feather"><linearGradient id="fade" x1="0" x2="1"><stop offset="0" stop-color="#fff" stop-opacity="0"/><stop offset=".3" stop-color="#fff" stop-opacity=".28"/><stop offset=".62" stop-color="#fff" stop-opacity="1"/><stop offset="1" stop-color="#fff"/></linearGradient><rect width="1400" height="900" fill="url(#fade)"/></mask>
  </defs>
  <g mask="url(#feather)">
    <ellipse cx="1080" cy="800" rx="310" ry="34" fill="#051f2a" opacity=".33" filter="url(#soft)"/>
    <path d="M747 70c116-31 251-9 352 51l-53 167c-73-13-137-4-191 31l-148-82Z" fill="url(#shorts)"/>
    <path d="M723 113c94-40 207-47 310-7" fill="none" stroke="#e7f0e5" stroke-opacity=".42" stroke-width="7"/>
    <path d="M922 262c59-21 125-5 171 39 42 40 47 92 33 142l-66 224c-18 58-52 107-101 144l-74-52c41-40 63-77 77-127l43-170c9-35-2-61-28-78-22-15-52-16-80-7l-113 38-58-152Z" fill="url(#skin)"/>
    <path d="M976 404c50-2 81 20 98 56" fill="none" stroke="#f9d9b6" stroke-opacity=".32" stroke-width="15" stroke-linecap="round"/>
    <path d="M972 756c-26 36-58 66-98 87l55 58c52-11 100-35 141-73l-86-78Z" fill="url(#shoe)"/>
    <path d="M863 833c31 31 86 52 157 51 46-1 75-13 86-30l-39-35c-48 15-96 10-138-20Z" fill="url(#sole)"/>
    <path d="M1020 329c-42-64-108-101-179-103-55-2-102 23-132 73l-139 229c-29 48-36 103-24 157l91 7c-4-47 4-83 27-120l115-179c20-32 45-45 76-42 27 3 51 22 66 51l51 99 149-71Z" fill="url(#skin-lit)"/>
    <path d="M608 533c30-31 64-48 104-52" fill="none" stroke="#f8cfab" stroke-opacity=".35" stroke-width="16" stroke-linecap="round"/>
    <path d="M500 668c-46 16-98 17-147 2l-18 84c67 25 137 26 205 4l-7-79Z" fill="url(#shoe)"/>
    <path d="M333 748c-3 33 12 61 44 76 53 25 132 25 187 1l-24-42c-61 6-123-9-177-39Z" fill="url(#sole)"/>
    <path d="m684 116 74 199c15 42 34 73 65 101" fill="none" stroke="url(#sheen)" stroke-width="22" stroke-linecap="round" opacity=".55"/>
    <path d="M766 287c-11 55-6 106 15 153" fill="none" stroke="#3c2527" stroke-opacity=".3" stroke-width="20" stroke-linecap="round"/>
    <path d="m903 795 56 46M940 775l57 45M419 685l49 36M455 672l51 35" fill="none" stroke="#eafff9" stroke-opacity=".55" stroke-width="6" stroke-linecap="round"/>
    <path d="M208 675c66-10 119-38 158-83M258 768c69-7 132-29 188-66M1115 660c61 19 120 21 177 4M1080 728c69 24 137 30 202 18" fill="none" stroke="#d9f2ed" stroke-opacity=".28" stroke-width="7" stroke-linecap="round" filter="url(#blur)"/>
  </g>
</svg>