<svg xmlns="http://www.w3.org/2000/svg" width="355" height="682" viewBox="0 0 355 682" version="1.1">
	<path d="M 0 341.003 L 0 682.006 177.750 681.753 L 355.500 681.500 355.751 340.750 L 356.003 0 178.001 0 L 0 0 0 341.003 M 0.494 341.500 C 0.494 529.050, 0.609 605.626, 0.750 511.669 C 0.891 417.712, 0.891 264.262, 0.750 170.669 C 0.609 77.076, 0.494 153.950, 0.494 341.500 M 217.871 12.999 C 216.975 13.530, 213.827 13.795, 210.874 13.588 C 200.993 12.895, 195.424 17.524, 191.417 29.762 C 190.563 32.368, 189.265 35.850, 188.532 37.500 C 187.799 39.150, 186.451 42.750, 185.537 45.500 C 184.623 48.250, 183.228 51.497, 182.438 52.715 C 181.647 53.933, 181 55.770, 181 56.798 C 181 57.826, 180.692 58.975, 180.315 59.352 C 179.662 60.005, 178.935 61.853, 175.376 71.902 C 172.902 78.888, 174.889 81.342, 185.899 84.901 C 187.769 85.506, 190.716 86, 192.449 86 C 194.182 86, 196.027 86.358, 196.550 86.796 C 198.217 88.192, 204.952 90.148, 205.957 89.527 C 206.489 89.198, 209.223 90.093, 212.031 91.515 C 214.839 92.938, 217.893 94.010, 218.818 93.898 C 219.743 93.785, 221.175 93.982, 222 94.335 C 222.825 94.688, 224.400 95.107, 225.500 95.267 C 226.600 95.427, 227.950 95.823, 228.500 96.148 C 229.050 96.472, 231.253 97.054, 233.396 97.441 C 235.539 97.829, 238.311 98.813, 239.556 99.628 C 241.949 101.196, 247.416 100.999, 252.101 99.175 C 254.587 98.208, 255.646 95.556, 257.366 86 C 257.514 85.175, 258.392 83.060, 259.318 81.300 C 260.243 79.539, 261 77.433, 261 76.618 C 261 74.650, 265.954 71.354, 268.610 71.554 C 269.770 71.642, 272.200 72.452, 274.009 73.355 C 276.479 74.587, 277.637 74.717, 278.650 73.876 C 279.652 73.044, 280.376 73.067, 281.456 73.964 C 282.257 74.628, 283.410 74.864, 284.019 74.488 C 284.628 74.112, 285.885 74.488, 286.813 75.324 C 287.741 76.160, 289.742 77.154, 291.259 77.533 C 292.777 77.912, 294.248 78.592, 294.528 79.045 C 294.808 79.498, 296.541 79.624, 298.379 79.326 C 300.566 78.971, 303.292 79.478, 306.261 80.791 C 309.293 82.133, 311.133 82.467, 311.803 81.797 C 312.472 81.128, 313.835 81.558, 315.909 83.091 C 319.910 86.049, 322.052 84.605, 320.080 80.277 C 319.384 78.750, 318.969 77.457, 319.158 77.404 C 319.346 77.351, 318.899 76.583, 318.164 75.697 C 317.429 74.812, 317.104 73.640, 317.442 73.094 C 317.780 72.547, 317.143 71.612, 316.028 71.015 C 314.913 70.418, 314 69.072, 314 68.024 C 314 66.976, 313.550 65.840, 313 65.500 C 312.450 65.160, 312 64.031, 312 62.991 C 312 61.950, 311.292 60.703, 310.427 60.219 C 309.561 59.735, 308.305 58.250, 307.634 56.919 C 306.817 55.297, 305.717 54.598, 304.296 54.798 C 301.411 55.203, 300.449 53.267, 302.441 51.065 C 303.964 49.382, 303.919 48.998, 301.789 45.538 C 298.745 40.595, 293.017 34, 291.766 34 C 291.215 34, 289.184 32.613, 287.253 30.917 C 285.063 28.994, 283.037 28.019, 281.868 28.324 C 280.838 28.594, 279.659 28.252, 279.248 27.564 C 278.483 26.286, 273.901 23.052, 273 23.155 C 271.962 23.273, 263.458 20.773, 262.500 20.068 C 261.950 19.663, 258.350 18.303, 254.500 17.045 C 250.650 15.787, 247.050 14.414, 246.500 13.994 C 245.950 13.574, 240.945 13.227, 235.378 13.223 C 229.811 13.219, 223.961 12.950, 222.378 12.625 C 220.795 12.301, 218.767 12.469, 217.871 12.999 M 175 23.393 C 168.037 26.319, 165.629 27.296, 165 27.449 C 164.725 27.516, 163.547 28.102, 162.381 28.750 C 161.216 29.399, 160.005 29.672, 159.691 29.357 C 158.750 28.417, 148.856 34.644, 143.598 39.486 C 140.901 41.969, 138.341 44, 137.909 44 C 137.477 44, 135.645 45.350, 133.839 47 C 132.032 48.650, 130.219 50, 129.809 50 C 128.733 50, 118.997 59.585, 119.015 60.625 C 119.065 63.446, 122.535 65.155, 128.918 65.500 C 131.692 65.650, 133.795 66.367, 134.570 67.427 C 135.249 68.356, 136.968 69.240, 138.390 69.391 C 139.811 69.543, 141.803 70.417, 142.816 71.333 C 143.829 72.250, 145.534 73, 146.606 73 C 147.678 73, 149.552 73.698, 150.770 74.551 C 155.440 77.822, 165 74.128, 165 69.052 C 165 68.430, 165.876 66.204, 166.946 64.106 C 168.461 61.136, 168.627 60.017, 167.696 59.051 C 166.761 58.080, 166.991 57.476, 168.750 56.283 C 169.988 55.443, 171 54.206, 171 53.533 C 171 52.860, 171.916 51.481, 173.035 50.468 C 174.155 49.455, 174.849 48.050, 174.579 47.345 C 174.309 46.641, 174.525 45.794, 175.060 45.463 C 175.595 45.132, 175.805 44.494, 175.527 44.044 C 175.249 43.595, 175.715 42.651, 176.562 41.948 C 178.171 40.613, 186 25.138, 186 23.294 C 186 22.408, 182.761 20.958, 181 21.055 C 180.725 21.070, 178.025 22.122, 175 23.393 M 264.065 35.422 C 263.378 36.250, 263.285 37.058, 263.838 37.400 C 264.353 37.718, 265.296 37.348, 265.935 36.578 C 266.622 35.750, 266.715 34.942, 266.162 34.600 C 265.647 34.282, 264.704 34.652, 264.065 35.422 M 285.600 36.838 C 285.282 37.353, 285.652 38.296, 286.422 38.935 C 287.250 39.622, 288.058 39.715, 288.400 39.162 C 288.718 38.647, 288.348 37.704, 287.578 37.065 C 286.750 36.378, 285.942 36.285, 285.600 36.838 M 266.553 38.915 C 266.231 39.436, 266.394 40.125, 266.915 40.447 C 267.436 40.769, 268.125 40.606, 268.447 40.085 C 268.769 39.564, 268.606 38.875, 268.085 38.553 C 267.564 38.231, 266.875 38.394, 266.553 38.915 M 294.513 43.980 C 294.240 44.421, 295.115 45.500, 296.456 46.380 C 299.070 48.092, 301.181 46.781, 299.123 44.723 C 297.737 43.337, 295.166 42.923, 294.513 43.980 M 258.553 58.915 C 258.231 59.436, 258.394 60.125, 258.915 60.447 C 259.436 60.769, 260.125 60.606, 260.447 60.085 C 260.769 59.564, 260.606 58.875, 260.085 58.553 C 259.564 58.231, 258.875 58.394, 258.553 58.915 M 104.243 74.877 C 102.734 76.589, 98.912 80.761, 95.750 84.148 C 89.863 90.452, 88.907 92.848, 91.441 94.951 C 92.233 95.608, 92.635 96.788, 92.334 97.573 C 91.684 99.266, 93.138 99.462, 94.708 97.892 C 95.519 97.081, 96.847 97.145, 99.658 98.128 C 101.771 98.867, 103.971 99.486, 104.547 99.504 C 105.122 99.521, 106.871 100.540, 108.432 101.767 C 109.993 102.995, 112.082 104, 113.076 104 C 114.069 104, 115.152 104.437, 115.482 104.972 C 115.813 105.506, 118.174 106.868, 120.729 107.998 C 124.884 109.836, 125.215 110.214, 123.856 111.572 C 122.498 112.930, 121.842 112.923, 117.649 111.499 C 115.070 110.623, 112.548 110.162, 112.044 110.473 C 111.541 110.784, 109.511 110.130, 107.534 109.019 C 105.557 107.909, 102.883 107, 101.592 107 C 100.301 107, 97.502 106.236, 95.372 105.303 C 93.242 104.370, 90.187 103.469, 88.582 103.301 C 86.977 103.134, 85.457 102.791, 85.205 102.538 C 84.953 102.286, 83.453 102.748, 81.873 103.566 C 79.293 104.900, 78.778 105.648, 79.098 107.593 C 79.151 107.920, 78.080 109.382, 76.718 110.843 C 75.356 112.305, 73.080 115.375, 71.661 117.666 C 70.242 119.957, 68.613 122.121, 68.041 122.475 C 67.468 122.829, 67 124.258, 67 125.651 C 67 127.045, 66.100 129.329, 65 130.727 C 63.900 132.126, 63 133.815, 63 134.481 C 63 135.148, 62.283 137.129, 61.408 138.885 C 60.532 140.640, 60.026 142.626, 60.284 143.298 C 61.034 145.252, 69.831 147.256, 78.535 147.455 C 83.679 147.573, 87.764 148.234, 89.888 149.294 C 93.463 151.078, 102.345 152.860, 108 152.928 C 109.925 152.951, 112.850 153.189, 114.500 153.457 C 125.722 155.277, 125.313 155.318, 128.845 152.041 C 130.797 150.231, 131.961 148.340, 131.639 147.501 C 131.336 146.711, 131.459 145.835, 131.912 145.554 C 132.366 145.274, 133.017 143.293, 133.360 141.152 C 133.702 139.011, 134.690 136.672, 135.555 135.954 C 136.511 135.161, 136.914 133.793, 136.582 132.469 C 136.222 131.035, 137.081 128.711, 139.096 125.669 C 141.402 122.188, 142.088 120.116, 141.878 117.274 C 141.678 114.574, 141.972 113.582, 142.911 113.787 C 144.638 114.165, 146.928 111.073, 146.968 108.309 C 146.986 107.104, 147.450 105.840, 148 105.500 C 148.550 105.160, 149 103.874, 149 102.641 C 149 101.408, 149.526 99.874, 150.168 99.232 C 150.810 98.590, 151.864 96.529, 152.509 94.652 C 154.205 89.719, 152.236 86.406, 146.736 84.942 C 144.406 84.321, 141.821 83.209, 140.991 82.470 C 140.161 81.731, 138.361 80.896, 136.991 80.615 C 130.803 79.343, 129.721 79.013, 128.556 78.047 C 127.874 77.481, 126.008 76.870, 124.408 76.690 C 122.809 76.510, 120.376 75.755, 119.001 75.013 C 117.627 74.271, 115.377 73.568, 114.001 73.452 C 112.626 73.336, 110.484 72.908, 109.243 72.502 C 107.460 71.918, 106.411 72.416, 104.243 74.877 M 273.389 82.980 C 271.234 83.851, 269.974 85.935, 269.448 89.500 C 268.378 96.752, 268.256 98.778, 268.840 99.587 C 270.121 101.359, 274.008 103, 276.927 103 C 278.552 103, 280.143 103.422, 280.461 103.937 C 280.780 104.452, 282.753 104.850, 284.846 104.822 C 286.940 104.793, 290.094 105.514, 291.856 106.425 C 293.617 107.336, 295.476 107.824, 295.985 107.509 C 296.495 107.194, 298.470 107.587, 300.374 108.383 C 302.279 109.179, 304.060 109.607, 304.333 109.334 C 304.606 109.061, 305.880 109.417, 307.164 110.124 C 308.449 110.831, 310.185 111.307, 311.023 111.181 C 311.860 111.054, 315.010 111.793, 318.023 112.822 C 321.035 113.851, 324.021 114.514, 324.658 114.294 C 325.295 114.074, 326.110 114.368, 326.467 114.947 C 327.379 116.422, 331.264 116.259, 333.460 114.653 C 334.756 113.705, 334.956 113.091, 334.135 112.584 C 333.493 112.187, 333.253 111.400, 333.602 110.836 C 334.540 109.317, 331.835 104.849, 330.328 105.428 C 328.567 106.103, 327.078 103.045, 327.666 99.964 C 328.077 97.818, 327.575 97.198, 324.238 95.725 C 322.087 94.776, 319.336 94, 318.123 94 C 316.911 94, 314.620 93.039, 313.032 91.865 C 311.366 90.634, 309.451 89.997, 308.505 90.360 C 307.603 90.706, 304.758 90.015, 302.183 88.824 C 297.185 86.514, 291.166 85.103, 284.201 84.608 C 281.837 84.440, 279.384 83.784, 278.751 83.151 C 277.424 81.824, 276.335 81.789, 273.389 82.980 M 170.500 94.719 C 169.400 94.987, 167.681 95.934, 166.679 96.822 C 164.661 98.613, 160 108.204, 160 110.565 C 160 111.393, 159.308 113.127, 158.461 114.419 C 157.615 115.711, 157.012 117.157, 157.121 117.634 C 157.231 118.110, 156.358 120.525, 155.182 123 C 154.006 125.475, 153.020 128.625, 152.990 130 C 152.961 131.375, 152.276 133.374, 151.468 134.441 C 150.661 135.509, 150 137.335, 150 138.500 C 150 139.665, 149.339 141.491, 148.532 142.559 C 147.724 143.626, 147.049 145.486, 147.032 146.691 C 147.014 147.896, 146.532 149.171, 145.959 149.525 C 143.341 151.144, 148.147 158.255, 151.557 157.808 C 152.748 157.652, 154.365 158.058, 155.150 158.710 C 157.147 160.367, 164.329 161.851, 167.457 161.253 C 169.046 160.949, 170.754 161.373, 171.816 162.334 C 172.794 163.218, 174.869 163.790, 176.531 163.632 C 178.164 163.477, 179.950 163.663, 180.500 164.044 C 182.930 165.731, 196.563 166.820, 200.944 165.678 C 202.424 165.291, 204 165.580, 204.944 166.409 C 205.800 167.162, 208.075 168.104, 210 168.504 C 211.925 168.904, 213.962 169.600, 214.526 170.052 C 215.090 170.504, 216.890 170.720, 218.526 170.533 C 220.162 170.346, 222.196 170.811, 223.048 171.568 C 223.973 172.390, 227.869 173.135, 232.733 173.420 L 240.871 173.897 242.899 169.698 C 244.014 167.389, 244.797 164.150, 244.638 162.500 C 244.480 160.850, 244.792 158.919, 245.331 158.209 C 245.871 157.499, 246.445 154.249, 246.607 150.985 C 246.769 147.722, 247.431 144.063, 248.078 142.853 C 248.726 141.644, 249.419 137.846, 249.619 134.414 C 249.819 130.982, 250.411 127.048, 250.935 125.672 C 251.973 122.941, 250.906 117.621, 248.719 114.630 C 247.213 112.570, 230.975 107.932, 227.997 108.711 C 226.788 109.027, 225.799 108.640, 225.443 107.712 C 225.123 106.878, 223.205 105.887, 221.181 105.509 C 219.156 105.131, 216.940 104.358, 216.255 103.792 C 215.571 103.227, 214.019 103.023, 212.807 103.340 C 211.596 103.657, 210.131 103.554, 209.552 103.111 C 208.228 102.097, 198.330 98.915, 197.281 99.166 C 196.851 99.269, 194.475 98.762, 192 98.040 C 189.525 97.318, 186.600 96.604, 185.500 96.453 C 184.400 96.301, 181.475 95.699, 179 95.113 C 174.218 93.982, 173.636 93.955, 170.500 94.719 M 267.819 112.490 C 264.385 114.413, 263.217 118.449, 262.605 130.500 C 262.521 132.150, 262.111 134.044, 261.692 134.710 C 261.274 135.375, 260.933 137.400, 260.935 139.210 C 260.940 145.246, 260.359 150.610, 259.560 151.903 C 259.125 152.606, 258.550 156.179, 258.281 159.841 C 258.013 163.503, 257.390 167.258, 256.897 168.184 C 254.023 173.582, 258.114 178.784, 265.950 179.693 C 268.947 180.041, 272.547 180.925, 273.950 181.657 C 275.352 182.389, 278.161 182.990, 280.191 182.994 C 282.221 182.997, 284.131 183.403, 284.436 183.896 C 285.095 184.963, 297.989 187.344, 298.787 186.546 C 299.091 186.242, 300.419 186.700, 301.737 187.563 C 303.467 188.697, 304.491 188.838, 305.415 188.070 C 306.356 187.289, 307.171 187.532, 308.485 188.984 C 309.469 190.071, 311.900 191.230, 313.887 191.558 C 315.874 191.887, 318.175 192.423, 319 192.750 C 321.763 193.846, 325.391 193.921, 326.611 192.908 C 327.461 192.203, 328.218 192.473, 329.160 193.818 C 329.897 194.870, 330.950 195.797, 331.500 195.878 C 332.050 195.958, 333.309 196.281, 334.298 196.595 C 336.318 197.236, 339.051 195.417, 338.718 193.654 C 338.598 193.019, 339.254 192.624, 340.175 192.777 C 342.336 193.133, 343.477 191.280, 342.110 189.632 C 341.354 188.722, 341.385 188.015, 342.217 187.183 C 343.109 186.291, 342.867 185.311, 341.193 183.047 C 338.578 179.510, 338.526 178.817, 340.579 174.848 C 342.251 171.614, 341.420 167.568, 338.333 163.919 C 336.828 162.139, 337.715 160.518, 339.420 161.933 C 340.150 162.540, 340.924 162.001, 341.708 160.338 C 342.709 158.219, 342.662 157.916, 341.409 158.397 C 339.233 159.232, 338.334 155.960, 340.338 154.495 C 342.165 153.159, 342.501 150.927, 341.097 149.450 C 340.149 148.453, 339.164 141.866, 338.727 133.599 C 338.560 130.443, 337.939 128.451, 336.984 128.006 C 336.168 127.625, 333.475 126.342, 331 125.154 C 328.525 123.966, 325.517 122.996, 324.315 122.997 C 323.113 122.999, 320.863 122.477, 319.315 121.839 C 317.767 121.200, 316.149 120.754, 315.720 120.849 C 315.291 120.943, 313.655 120.356, 312.086 119.544 C 310.516 118.733, 307.224 118.109, 304.769 118.158 C 302.144 118.211, 299.256 117.559, 297.754 116.574 C 296.349 115.654, 292.971 114.749, 290.246 114.564 C 287.522 114.379, 284.439 113.771, 283.396 113.215 C 279.792 111.291, 270.713 110.868, 267.819 112.490 M 59.993 162.234 C 58.895 164.030, 58.181 165.993, 58.407 166.595 C 58.854 167.785, 58.087 174.021, 55.609 189.358 C 54.733 194.781, 54.276 200.251, 54.593 201.515 C 54.910 202.779, 54.703 204.687, 54.132 205.754 C 53.390 207.139, 53.430 208.030, 54.272 208.872 C 55.126 209.726, 55.155 210.525, 54.377 211.775 C 53.788 212.724, 53.401 216.425, 53.518 220 C 53.635 223.575, 53.454 226.950, 53.115 227.500 C 52.777 228.050, 52.424 230.075, 52.331 232 C 52.238 233.925, 51.849 236.967, 51.466 238.759 C 51.050 240.707, 51.215 242.555, 51.876 243.351 C 52.485 244.084, 52.680 244.986, 52.311 245.356 C 51.293 246.373, 51.277 255.245, 52.288 257.350 C 52.906 258.635, 53.919 259.057, 55.612 258.734 C 56.952 258.478, 58.300 258.676, 58.608 259.175 C 58.916 259.673, 60.052 259.801, 61.132 259.458 C 62.212 259.115, 63.726 259.357, 64.496 259.996 C 66.459 261.626, 69.470 259.756, 69.612 256.821 C 69.673 255.544, 70.064 251.125, 70.479 247 C 70.894 242.875, 71.325 238.600, 71.435 237.500 C 71.546 236.400, 72.001 230.895, 72.446 225.267 C 72.964 218.719, 73.745 214.626, 74.616 213.904 C 76.261 212.539, 76.226 212.454, 79.003 224.500 C 82.524 239.773, 83.176 242.449, 83.756 244 C 84.065 244.825, 84.245 245.842, 84.156 246.259 C 84.067 246.676, 84.479 248.926, 85.072 251.259 C 85.666 253.592, 86.462 257.072, 86.841 258.994 L 87.532 262.487 95.516 263.631 C 101.482 264.486, 103.806 264.487, 104.709 263.637 C 105.405 262.983, 107.430 250.606, 109.477 234.500 C 111.435 219.100, 113.248 205.150, 113.507 203.500 C 113.766 201.850, 114.220 198.025, 114.517 195 C 115.428 185.692, 116.990 173.560, 117.430 172.365 C 118.287 170.043, 114.975 167, 111.593 167 C 109.781 167, 106.847 166.494, 105.073 165.876 C 101.236 164.538, 99.622 165.643, 99.362 169.784 C 99.269 171.278, 98.681 176.325, 98.055 181 C 97.429 185.675, 96.714 191.724, 96.464 194.443 C 95.442 205.594, 94.824 209.546, 93.968 210.417 C 93.423 210.971, 92.875 210.772, 92.584 209.917 C 91.583 206.970, 81.811 167.399, 81.545 165.217 C 81.135 161.846, 80.192 161.372, 72.500 160.669 C 71.400 160.569, 70.050 160.231, 69.500 159.918 C 68.950 159.605, 67.035 159.263, 65.245 159.158 C 62.546 159, 61.649 159.525, 59.993 162.234 M 137.479 172.894 C 130.492 174.651, 125.547 180.281, 124.650 187.500 C 124.377 189.700, 123.638 196, 123.007 201.500 C 122.377 207, 121.613 212.175, 121.310 213 C 121.007 213.825, 120.567 216.750, 120.332 219.500 C 120.098 222.250, 119.516 225.952, 119.040 227.726 C 118.564 229.500, 118.413 231.865, 118.705 232.981 C 118.997 234.097, 118.722 235.630, 118.093 236.388 C 117.465 237.145, 116.995 239.055, 117.049 240.632 C 117.103 242.210, 116.838 245.978, 116.459 249.007 C 115.106 259.825, 120.389 266.059, 132.500 267.938 C 136.350 268.535, 140.850 269.297, 142.500 269.631 C 147.860 270.715, 153.016 270.296, 154.862 268.625 C 155.852 267.729, 156.901 267.234, 157.192 267.525 C 158.145 268.479, 163.497 260.561, 163.630 258 C 163.702 256.625, 164.002 254.825, 164.299 254 C 164.595 253.175, 165.384 248.225, 166.052 243 C 166.720 237.775, 167.438 232.375, 167.648 231 C 169.665 217.803, 170.184 214.086, 170.369 211.491 C 170.487 209.836, 170.915 207.947, 171.320 207.292 C 171.724 206.637, 172.155 201.466, 172.278 195.801 L 172.500 185.500 169.132 181.312 C 165.102 176.300, 164.700 176.112, 154.500 174.464 C 150.100 173.753, 145.150 172.938, 143.500 172.653 C 141.850 172.367, 139.141 172.476, 137.479 172.894 M 333.553 174.915 C 333.231 175.436, 333.394 176.125, 333.915 176.447 C 334.436 176.769, 335.125 176.606, 335.447 176.085 C 335.769 175.564, 335.606 174.875, 335.085 174.553 C 334.564 174.231, 333.875 174.394, 333.553 174.915 M 184.538 180.939 C 184.154 181.559, 183.638 183.739, 183.390 185.783 C 183.142 187.827, 182.431 192.425, 181.811 196 C 181.190 199.575, 180.753 203.850, 180.839 205.500 C 180.924 207.150, 180.537 209.626, 179.978 211.003 C 179.419 212.379, 178.791 215.754, 178.581 218.503 C 178.064 225.276, 175.271 244.569, 174.093 249.500 C 173.567 251.700, 172.830 256.650, 172.455 260.500 C 172.079 264.350, 171.375 268.255, 170.889 269.178 C 169.337 272.129, 170.909 274, 174.940 274 C 176.990 274, 178.965 274.298, 179.329 274.663 C 179.694 275.027, 181.321 275.471, 182.946 275.649 C 185.878 275.970, 187.215 274.930, 187.612 272.018 C 187.726 271.183, 188.326 266.450, 188.945 261.500 C 190.030 252.821, 191.835 243.258, 192.664 241.794 C 193.699 239.966, 197.469 242.864, 197.624 245.607 C 197.913 250.764, 199.198 262.485, 199.535 263.043 C 199.715 263.342, 200.135 266.717, 200.468 270.543 C 201.067 277.417, 202.867 280.649, 205.528 279.628 C 206.125 279.398, 208.838 279.785, 211.557 280.487 C 217.577 282.041, 219.279 281.091, 218.492 276.612 C 218.192 274.900, 217.771 272.150, 217.557 270.500 C 217.343 268.850, 216.658 263.900, 216.035 259.500 C 213.805 243.744, 213.754 244.342, 217.498 242.133 C 223.231 238.751, 224.086 236.604, 226.515 219.500 C 226.828 217.300, 227.566 213.042, 228.157 210.038 C 229.827 201.539, 229.427 197.243, 226.563 192.916 C 222.891 187.367, 219.947 185.830, 210.169 184.358 C 205.401 183.640, 199.475 182.554, 197 181.945 C 189.383 180.070, 185.280 179.739, 184.538 180.939 M 142.185 191.277 C 141.532 192.064, 141.041 193.786, 141.093 195.104 C 141.145 196.422, 140.661 200.200, 140.017 203.500 C 138.253 212.537, 138.226 212.721, 136.985 224 C 136.350 229.775, 135.582 235.175, 135.278 236 C 134.705 237.554, 133.950 242.683, 133.664 246.959 C 133.516 249.177, 134.076 249.548, 139.364 250.737 C 147.620 252.594, 147.768 252.385, 149.495 236.500 C 149.874 233.013, 150.327 230.320, 151.600 224 C 152.331 220.370, 154.062 206.888, 154.646 200.279 C 155.270 193.217, 155.229 193.037, 152.749 192.095 C 147.540 190.114, 143.415 189.795, 142.185 191.277 M 237.699 190.678 C 237.391 191.177, 236.894 193.366, 236.596 195.543 C 236.297 197.719, 235.757 201.412, 235.395 203.750 C 235.033 206.088, 235.133 208.070, 235.618 208.157 C 236.103 208.243, 237.625 208.459, 239 208.637 C 247.122 209.689, 249.499 210.594, 249.253 212.541 C 249.118 213.619, 248.765 216.750, 248.471 219.500 C 248.176 222.250, 247.710 225.236, 247.436 226.136 C 247.162 227.035, 246.738 229.285, 246.495 231.136 C 245.861 235.942, 243.325 251.894, 241.428 263 C 240.536 268.225, 239.685 273.400, 239.538 274.500 C 239.390 275.600, 238.943 277.705, 238.544 279.178 C 237.513 282.989, 239.240 285.431, 243.173 285.722 C 255.004 286.599, 254.273 286.734, 255.148 283.504 C 255.594 281.857, 256.190 278.707, 256.473 276.504 C 257.463 268.807, 261.003 246.433, 262.485 238.514 C 263.307 234.121, 263.907 230.071, 263.820 229.514 C 263.580 227.989, 265.158 218.808, 266.089 216.309 C 266.943 214.018, 270.362 213.494, 272.737 215.289 C 273.418 215.803, 274.712 215.941, 275.614 215.595 C 276.516 215.249, 277.812 215.429, 278.494 215.995 C 280.415 217.589, 281.566 215.338, 282.812 207.556 C 284.142 199.239, 283.625 198.319, 277.168 197.522 C 274.601 197.205, 270.956 196.450, 269.068 195.843 C 267.181 195.236, 263.131 194.376, 260.068 193.933 C 257.006 193.490, 252.475 192.639, 250 192.043 C 242.272 190.180, 238.280 189.737, 237.699 190.678 M 339.597 194.844 C 339.251 195.404, 339.455 196.163, 340.050 196.531 C 341.588 197.481, 342.580 196.180, 341.296 194.896 C 340.578 194.178, 340.019 194.161, 339.597 194.844 M 198.918 199.394 C 198.873 199.452, 198.650 200.850, 198.424 202.500 C 198.197 204.150, 197.515 208.195, 196.908 211.490 C 194.392 225.148, 194.325 224.997, 203.099 225.310 L 208.445 225.500 209.161 221.500 C 209.555 219.300, 210.132 215.475, 210.443 213 C 210.755 210.525, 211.252 207.334, 211.549 205.909 C 211.867 204.385, 211.556 202.901, 210.794 202.304 C 209.782 201.511, 199.273 198.936, 198.918 199.394 M 291.166 201.362 C 290.288 202.481, 289.057 208.444, 288.422 214.662 C 288.244 216.401, 287.365 221.801, 286.469 226.662 C 285.573 231.523, 284.657 237.075, 284.435 239 C 284.212 240.925, 283.589 244.975, 283.050 248 C 281.190 258.431, 280.869 260.514, 280.502 264.500 C 280.299 266.700, 279.608 270.525, 278.966 273 C 278.324 275.475, 277.666 278.850, 277.503 280.500 C 277.340 282.150, 276.901 285.104, 276.527 287.064 C 275.699 291.406, 277.067 292.824, 282.589 293.352 C 284.740 293.557, 287.175 294.007, 288 294.352 C 288.825 294.697, 289.999 294.646, 290.610 294.239 C 291.941 293.352, 295.169 281.082, 294.399 279.836 C 294.101 279.355, 294.315 277.507, 294.874 275.730 C 295.433 273.954, 296.156 270.925, 296.481 269 C 298.159 259.059, 298.657 257.508, 300.062 257.839 C 300.853 258.026, 302.513 258.289, 303.752 258.424 C 304.990 258.559, 306.302 258.969, 306.668 259.335 C 307.034 259.701, 308.397 260, 309.698 260 C 312.808 260, 313.254 261.492, 311.940 267.510 C 310.908 272.238, 309.387 279.350, 307.036 290.444 C 305.749 296.513, 306.464 299.373, 309.095 298.685 C 310.142 298.412, 311.238 298.576, 311.531 299.050 C 311.824 299.525, 312.689 299.673, 313.454 299.379 C 314.218 299.086, 315.732 299.321, 316.817 299.902 C 318.274 300.682, 319.069 300.621, 319.858 299.672 C 321.153 298.110, 324.233 287.264, 324.152 284.546 C 324.120 283.471, 324.512 282.088, 325.024 281.471 C 326.324 279.905, 329.897 264.035, 329.634 261 C 329.514 259.625, 329.999 257.564, 330.711 256.421 C 331.423 255.278, 331.950 253.253, 331.881 251.921 C 331.812 250.589, 333.156 241.474, 334.867 231.664 C 338.234 212.363, 338.108 210.617, 333.278 209.719 C 328.521 208.834, 325.750 208.084, 325.196 207.529 C 324.082 206.416, 321 210.426, 321 212.988 C 321 215.584, 319.958 222.188, 317.922 232.500 C 317.379 235.250, 316.775 238.625, 316.580 240 C 316.386 241.375, 315.711 242.383, 315.082 242.240 C 314.453 242.096, 312.302 241.719, 310.302 241.401 C 302.741 240.200, 301.919 239.500, 302.504 234.770 C 303.385 227.657, 306.767 208.606, 307.450 206.910 C 308.241 204.948, 306.445 203.422, 302.500 202.708 C 300.850 202.409, 297.826 201.728, 295.780 201.194 C 293.144 200.507, 291.799 200.556, 291.166 201.362 M 74.863 274.500 C 74.771 275.050, 74.643 276.175, 74.579 277 C 74.505 277.959, 73.568 278.428, 71.982 278.301 C 59.140 277.270, 51.504 278.771, 53.463 281.939 C 53.841 282.552, 54.693 282.929, 55.355 282.777 C 56.955 282.409, 57.272 283.127, 56.453 285.263 C 56.081 286.232, 56.332 287.695, 57.011 288.513 C 57.856 289.532, 57.927 290.393, 57.234 291.250 C 55.918 292.878, 56.393 300.564, 57.924 302.409 C 58.849 303.522, 58.828 304.303, 57.832 305.897 C 56.845 307.478, 56.822 308.222, 57.734 309.134 C 58.482 309.882, 58.702 311.892, 58.333 314.587 C 57.876 317.919, 58.222 319.622, 59.907 322.349 C 61.267 324.550, 61.683 326.078, 61.033 326.480 C 57.748 328.510, 63.666 335.185, 68.500 334.903 C 70.150 334.807, 72.625 335.186, 74 335.746 C 75.375 336.306, 77.175 336.426, 78 336.013 C 79.532 335.247, 85.201 334.041, 90.400 333.375 C 91.995 333.171, 93.795 333.391, 94.400 333.865 C 95.005 334.338, 98.200 334.663, 101.500 334.588 C 104.800 334.512, 109.203 334.741, 111.283 335.097 C 114.367 335.624, 115.252 335.397, 116.069 333.872 C 116.620 332.842, 117.899 332, 118.913 332 C 122.915 332, 123.335 330.095, 124.543 306.500 C 125.303 291.630, 124.994 285.921, 123.287 283.315 C 122.335 281.863, 121.114 281.126, 120.225 281.467 C 119.412 281.779, 118.240 281.614, 117.622 281.101 C 117.003 280.587, 113.797 279.936, 110.498 279.653 C 107.199 279.371, 104.500 279.051, 104.500 278.944 C 104.500 278.836, 99.775 278.613, 94 278.449 C 84.910 278.189, 80.191 277.710, 79.250 276.952 C 79.112 276.841, 78.534 276.694, 77.964 276.625 C 77.393 276.556, 76.500 275.825, 75.979 275 C 75.457 274.175, 74.955 273.950, 74.863 274.500 M 142.225 283.709 C 138.218 284.478, 136.911 287.872, 137.452 296.101 C 137.719 300.170, 137.535 304.148, 137.042 304.941 C 136.473 305.855, 136.653 307.362, 137.533 309.064 C 138.296 310.539, 138.664 312.003, 138.350 312.317 C 137.508 313.158, 136.990 324.175, 137.735 325.381 C 138.808 327.116, 138.961 331.342, 137.995 332.506 C 137.493 333.111, 137.284 335.996, 137.529 338.918 C 137.775 341.840, 137.647 344.741, 137.245 345.365 C 136.843 345.989, 136.439 349.875, 136.347 354 C 136.123 364.089, 135.260 376.158, 134.631 378 C 134.349 378.825, 133.887 381.525, 133.605 384 C 132.636 392.508, 131.874 396.505, 130.805 398.683 C 130.216 399.883, 129.970 401.481, 130.259 402.233 C 130.548 402.985, 130.225 404.644, 129.543 405.920 C 127.461 409.810, 129.012 414.285, 132.820 415.377 C 135.684 416.199, 136.419 415.973, 139.034 413.467 C 140.665 411.905, 142 409.768, 142 408.719 C 142 407.664, 142.879 406.583, 143.967 406.298 C 145.049 406.016, 146.229 404.820, 146.589 403.642 C 146.949 402.464, 148.764 399.624, 150.622 397.332 C 152.480 395.039, 154 392.521, 154 391.737 C 154 390.952, 154.937 389.462, 156.083 388.425 C 157.228 387.389, 158.780 385.069, 159.532 383.270 C 160.283 381.472, 161.387 380, 161.985 380 C 162.582 380, 163.894 378.081, 164.899 375.736 C 165.904 373.391, 167.463 370.860, 168.363 370.113 C 169.264 369.366, 170 368.328, 170 367.807 C 170 366.625, 178.464 354.690, 180.501 352.999 C 181.325 352.315, 182 350.889, 182 349.830 C 182 348.771, 183.057 346.913, 184.348 345.702 C 185.639 344.491, 187.828 341.693, 189.212 339.485 C 190.596 337.277, 192.464 334.860, 193.364 334.113 C 194.264 333.366, 195 331.989, 195 331.052 C 195 330.115, 196.125 328.292, 197.500 327 C 198.875 325.708, 200 324.125, 200 323.481 C 200 322.837, 200.962 321.453, 202.138 320.405 C 203.314 319.357, 204.885 317.150, 205.630 315.500 C 206.375 313.850, 208.413 310.594, 210.160 308.265 L 213.336 304.029 211.418 299.994 C 210.045 297.105, 208.932 296.007, 207.500 296.130 C 206.400 296.225, 204.324 295.819, 202.887 295.228 C 201.450 294.637, 198.525 294.384, 196.387 294.665 C 193.272 295.076, 191.705 294.635, 188.500 292.446 C 186.242 290.904, 183.228 289.750, 181.580 289.795 C 179.975 289.840, 177.399 289.224, 175.858 288.426 C 174.316 287.629, 171.130 287.040, 168.778 287.118 C 163.614 287.287, 150.179 285.259, 147.764 283.945 C 146.809 283.425, 145.684 283.061, 145.264 283.136 C 144.844 283.211, 143.476 283.469, 142.225 283.709 M 234.263 301.059 C 231.449 302.379, 229.817 303.882, 229.402 305.534 C 229.059 306.903, 227.478 308.948, 225.889 310.079 C 224.300 311.211, 223 312.710, 223 313.412 C 223 314.113, 220.762 317.570, 218.026 321.094 C 206.887 335.443, 197 349.307, 197 350.578 C 197 351.322, 196.156 352.381, 195.125 352.933 C 194.094 353.485, 192.333 355.889, 191.211 358.274 C 190.090 360.660, 188.429 363.229, 187.520 363.983 C 184.565 366.436, 182.784 371.035, 183.439 374.525 C 183.995 377.488, 186.211 379.599, 188.291 379.145 C 188.725 379.051, 190.075 379.528, 191.291 380.207 C 194.769 382.149, 200.290 383.939, 201.156 383.404 C 201.589 383.136, 203.006 383.613, 204.305 384.464 C 205.604 385.315, 209.176 386.225, 212.242 386.486 C 215.309 386.747, 219.386 387.885, 221.302 389.016 C 223.218 390.146, 225.172 390.981, 225.643 390.872 C 226.799 390.602, 232.255 392.094, 233.500 393.019 C 234.382 393.675, 237.836 394.403, 244.550 395.347 C 245.678 395.506, 247.141 395.969, 247.800 396.377 C 249.430 397.384, 250.725 396.433, 252.562 392.880 C 254.009 390.081, 253.993 389.907, 252.305 390.194 C 251.231 390.376, 250.500 389.892, 250.500 389 C 250.500 388.175, 251.092 387.622, 251.817 387.772 C 252.559 387.926, 253.054 387.272, 252.951 386.272 C 252.635 383.185, 252.959 382.721, 254.524 384.020 C 256.526 385.681, 257.654 384.493, 255.985 382.482 C 255.081 381.393, 255.003 380.597, 255.730 379.870 C 256.456 379.144, 256.979 379.157, 257.446 379.913 C 258.398 381.453, 260 381.262, 260 379.607 C 260 378.841, 259.296 377.944, 258.437 377.614 C 257.577 377.284, 257.158 376.554, 257.506 375.991 C 257.854 375.428, 258.557 375.226, 259.069 375.543 C 259.581 375.859, 260 375.681, 260 375.148 C 260 373.617, 254.036 369, 252.058 369 C 251.075 369, 249.126 368.100, 247.727 367 C 246.329 365.900, 244.289 365, 243.194 365 C 242.099 365, 238.682 363.674, 235.602 362.053 C 232.521 360.433, 230 359.363, 230 359.676 C 230 359.989, 229.426 359.769, 228.725 359.187 C 228.024 358.605, 225.212 357.380, 222.475 356.464 C 219.739 355.548, 216.485 353.863, 215.244 352.720 L 212.989 350.641 214.995 348.505 C 217.194 346.165, 224.179 345.779, 226.283 347.883 C 226.897 348.497, 228.120 349, 229 349 C 229.880 349, 231.101 349.501, 231.713 350.113 C 232.325 350.725, 234.875 351.608, 237.379 352.076 C 239.884 352.544, 243.722 354.111, 245.909 355.558 C 248.095 357.005, 250.344 357.906, 250.905 357.559 C 251.466 357.212, 253.855 358.150, 256.213 359.643 C 259.452 361.695, 261.844 362.381, 266 362.452 C 269.025 362.503, 272.037 362.883, 272.694 363.297 C 273.723 363.945, 279 356.775, 279 354.727 C 279 354.399, 279.484 352.863, 280.075 351.315 C 281.108 348.609, 281.204 348.574, 282.564 350.427 C 284.440 352.981, 285.507 351.798, 283.819 349.036 C 282.669 347.155, 282.750 346.693, 284.446 345.435 C 285.677 344.523, 286.742 344.342, 287.343 344.943 C 287.944 345.544, 289.338 344.453, 291.133 341.975 C 293.431 338.803, 293.796 337.593, 293.048 335.627 C 291.796 332.334, 294.351 330.092, 298.767 330.606 C 301.879 330.969, 302.004 330.856, 301.389 328.243 C 300.325 323.722, 300.401 323.500, 303 323.500 C 305.192 323.500, 305.494 323.076, 305.451 320.054 C 305.413 317.323, 304.791 316.250, 302.451 314.877 C 300.828 313.925, 298.577 313.113, 297.450 313.073 C 296.322 313.033, 294.939 312.539, 294.376 311.976 C 293.813 311.413, 291.692 310.890, 289.664 310.814 C 287.635 310.737, 285.471 310.068, 284.855 309.325 C 284.120 308.439, 283.339 308.304, 282.583 308.931 C 281.185 310.091, 278.681 309.810, 276.845 308.287 C 275.417 307.101, 272.172 306.118, 268 305.607 C 263.978 305.114, 257.129 303.018, 256.566 302.107 C 256.281 301.646, 254.988 301.471, 253.693 301.718 C 252.398 301.966, 249.633 301.456, 247.547 300.584 C 242.602 298.518, 239.442 298.631, 234.263 301.059 M 103.503 345.995 C 103.190 346.501, 101.712 346.906, 100.217 346.896 C 97.206 346.876, 91.321 347.834, 89 348.723 C 86.971 349.500, 82.718 349.038, 81.550 347.914 C 80.043 346.464, 77.271 346.851, 76.599 348.604 C 76.254 349.500, 75.340 349.961, 74.524 349.647 C 73.721 349.339, 72.779 349.548, 72.431 350.112 C 72.083 350.675, 71.216 350.913, 70.505 350.640 C 67.423 349.457, 63.212 357.777, 66.016 359.510 C 66.575 359.856, 66.782 360.544, 66.475 361.040 C 66.169 361.536, 66.526 363.192, 67.269 364.721 C 68.012 366.249, 68.551 368.850, 68.467 370.500 C 68.383 372.150, 68.732 374.043, 69.243 374.706 C 69.754 375.370, 69.922 376.317, 69.616 376.812 C 69.310 377.307, 68.821 379.613, 68.529 381.935 C 68.237 384.257, 67.737 387.198, 67.418 388.470 C 67.099 389.741, 67.264 391.045, 67.785 391.367 C 68.306 391.689, 68.515 393.087, 68.250 394.474 C 67.802 396.815, 67.985 396.953, 70.792 396.392 C 73.174 395.915, 74.044 396.213, 74.890 397.795 C 75.670 399.251, 76.919 399.776, 79.436 399.705 C 81.419 399.648, 83.711 400.334, 84.782 401.303 C 85.814 402.236, 87.771 403, 89.133 403 C 90.494 403, 93.737 404.350, 96.339 406 C 98.941 407.650, 102.377 409, 103.976 409 C 105.574 409, 107.174 409.472, 107.530 410.049 C 107.975 410.769, 108.605 410.742, 109.545 409.962 C 110.297 409.338, 111.317 409.078, 111.811 409.383 C 113.486 410.418, 117.304 405.270, 116.667 402.835 C 116.307 401.456, 116.691 399.894, 117.653 398.831 C 118.520 397.873, 119.331 395.831, 119.454 394.294 C 119.578 392.757, 120 390.775, 120.393 389.889 C 120.786 389.003, 120.945 385.949, 120.746 383.102 C 120.503 379.608, 120.823 377.562, 121.731 376.808 C 122.489 376.180, 123.039 373.903, 122.992 371.596 C 122.946 369.343, 123.069 366.012, 123.265 364.192 C 123.462 362.373, 123.324 360.700, 122.959 360.475 C 122.594 360.249, 122.396 357.237, 122.519 353.782 C 122.745 347.439, 121.834 344.789, 119.677 345.515 C 116.808 346.479, 108.485 346.755, 106.382 345.955 C 105.015 345.436, 103.839 345.452, 103.503 345.995 M 72.553 373.915 C 72.231 374.436, 72.394 375.125, 72.915 375.447 C 73.436 375.769, 74.125 375.606, 74.447 375.085 C 74.769 374.564, 74.606 373.875, 74.085 373.553 C 73.564 373.231, 72.875 373.394, 72.553 373.915 M 69.592 389.852 C 68.808 391.119, 73.664 395.326, 74.975 394.516 C 75.794 394.009, 75.769 393.426, 74.881 392.356 C 73.120 390.235, 70.207 388.856, 69.592 389.852 M 174 389.862 C 170.557 391.326, 167.034 394.319, 166.399 396.318 C 166.025 397.495, 164.545 399.930, 163.110 401.729 C 161.674 403.528, 160.499 405.337, 160.497 405.750 C 160.495 406.162, 159.257 408.117, 157.747 410.094 C 156.236 412.071, 155 414.014, 155 414.411 C 155 414.808, 153.836 416.659, 152.414 418.524 C 150.781 420.664, 150.131 422.390, 150.649 423.207 C 151.455 424.478, 151.626 425.005, 151.875 427 C 151.944 427.550, 152.608 428, 153.351 428 C 154.094 428, 156.793 429.111, 159.348 430.470 C 161.902 431.828, 164.584 432.713, 165.307 432.436 C 166.029 432.159, 168.301 433.072, 170.355 434.466 C 172.408 435.860, 174.588 437, 175.198 437 C 176.862 437, 186.791 441.853, 187.511 443.018 C 187.856 443.576, 188.605 443.744, 189.176 443.391 C 190.215 442.749, 196.977 444.403, 200.236 446.097 C 201.191 446.594, 202.879 447, 203.986 447 C 205.094 447, 206.900 447.900, 208 449 C 209.100 450.100, 211.055 451, 212.345 451 C 213.635 451, 215.497 451.891, 216.482 452.980 C 217.468 454.070, 219.900 455.253, 221.887 455.610 C 223.874 455.966, 226.850 456.939, 228.500 457.772 C 230.150 458.604, 232.306 459.687, 233.291 460.177 C 235.151 461.102, 237 460.521, 237 459.011 C 237 458.531, 235.988 457.995, 234.750 457.820 C 231.721 457.389, 231.957 455.787, 235.283 454.193 C 237.485 453.138, 237.892 452.419, 237.400 450.457 C 236.750 447.869, 236.689 446.033, 237.026 439.197 C 237.179 436.086, 236.755 434.541, 235.496 433.621 C 233.868 432.430, 233.925 432.079, 236.382 428.187 C 237.827 425.898, 238.934 423.683, 238.843 423.263 C 238.752 422.843, 239.226 421.163, 239.898 419.528 C 241.471 415.701, 240.031 412.317, 236.262 410.981 C 234.743 410.442, 232.825 409.550, 232 408.998 C 231.175 408.447, 229.531 407.574, 228.347 407.059 C 227.163 406.545, 225.899 405.646, 225.538 405.062 C 225.177 404.478, 223.754 404, 222.376 404 C 220.001 404, 211.233 400.895, 208 398.909 C 207.175 398.402, 205.825 397.724, 205 397.403 C 204.175 397.082, 202.600 396.426, 201.500 395.946 C 200.400 395.465, 197.833 395.145, 195.796 395.233 C 193.592 395.329, 191.365 394.738, 190.296 393.775 C 189.308 392.884, 187.150 391.858, 185.500 391.494 C 183.850 391.131, 181.825 390.568, 181 390.244 C 178.664 389.327, 175.646 389.162, 174 389.862 M 57.146 413.016 C 56.014 414.547, 54.774 417.052, 54.390 418.583 C 54.006 420.114, 52.636 422.921, 51.346 424.823 C 50.056 426.724, 49 428.910, 49 429.680 C 49 430.451, 48.071 432.337, 46.936 433.872 C 45.801 435.408, 44.766 437.302, 44.636 438.082 C 44.506 438.862, 43.589 441.300, 42.598 443.500 C 41.607 445.700, 40.337 448.625, 39.776 450 C 39.215 451.375, 38.138 453.691, 37.383 455.146 C 35.482 458.808, 38.022 461.935, 43.271 462.396 C 45.345 462.578, 47.820 463.407, 48.771 464.237 C 49.722 465.067, 52.525 465.998, 55 466.307 C 62.222 467.208, 65.380 468.037, 66.991 469.454 C 67.821 470.185, 70.525 471.109, 73 471.509 C 75.475 471.909, 78.644 472.822, 80.042 473.537 C 81.441 474.252, 85.491 475.361, 89.042 476.001 C 92.594 476.642, 96.212 477.805, 97.083 478.587 C 98.169 479.562, 100.148 479.858, 103.386 479.531 C 108.893 478.973, 110 478.440, 110 476.342 C 110 475.495, 110.633 473.384, 111.406 471.651 C 114.224 465.332, 116.274 458.941, 115.674 458.341 C 115.336 458.002, 115.882 456.550, 116.887 455.113 C 117.892 453.676, 118.535 451.993, 118.315 451.374 C 118.096 450.754, 119.056 447.669, 120.450 444.517 C 123.122 438.474, 123.058 435.026, 120.211 431.750 C 119.374 430.788, 117.972 429.986, 117.095 429.968 C 116.218 429.951, 114.626 429.276, 113.559 428.468 C 112.491 427.661, 110.639 427, 109.444 427 C 108.248 427, 106.145 426.115, 104.770 425.033 C 103.394 423.952, 100.296 422.755, 97.885 422.375 C 95.473 421.995, 91.821 420.630, 89.770 419.342 C 87.718 418.054, 85.198 417, 84.169 417 C 83.140 417, 80.318 415.949, 77.899 414.664 C 75.480 413.379, 72.911 412.525, 72.192 412.767 C 71.473 413.008, 70.117 412.511, 69.179 411.662 C 68.191 410.768, 65.735 410.143, 63.339 410.176 C 60.012 410.222, 58.802 410.777, 57.146 413.016 M 137.578 440.565 C 135.592 442.551, 134.261 445.680, 133.454 450.261 C 133.148 451.997, 132.533 453.887, 132.087 454.459 C 131.042 455.800, 129.615 461.137, 129.875 462.726 C 129.986 463.400, 129.384 465.290, 128.538 466.926 C 127.692 468.562, 127 470.829, 127 471.964 C 127 473.099, 126.592 474.809, 126.094 475.764 C 124.717 478.400, 122.608 486.326, 122.882 487.830 C 123.015 488.562, 122.403 490.262, 121.521 491.609 C 120.639 492.955, 120.179 494.481, 120.500 495 C 120.821 495.519, 120.388 497.005, 119.538 498.302 C 118.688 499.599, 118.275 500.942, 118.620 501.287 C 118.966 501.632, 118.381 503.396, 117.320 505.207 C 116.260 507.018, 114.566 512.100, 113.556 516.500 C 112.545 520.900, 111.316 525.014, 110.825 525.643 C 110.334 526.272, 109.762 528.297, 109.555 530.143 C 109.347 531.989, 108.423 536.425, 107.502 540 C 106.581 543.575, 105.729 547.049, 105.609 547.721 C 105.489 548.393, 105.078 549.255, 104.696 549.638 C 103.640 550.693, 103.864 554.798, 105.016 555.510 C 105.575 555.856, 105.804 556.508, 105.525 556.960 C 104.897 557.976, 109.877 561.340, 111.969 561.314 C 112.811 561.303, 114.388 561.903, 115.473 562.647 C 116.557 563.391, 118.415 564, 119.600 564 C 120.785 564, 122.315 564.675, 123 565.500 C 123.685 566.325, 125.202 567.007, 126.372 567.015 C 129.163 567.035, 135.750 569.350, 137.232 570.832 C 137.874 571.474, 139.451 572, 140.735 572 C 142.020 572, 144.156 572.711, 145.482 573.580 C 147.545 574.932, 148.289 574.968, 150.627 573.830 C 153.404 572.479, 158.099 564.738, 157.803 562 C 157.714 561.175, 158.397 558.758, 159.320 556.628 C 160.244 554.498, 161 551.776, 161 550.578 C 161 549.380, 161.474 547.926, 162.052 547.348 C 162.631 546.769, 163.224 545.177, 163.370 543.812 C 163.515 542.446, 164.549 538.892, 165.666 535.914 C 169.659 525.275, 170.022 523.732, 168.866 522.338 C 168.052 521.357, 168.172 520.871, 169.339 520.423 C 170.199 520.093, 171.415 518.272, 172.041 516.376 C 174.274 509.609, 181.294 508.467, 191.782 513.162 C 194.137 514.216, 196.522 514.796, 197.082 514.449 C 197.642 514.103, 199.638 514.549, 201.517 515.441 C 203.396 516.333, 206.815 517.249, 209.114 517.478 C 211.413 517.707, 213.768 518.368, 214.347 518.947 C 214.926 519.526, 216.810 520, 218.533 520 C 220.257 520, 221.992 520.325, 222.390 520.723 C 222.787 521.121, 224.701 521.547, 226.642 521.672 C 228.583 521.796, 230.722 522.354, 231.395 522.913 C 233.022 524.263, 238.460 522.770, 238.635 520.925 C 238.709 520.141, 238.852 519.275, 238.952 519 C 239.982 516.183, 239.774 511.408, 238.564 510.070 C 237.419 508.805, 237.314 507.548, 238.074 504.167 C 238.605 501.805, 238.738 499.384, 238.369 498.788 C 237.518 497.411, 236.841 490.772, 236.982 485.176 C 237.076 481.409, 236.618 480.420, 233.426 477.496 C 230.854 475.141, 228.855 474.166, 226.717 474.227 C 224.872 474.280, 223.034 473.563, 222.051 472.407 C 219.540 469.453, 214.275 466, 212.283 466 C 211.293 466, 208.371 464.875, 205.788 463.500 C 203.205 462.125, 200.046 461, 198.768 461 C 197.490 461, 195.557 460.378, 194.473 459.618 C 193.388 458.859, 192.050 458.126, 191.500 457.991 C 189.018 457.381, 187.370 456.784, 185.709 455.893 C 184.724 455.365, 183.484 455.201, 182.952 455.530 C 182.421 455.858, 181.731 455.464, 181.421 454.654 C 180.907 453.314, 176.531 451.451, 174.780 451.826 C 174.384 451.911, 172.399 450.853, 170.370 449.476 C 168.341 448.099, 164.961 446.698, 162.859 446.361 C 160.757 446.025, 158.524 445.132, 157.896 444.375 C 157.269 443.619, 155.785 443, 154.600 443 C 153.415 443, 151.557 442.391, 150.473 441.647 C 149.388 440.903, 147.825 440.236, 147 440.164 C 146.175 440.092, 144.110 439.760, 142.411 439.427 C 140.200 438.993, 138.827 439.316, 137.578 440.565 M 92.553 444.915 C 92.231 445.436, 92.394 446.125, 92.915 446.447 C 93.436 446.769, 94.125 446.606, 94.447 446.085 C 94.769 445.564, 94.606 444.875, 94.085 444.553 C 93.564 444.231, 92.875 444.394, 92.553 444.915 M 32.178 475.304 C 30.449 476.512, 29.027 478.084, 29.017 478.798 C 29.008 479.512, 28.100 481.959, 27 484.236 C 25.900 486.513, 24.993 489.304, 24.985 490.438 C 24.969 492.571, 23.286 497.623, 21.122 502.028 C 18.599 507.167, 24.280 513.513, 30.830 512.873 C 32.298 512.730, 34.621 513.224, 35.992 513.971 C 37.362 514.718, 40.951 515.433, 43.967 515.560 C 48.274 515.742, 49.749 516.242, 50.847 517.896 C 51.615 519.053, 53.119 520, 54.188 520 C 55.257 520, 56.978 520.453, 58.013 521.007 C 59.047 521.561, 61.155 522.070, 62.697 522.140 C 64.239 522.210, 67.005 522.923, 68.845 523.725 C 70.684 524.527, 73.018 524.967, 74.030 524.702 C 75.042 524.438, 76.801 524.872, 77.937 525.668 C 79.074 526.465, 80.440 526.846, 80.972 526.517 C 81.505 526.188, 83.326 526.634, 85.018 527.509 C 91.488 530.855, 98.417 526.953, 98.221 520.073 C 98.174 518.402, 98.554 516.775, 99.067 516.458 C 99.580 516.141, 100.036 514.896, 100.080 513.691 C 100.124 512.486, 100.925 509.250, 101.859 506.500 C 104.299 499.317, 102.532 494.756, 96.648 493.051 C 94.367 492.390, 91.226 491.208, 89.669 490.425 C 88.112 489.641, 86.087 488.998, 85.169 488.996 C 84.251 488.994, 82.037 488.101, 80.250 487.011 C 78.462 485.921, 77 485.303, 77 485.637 C 77 485.971, 76.325 485.685, 75.500 485 C 74.675 484.315, 74 484.114, 74 484.552 C 74 484.990, 72.898 484.313, 71.551 483.048 C 70.111 481.695, 68.451 480.997, 67.522 481.353 C 65.477 482.138, 55.446 479.523, 52.106 477.334 C 50.654 476.382, 47.951 475.730, 45.951 475.848 C 43.989 475.964, 40.795 475.394, 38.852 474.583 C 35.548 473.202, 35.118 473.249, 32.178 475.304 M 77 479 C 77 479.550, 77.450 480, 78 480 C 78.550 480, 79 479.550, 79 479 C 79 478.450, 78.550 478, 78 478 C 77.450 478, 77 478.450, 77 479 M 19.539 525.148 C 17.330 526.886, 16.920 527.848, 17.389 530.193 C 17.707 531.787, 17.437 535.075, 16.789 537.501 C 15.757 541.359, 15.831 542.155, 17.380 543.868 C 19.506 546.216, 19.245 553.500, 17.035 553.500 C 14.658 553.500, 14.779 555.831, 17.175 556.173 C 18.775 556.401, 19.541 557.253, 19.718 559 C 20.094 562.704, 20.478 564.376, 21.233 565.581 C 22.637 567.826, 25.736 577.794, 25.923 580.673 C 25.966 581.319, 27.171 583.238, 28.601 584.938 C 30.032 586.638, 30.966 588.646, 30.677 589.400 C 30.388 590.154, 31.517 592.060, 33.187 593.635 C 36.660 596.912, 46.288 609.632, 47.276 612.248 C 47.639 613.210, 50.425 615.098, 53.468 616.443 C 56.511 617.789, 59 619.330, 59 619.867 C 59 620.405, 60.688 621.398, 62.750 622.074 C 67.122 623.507, 71.294 626.039, 70.535 626.799 C 70.245 627.089, 71.396 628.171, 73.093 629.203 C 75.442 630.631, 75.921 631.390, 75.099 632.380 C 73.447 634.371, 81.297 640.393, 84.497 639.590 C 85.806 639.262, 87.157 639.446, 87.499 639.999 C 87.916 640.673, 88.741 640.674, 89.995 640.003 C 92.020 638.919, 97 640.234, 97 641.853 C 97 643.165, 94.063 645.397, 93.318 644.651 C 92.969 644.303, 92.148 644.462, 91.494 645.005 C 90.671 645.688, 89.746 645.377, 88.497 643.996 C 86.363 641.639, 85.056 641.507, 82.479 643.392 C 80.850 644.583, 80.771 645.019, 81.929 646.414 C 82.712 647.357, 84.045 647.803, 85.090 647.471 C 86.173 647.128, 87.693 647.693, 88.882 648.882 C 90.589 650.589, 91.034 650.664, 92.066 649.421 C 92.976 648.324, 93.595 648.249, 94.633 649.110 C 95.385 649.734, 96 649.910, 96 649.500 C 96 649.090, 96.604 649.256, 97.342 649.869 C 98.080 650.481, 99.992 651.130, 101.592 651.310 C 105.267 651.724, 109.226 653.825, 108.512 654.981 C 108.212 655.465, 108.394 656.125, 108.915 656.447 C 109.436 656.769, 110.144 656.575, 110.490 656.016 C 110.835 655.457, 111.974 655, 113.020 655 C 114.066 655, 115.792 654.066, 116.856 652.925 C 118.292 651.383, 118.986 651.169, 119.556 652.090 C 120.037 652.868, 119.251 654.185, 117.450 655.621 C 115.871 656.881, 114.932 658.265, 115.364 658.697 C 115.796 659.130, 116.594 658.690, 117.136 657.721 C 117.679 656.751, 118.514 656.200, 118.992 656.495 C 120.345 657.331, 121.476 654.847, 121.488 651.010 C 121.497 648.425, 121.933 647.518, 123.172 647.510 C 124.864 647.500, 130.533 640.199, 129.585 639.251 C 129.302 638.969, 129.730 637.796, 130.535 636.646 C 132.227 634.231, 132.466 630.406, 130.982 629.489 C 130.348 629.097, 130.672 627.848, 131.840 626.180 C 133.935 623.186, 134.982 619.454, 135.398 613.485 C 135.552 611.276, 136.142 608.576, 136.708 607.485 C 137.274 606.393, 138.312 602.547, 139.015 598.938 C 140.170 593.002, 140.121 592.115, 138.500 589.640 C 136.807 587.056, 131.349 583.863, 127.958 583.471 C 127.110 583.373, 125.455 582.779, 124.280 582.150 C 123.106 581.521, 121.502 581.254, 120.717 581.555 C 119.932 581.856, 117.652 581.137, 115.652 579.957 C 113.652 578.777, 110.099 577.636, 107.758 577.421 C 104.817 577.151, 102.836 576.272, 101.355 574.581 C 100.004 573.039, 98.512 572.315, 97.325 572.625 C 96.289 572.896, 94.104 572.569, 92.470 571.898 C 90.837 571.226, 89.176 570.745, 88.780 570.829 C 86.727 571.261, 86.181 567.016, 87.571 561.413 C 88.377 558.161, 89.265 553.976, 89.545 552.114 C 89.824 550.252, 90.443 548.031, 90.920 547.178 C 92.591 544.192, 86.708 536.827, 83.992 538.505 C 83.469 538.828, 82.020 538.544, 80.771 537.874 C 79.522 537.203, 77.375 536.538, 76 536.395 C 69.533 535.724, 66.580 534.930, 64.900 533.409 C 63.828 532.439, 60.976 531.645, 57.982 531.484 C 55.146 531.331, 52.131 530.524, 51.181 529.664 C 50.227 528.801, 47.714 528.131, 45.487 528.146 C 43.294 528.161, 39.838 527.463, 37.806 526.596 C 35.774 525.729, 33.406 525.291, 32.543 525.622 C 31.680 525.953, 30.305 525.668, 29.487 524.989 C 28.669 524.311, 28 524.125, 28 524.578 C 28 525.030, 27.460 524.860, 26.800 524.200 C 25.021 522.421, 22.605 522.736, 19.539 525.148 M 186.153 524.695 C 184.311 525.602, 182.637 526.829, 182.432 527.422 C 182.227 528.015, 181.508 529.850, 180.834 531.500 C 180.160 533.150, 179.553 534.950, 179.483 535.500 C 179.414 536.050, 178.602 538.242, 177.679 540.372 C 176.755 542.502, 176 545.259, 176 546.500 C 176 547.740, 175.360 549.286, 174.578 549.935 C 173.796 550.584, 172.843 553.002, 172.460 555.308 C 172.077 557.613, 171.202 560.625, 170.515 562 C 168.355 566.327, 166.477 577.948, 167.640 579.792 C 168.590 581.297, 173.087 584.470, 175.500 585.337 C 181.010 587.318, 183.888 588.194, 186 588.535 C 187.375 588.757, 189.428 589.088, 190.561 589.270 C 192.772 589.625, 197.077 591.202, 203.500 594.010 C 205.700 594.972, 208.338 596.044, 209.363 596.391 C 210.886 596.908, 211 597.295, 209.990 598.512 C 209.274 599.375, 209.182 600, 209.771 600 C 210.329 600, 211.017 599.397, 211.300 598.660 C 211.845 597.241, 214.707 597.083, 216.769 598.358 C 217.571 598.853, 218.345 598.222, 218.977 596.560 C 219.962 593.969, 222.358 593.153, 223.510 595.016 C 224.326 596.337, 226.223 595.170, 225.719 593.658 C 225.507 593.021, 224.808 592.500, 224.167 592.500 C 223.525 592.500, 223 592.163, 223 591.750 C 223 591.337, 223 590.720, 223 590.378 C 223 590.035, 223.668 590.309, 224.483 590.986 C 225.714 592.008, 226.140 591.762, 226.983 589.544 C 228.395 585.831, 228.254 583.455, 226.537 582.031 C 225.255 580.967, 225.265 580.525, 226.613 578.469 C 227.459 577.177, 228.767 576.357, 229.520 576.646 C 230.362 576.969, 230.911 576.466, 230.948 575.336 C 231.124 569.881, 231.627 567.624, 232.750 567.250 C 233.438 567.021, 234 566.366, 234 565.794 C 234 565.122, 233.517 565.156, 232.633 565.890 C 230.545 567.623, 228.257 564.600, 230.035 562.458 C 230.923 561.388, 231.634 561.234, 232.358 561.958 C 234.153 563.753, 235.063 563.101, 234.407 560.487 C 234.052 559.072, 234.298 557.345, 234.971 556.535 C 235.628 555.744, 235.879 554.194, 235.529 553.092 C 235.179 551.990, 235.419 549.332, 236.062 547.186 C 237.511 542.350, 235.311 538.212, 230.813 537.313 C 229.227 536.995, 227.462 535.864, 226.892 534.798 C 226.129 533.373, 224.984 532.934, 222.568 533.142 C 220.491 533.321, 218.653 532.796, 217.570 531.713 C 216.628 530.771, 214.687 530, 213.257 530 C 211.827 530, 209.822 529.244, 208.802 528.321 C 207.750 527.369, 204.876 526.515, 202.165 526.350 C 199.535 526.189, 195.736 525.370, 193.724 524.529 C 189.362 522.706, 190.227 522.688, 186.153 524.695 M 12 560.941 C 12 561.459, 12.450 562.160, 13 562.500 C 13.550 562.840, 14 562.416, 14 561.559 C 14 560.702, 13.550 560, 13 560 C 12.450 560, 12 560.423, 12 560.941 M 16.256 565.196 C 15.177 566.501, 15.672 572.014, 16.867 571.985 C 19.364 571.924, 20 570.230, 18.693 567.121 C 17.634 564.602, 17.098 564.178, 16.256 565.196 M 18.565 574.895 C 18.260 575.388, 18.688 576.050, 19.515 576.367 C 20.342 576.685, 20.902 577.362, 20.759 577.872 C 20.617 578.382, 20.950 578.845, 21.500 578.900 C 22.050 578.955, 22.455 578.550, 22.400 578 C 22.345 577.450, 22.233 576.325, 22.150 575.500 C 21.987 573.871, 19.461 573.445, 18.565 574.895 M 156 595.284 C 154.196 596.189, 152.984 598.203, 151.647 602.519 C 150.627 605.808, 148.903 611.200, 147.815 614.500 C 146.727 617.800, 145.455 622.608, 144.989 625.183 C 143.952 630.913, 142.570 633.625, 139.977 635.012 C 137.818 636.168, 137.264 638.152, 139.212 637.750 C 140.977 637.386, 140.888 642.963, 139.112 643.957 C 137.825 644.677, 137.862 645.140, 139.393 647.477 C 141.020 649.961, 141.254 650.034, 142.426 648.433 C 143.238 647.321, 143.932 647.081, 144.354 647.764 C 144.717 648.351, 143.898 650.156, 142.535 651.777 C 139.616 655.246, 140.376 656.935, 143.525 653.977 C 146.028 651.625, 149.350 652.350, 153.058 656.058 C 154.489 657.489, 156.014 658.039, 157.670 657.723 C 159.588 657.356, 160.348 657.784, 161.047 659.625 C 162.100 662.393, 163.221 662.794, 162.794 660.250 C 162.611 659.164, 163.101 658.542, 164.084 658.611 C 165.471 658.709, 165.513 658.271, 164.424 655.111 C 162.674 650.032, 165.438 647.365, 173.500 646.357 C 175.150 646.150, 177.094 645.198, 177.821 644.241 C 178.547 643.283, 179.607 642.628, 180.176 642.785 C 180.745 642.942, 181.838 642.549, 182.605 641.913 C 183.372 641.276, 184 641.090, 184 641.500 C 184 641.910, 184.635 641.718, 185.411 641.074 C 186.300 640.336, 187.046 640.265, 187.428 640.883 C 188.354 642.382, 192.428 639.879, 196.742 635.159 C 198.833 632.872, 200.984 630.985, 201.522 630.967 C 203.427 630.902, 206.905 627.227, 207.571 624.575 C 207.942 623.095, 209.315 621.184, 210.623 620.328 C 212.744 618.938, 214.126 614.625, 212.250 615.250 C 211.838 615.387, 211.343 615.050, 211.151 614.500 C 210.207 611.792, 208.801 610, 207.620 610 C 206.899 610, 205.515 609.121, 204.543 608.047 C 203.266 606.636, 201.990 606.252, 199.941 606.662 C 197.939 607.062, 196.317 606.608, 194.418 605.114 C 192.940 603.951, 190.693 603, 189.424 603 C 188.156 603, 186.871 602.601, 186.570 602.113 C 186.269 601.626, 184.330 600.918, 182.261 600.540 C 180.192 600.162, 176.972 598.963, 175.105 597.875 C 173.239 596.787, 171.076 596.141, 170.300 596.439 C 169.523 596.736, 167.283 596.310, 165.322 595.490 C 161.002 593.685, 159.263 593.647, 156 595.284 M 29.079 600.583 C 29.127 601.748, 29.364 601.985, 29.683 601.188 C 29.972 600.466, 29.936 599.603, 29.604 599.271 C 29.272 598.939, 29.036 599.529, 29.079 600.583 M 33.607 600.582 C 32.687 602.980, 32.837 603.119, 34.935 601.808 C 36 601.144, 36.648 600.240, 36.376 599.800 C 35.577 598.507, 34.260 598.879, 33.607 600.582 M 24 606 C 24 606.550, 24.450 607, 25 607 C 25.550 607, 26 606.550, 26 606 C 26 605.450, 25.550 605, 25 605 C 24.450 605, 24 605.450, 24 606 M 29.500 607 C 29.160 607.550, 29.359 608, 29.941 608 C 30.523 608, 31 607.550, 31 607 C 31 606.450, 30.802 606, 30.559 606 C 30.316 606, 29.840 606.450, 29.500 607 M 37 610 C 37 610.550, 37.450 611, 38 611 C 38.550 611, 39 610.550, 39 610 C 39 609.450, 38.550 609, 38 609 C 37.450 609, 37 609.450, 37 610 M 42.597 612.844 C 42.251 613.404, 42.493 614.187, 43.135 614.584 C 43.964 615.096, 43.800 615.673, 42.569 616.573 C 40.948 617.758, 40.972 617.915, 42.938 618.967 C 45.959 620.584, 47.140 619.436, 45.772 616.214 C 44.218 612.552, 43.348 611.628, 42.597 612.844 M 23 615 C 23 615.550, 23.450 616, 24 616 C 24.550 616, 25 615.550, 25 615 C 25 614.450, 24.550 614, 24 614 C 23.450 614, 23 614.450, 23 615 M 58 624.800 C 58 625.240, 58.563 626.187, 59.250 626.904 C 60.254 627.951, 60.171 628.422, 58.827 629.300 C 57.309 630.292, 57.355 630.497, 59.327 631.528 C 60.522 632.153, 61.388 633.189, 61.250 633.832 C 61.113 634.474, 61.900 635, 63 635 C 65.175 635, 65.573 633.973, 64.006 632.406 C 63.459 631.859, 62.916 630.082, 62.798 628.456 C 62.681 626.830, 62.116 625.169, 61.542 624.765 C 60.148 623.782, 58 623.803, 58 624.800 M 47.441 628.532 C 48.509 629.339, 49.832 630, 50.382 630 C 50.932 630, 50.509 629.339, 49.441 628.532 C 48.374 627.724, 47.050 627.064, 46.500 627.064 C 45.950 627.064, 46.374 627.724, 47.441 628.532 M 67.607 632.582 C 66.712 634.915, 66.778 635, 69.500 635 C 72.230 635, 72.664 634.064, 70.800 632.200 C 69.187 630.587, 68.333 630.689, 67.607 632.582 M 53.750 635.584 C 55.538 636.992, 57 638.791, 57 639.581 C 57 640.767, 57.349 640.799, 59 639.768 C 61.315 638.322, 61.612 637, 59.622 637 C 58.865 637, 57.689 636.330, 57.009 635.511 C 56.329 634.692, 55.405 634.249, 54.956 634.527 C 54.506 634.805, 53.856 634.575, 53.510 634.016 C 53.165 633.457, 52.346 633.005, 51.691 633.011 C 51.036 633.017, 51.962 634.175, 53.750 635.584 M 71.232 640 C 72.714 642.373, 74.476 642.684, 73.607 640.418 C 73.273 639.548, 73 638.648, 73 638.418 C 73 638.188, 72.321 638, 71.492 638 C 70.233 638, 70.190 638.332, 71.232 640 M 68 642.559 C 68 643.416, 68.457 643.835, 69.016 643.490 C 69.575 643.144, 69.774 642.443, 69.457 641.931 C 68.600 640.544, 68 640.802, 68 642.559 M 57.459 645.067 C 57.096 645.653, 56.977 646.310, 57.194 646.527 C 57.880 647.214, 62 645.805, 62 644.883 C 62 643.632, 58.252 643.783, 57.459 645.067 M 110.632 647.075 C 109.174 648.222, 108.250 649.596, 108.579 650.129 C 108.953 650.733, 109.692 650.670, 110.545 649.962 C 111.297 649.338, 112.331 649.087, 112.843 649.403 C 114.525 650.443, 116.201 647.412, 114.654 646.128 C 113.599 645.252, 112.672 645.471, 110.632 647.075 M 132.667 645.667 C 131.516 646.817, 131.938 648, 133.500 648 C 134.325 648, 135 647.325, 135 646.500 C 135 644.938, 133.817 644.516, 132.667 645.667 M 151.923 649.593 C 151.010 650.692, 151.262 651.166, 153.136 651.875 C 155.528 652.780, 158.447 651.533, 157.505 650.007 C 156.570 648.495, 153.051 648.234, 151.923 649.593 M 169.500 652 C 169.840 652.550, 170.316 653, 170.559 653 C 170.802 653, 171 652.550, 171 652 C 171 651.450, 170.523 651, 169.941 651 C 169.359 651, 169.160 651.450, 169.500 652 M 174.667 651.667 C 173.479 652.854, 173.957 654.492, 175.833 655.664 C 177.453 656.675, 177.667 656.470, 177.667 653.904 C 177.667 651.202, 176.215 650.119, 174.667 651.667 M 83 655 C 83 655.550, 83.450 656, 84 656 C 84.550 656, 85 655.550, 85 655 C 85 654.450, 84.550 654, 84 654 C 83.450 654, 83 654.450, 83 655 M 86 655 C 86 655.550, 87.237 655.968, 88.750 655.930 C 91.187 655.867, 91.272 655.762, 89.500 655 C 86.769 653.826, 86 653.826, 86 655 M 100 658.059 C 100 658.641, 100.450 658.840, 101 658.500 C 101.550 658.160, 102 657.684, 102 657.441 C 102 657.198, 101.550 657, 101 657 C 100.450 657, 100 657.477, 100 658.059 M 130 657.845 C 130 658.310, 130.900 659.505, 132 660.500 C 134.250 662.536, 134.636 661.422, 132.608 658.750 C 131.187 656.878, 130 656.466, 130 657.845 M 113 661 C 113 661.550, 113.477 662, 114.059 662 C 114.641 662, 114.840 661.550, 114.500 661 C 114.160 660.450, 113.684 660, 113.441 660 C 113.198 660, 113 660.450, 113 661 M 91.510 662.016 C 91.856 662.575, 92.557 662.774, 93.069 662.457 C 94.456 661.600, 94.198 661, 92.441 661 C 91.584 661, 91.165 661.457, 91.510 662.016 M 155.229 662.188 C 155.847 664.042, 158 664.349, 158 662.583 C 158 661.712, 157.287 661, 156.417 661 C 155.546 661, 155.011 661.534, 155.229 662.188 M 151 663.559 C 151 664.416, 151.457 664.835, 152.016 664.490 C 152.575 664.144, 152.774 663.443, 152.457 662.931 C 151.600 661.544, 151 661.802, 151 663.559 M 105 669 C 105 669.550, 105.450 670, 106 670 C 106.550 670, 107 669.550, 107 669 C 107 668.450, 106.550 668, 106 668 C 105.450 668, 105 668.450, 105 669" stroke="none" fill="#193136" fill-rule="evenodd"/>
</svg>