<svg xmlns="http://www.w3.org/2000/svg" width="355" height="682" viewBox="0 0 355 682" version="1.1">
	<path d="M 0 341.003 L 0 682.006 177.750 681.753 L 355.500 681.500 355.751 340.750 L 356.003 0 178.001 0 L 0 0 0 341.003 M 0.494 341.500 C 0.494 529.050, 0.609 605.626, 0.750 511.669 C 0.891 417.712, 0.891 264.262, 0.750 170.669 C 0.609 77.076, 0.494 153.950, 0.494 341.500 M 217.871 13.014 C 216.975 13.536, 213.827 13.795, 210.874 13.588 C 205.145 13.186, 199.867 15.108, 196.989 18.644 C 194.344 21.893, 191.999 26.738, 191.778 29.411 C 191.660 30.835, 191.212 32, 190.782 32 C 190.352 32, 190 33.125, 190 34.500 C 190 35.875, 189.502 37, 188.893 37 C 188.284 37, 188.045 37.675, 188.362 38.500 C 188.678 39.325, 188.563 40, 188.106 40 C 187.648 40, 186.511 42.425, 185.579 45.388 C 184.647 48.351, 183.250 51.614, 182.474 52.638 C 181.698 53.662, 181.049 55.438, 181.032 56.583 C 181.014 57.729, 180.692 58.975, 180.315 59.352 C 179.662 60.005, 178.935 61.853, 175.376 71.902 C 172.902 78.888, 174.889 81.342, 185.899 84.901 C 187.769 85.506, 190.716 86, 192.449 86 C 194.182 86, 196.027 86.358, 196.550 86.796 C 198.217 88.192, 204.952 90.148, 205.957 89.527 C 206.489 89.198, 209.223 90.093, 212.031 91.515 C 214.839 92.938, 217.893 93.978, 218.818 93.826 C 219.743 93.674, 221.069 93.906, 221.763 94.342 C 222.458 94.778, 224.371 95.173, 226.013 95.219 C 227.656 95.266, 229 95.628, 229 96.024 C 229 96.420, 230.832 97.037, 233.070 97.395 C 235.309 97.753, 238.193 98.736, 239.480 99.579 C 241.950 101.197, 247.350 101.024, 252.101 99.175 C 254.570 98.214, 255.873 94.935, 257.345 85.982 C 257.482 85.148, 257.937 83.910, 258.356 83.232 C 258.835 82.457, 258.540 82, 257.559 82 C 256.702 82, 256 81.235, 256 80.300 C 256 78.978, 256.267 78.867, 257.200 79.800 C 259.121 81.721, 259.841 81.237, 260.929 77.294 C 261.695 74.522, 261.644 73.392, 260.726 72.810 C 259.759 72.195, 259.760 72.027, 260.731 72.015 C 261.408 72.007, 262.225 70.950, 262.548 69.667 C 262.870 68.383, 263.748 67.333, 264.500 67.333 C 265.252 67.333, 266.130 68.383, 266.452 69.667 C 266.775 70.950, 267.506 72, 268.078 72 C 268.650 72, 268.871 71.601, 268.570 71.113 C 268.269 70.626, 268.635 69.718, 269.384 69.096 C 270.916 67.825, 274 68.634, 274 70.307 C 274 71.038, 273.603 71.003, 272.800 70.200 C 271.232 68.632, 270 68.673, 270 70.292 C 270 72.285, 277.081 75.178, 278.690 73.842 C 279.636 73.057, 280.381 73.072, 281.373 73.895 C 282.129 74.522, 283.406 74.781, 284.213 74.472 C 285.020 74.162, 286.257 74.604, 286.962 75.454 C 287.668 76.305, 288.752 77.003, 289.372 77.006 C 289.993 77.010, 291.710 77.643, 293.188 78.415 C 295.044 79.383, 296.966 79.572, 299.393 79.024 C 301.328 78.588, 303.043 78.516, 303.205 78.865 C 303.938 80.442, 310.794 82.806, 311.778 81.822 C 312.480 81.120, 313.786 81.521, 315.909 83.091 C 318.154 84.751, 319.316 85.084, 320.106 84.294 C 321.343 83.057, 320.392 79, 318.865 79 C 318.315 79, 318.139 79.863, 318.474 80.917 C 318.966 82.467, 318.694 82.733, 317.054 82.304 L 315.025 81.773 317.031 78.957 C 318.367 77.080, 318.674 75.917, 317.950 75.469 C 317.352 75.100, 317.121 74.127, 317.436 73.306 C 317.799 72.360, 317.276 71.623, 316.004 71.291 C 314.724 70.956, 314 69.927, 314 68.442 C 314 67.164, 313.550 65.840, 313 65.500 C 312.450 65.160, 312 64.024, 312 62.976 C 312 61.928, 311.100 60.589, 310 60 C 308.900 59.411, 308 58.326, 308 57.587 C 308 56.849, 307.239 55.627, 306.308 54.872 C 304.864 53.701, 304.741 53.708, 305.472 54.920 C 306.122 55.999, 305.908 56.179, 304.582 55.670 C 303.622 55.301, 302.476 55, 302.035 55 C 301.594 55, 301.026 53.916, 300.773 52.591 C 300.459 50.951, 300.709 50.335, 301.555 50.659 C 303.615 51.450, 304.355 48.926, 302.582 47.154 C 301.168 45.741, 300.799 45.709, 300.040 46.936 C 299.316 48.107, 298.870 48.137, 297.620 47.100 C 296.777 46.400, 295.618 46.118, 295.044 46.473 C 294.418 46.860, 294 46.045, 294 44.437 C 294 42.166, 294.230 41.946, 295.500 43 C 296.325 43.685, 297 43.875, 297 43.422 C 297 42.970, 297.540 43.140, 298.200 43.800 C 300.341 45.941, 301.088 45.071, 299.592 42.177 C 297.421 37.979, 295.188 36.347, 294.405 38.387 C 294.064 39.274, 293.047 39.986, 292.143 39.970 C 290.686 39.943, 290.698 39.824, 292.250 38.920 C 294.728 37.477, 294.419 35.110, 291.613 34.043 C 290.301 33.544, 288.028 31.937, 286.563 30.472 C 284.570 28.479, 283.283 27.963, 281.450 28.423 C 279.789 28.840, 279 28.619, 279 27.735 C 279 26.641, 273.624 22.607, 272.775 23.064 C 272.244 23.349, 263.489 20.796, 262.500 20.068 C 261.950 19.663, 258.350 18.303, 254.500 17.045 C 250.650 15.787, 247.050 14.437, 246.500 14.044 C 244.668 12.737, 229 12.746, 229 14.054 C 229 14.869, 228.606 14.932, 227.750 14.253 C 225.822 12.723, 219.689 11.953, 217.871 13.014 M 226.500 19 C 226.160 19.550, 226.359 20, 226.941 20 C 227.523 20, 228 19.550, 228 19 C 228 18.450, 227.802 18, 227.559 18 C 227.316 18, 226.840 18.450, 226.500 19 M 234.564 19.293 C 234.940 20.279, 235.499 20.834, 235.807 20.526 C 236.115 20.219, 235.808 19.412, 235.124 18.733 C 234.136 17.753, 234.022 17.868, 234.564 19.293 M 237.549 20.922 C 237.235 21.428, 238.334 22.519, 239.989 23.345 C 241.712 24.204, 243 24.412, 243 23.830 C 243 23.270, 242.105 22.579, 241.011 22.293 C 239.917 22.007, 239.269 21.374, 239.570 20.886 C 239.872 20.399, 239.668 20, 239.118 20 C 238.568 20, 237.862 20.415, 237.549 20.922 M 175 23.393 C 168.037 26.319, 165.629 27.296, 165 27.449 C 164.725 27.516, 163.547 28.102, 162.381 28.750 C 161.216 29.399, 159.999 29.666, 159.677 29.343 C 158.968 28.635, 150.296 33.500, 147.500 36.174 C 143.166 40.319, 138.598 44, 137.786 44 C 137.317 44, 135.613 45.350, 134 47 C 132.387 48.650, 130.620 50, 130.073 50 C 128.884 50, 118.993 59.580, 119.015 60.711 C 119.067 63.360, 122.569 65.144, 128.500 65.544 C 130.700 65.692, 133.063 65.855, 133.750 65.907 C 134.438 65.958, 135 66.675, 135 67.500 C 135 68.903, 136.498 69.427, 139.959 69.234 C 140.762 69.189, 142.025 70.018, 142.766 71.076 C 143.507 72.134, 145.113 73, 146.334 73 C 147.556 73, 149.552 73.698, 150.770 74.551 C 155.440 77.822, 165 74.128, 165 69.052 C 165 68.430, 165.876 66.204, 166.946 64.106 C 168.056 61.930, 168.519 59.907, 168.023 59.396 C 166.712 58.045, 168.039 52.922, 169.882 52.218 C 172.494 51.222, 175.264 48.237, 174.590 47.146 C 174.248 46.592, 174.432 45.851, 175 45.500 C 175.568 45.149, 175.816 44.511, 175.551 44.082 C 175.286 43.654, 175.954 42.354, 177.035 41.193 C 178.116 40.033, 179 38.583, 179 37.970 C 179 37.358, 179.679 36.178, 180.509 35.348 C 181.339 34.518, 181.763 33.425, 181.450 32.919 C 181.138 32.414, 181.252 32, 181.705 32 C 182.520 32, 186 24.797, 186 23.110 C 186 22.367, 182.595 20.967, 181 21.055 C 180.725 21.070, 178.025 22.122, 175 23.393 M 233 27.333 C 233 28.260, 233.777 28.993, 234.750 28.985 C 235.749 28.976, 236.071 28.649, 235.500 28.223 C 234.950 27.813, 234.162 27.069, 233.750 26.572 C 233.338 26.074, 233 26.417, 233 27.333 M 264.087 35.395 C 263.149 36.525, 263.178 37.019, 264.219 37.669 C 264.950 38.126, 266.335 39.737, 267.297 41.250 C 268.564 43.242, 269.866 44, 272.023 44 C 273.660 44, 275 43.501, 275 42.892 C 275 42.223, 274.054 42.021, 272.614 42.382 C 271.105 42.761, 269.775 42.433, 268.992 41.490 C 267.983 40.274, 268.053 40, 269.378 40 C 271.840 40, 271.317 38.184, 268.750 37.820 C 267.512 37.644, 266.500 36.975, 266.500 36.333 C 266.500 34.338, 265.339 33.887, 264.087 35.395 M 285.659 38 C 286.634 39.650, 287.784 41, 288.216 41 C 289.690 41, 289.003 37.723, 287.250 36.392 C 284.375 34.210, 283.777 34.814, 285.659 38 M 192.564 38.293 C 192.940 39.279, 193.499 39.834, 193.807 39.526 C 194.115 39.219, 193.808 38.412, 193.124 37.733 C 192.136 36.753, 192.022 36.868, 192.564 38.293 M 189.981 40.523 C 188.924 41.796, 188.986 41.943, 190.359 41.416 C 191.261 41.069, 192 40.384, 192 39.893 C 192 38.607, 191.421 38.788, 189.981 40.523 M 280 40.094 C 280 40.592, 280.675 41, 281.500 41 C 282.325 41, 283 41.477, 283 42.059 C 283 42.641, 283.457 42.835, 284.016 42.490 C 284.575 42.144, 284.807 41.497, 284.532 41.052 C 283.786 39.845, 280 39.045, 280 40.094 M 277.002 45.180 C 277.001 45.555, 278.012 46.015, 279.250 46.204 C 280.488 46.393, 281.387 47.099, 281.250 47.774 C 280.904 49.470, 282.497 49.311, 284 47.500 C 285.023 46.268, 284.945 46, 283.563 46 C 282.639 46, 282.150 45.567, 282.477 45.037 C 282.817 44.486, 281.774 44.166, 280.038 44.287 C 278.369 44.404, 277.003 44.806, 277.002 45.180 M 229.500 48 C 229.160 48.550, 229.359 49, 229.941 49 C 230.523 49, 231 48.550, 231 48 C 231 47.450, 230.802 47, 230.559 47 C 230.316 47, 229.840 47.450, 229.500 48 M 286.667 47.667 C 286.300 48.033, 286 48.798, 286 49.367 C 286 49.993, 286.466 49.934, 287.183 49.217 C 287.834 48.566, 288.134 47.801, 287.850 47.517 C 287.566 47.233, 287.033 47.300, 286.667 47.667 M 236.280 51.850 C 234.803 52.282, 234.326 52.926, 234.854 53.774 C 235.458 54.744, 236.083 54.566, 237.479 53.024 C 238.486 51.911, 239.128 51.045, 238.905 51.100 C 238.682 51.155, 237.501 51.492, 236.280 51.850 M 281 51.755 C 281 52.305, 281.675 53.315, 282.500 54 C 283.337 54.694, 284 54.803, 284 54.245 C 284 53.695, 283.325 52.685, 282.500 52 C 281.663 51.306, 281 51.197, 281 51.755 M 169.564 54.707 C 169.022 56.132, 169.136 56.247, 170.124 55.267 C 170.808 54.588, 171.115 53.781, 170.807 53.474 C 170.499 53.166, 169.940 53.721, 169.564 54.707 M 256.250 57.689 C 257.212 57.941, 258 58.837, 258 59.680 C 258 60.668, 258.563 60.998, 259.582 60.607 C 260.452 60.273, 261.689 59.982, 262.332 59.961 C 262.974 59.939, 261.986 59.264, 260.135 58.461 C 258.285 57.657, 256.260 57.052, 255.635 57.116 C 255.011 57.180, 255.287 57.438, 256.250 57.689 M 266.500 59 C 266.840 59.550, 267.541 60, 268.059 60 C 268.577 60, 269 59.550, 269 59 C 269 58.450, 268.298 58, 267.441 58 C 266.584 58, 266.160 58.450, 266.500 59 M 273 62 C 273 62.550, 273.450 63, 274 63 C 274.550 63, 275 62.550, 275 62 C 275 61.450, 274.550 61, 274 61 C 273.450 61, 273 61.450, 273 62 M 219.917 69.250 C 219.385 70.844, 219.519 73.797, 220.107 73.434 C 220.528 73.174, 220.806 72.069, 220.724 70.980 C 220.595 69.279, 220.194 68.418, 219.917 69.250 M 263.583 70.866 C 263.152 71.563, 263.070 72.403, 263.400 72.733 C 264.295 73.628, 265.271 72.312, 264.787 70.862 C 264.449 69.846, 264.213 69.846, 263.583 70.866 M 104.243 74.877 C 102.734 76.589, 98.912 80.761, 95.750 84.148 C 89.127 91.240, 88.670 93.299, 93.250 95.391 C 99.855 98.408, 104.320 100.013, 104.792 99.541 C 105.059 99.274, 106.600 100.168, 108.216 101.528 C 109.831 102.888, 111.992 104, 113.018 104 C 114.043 104, 115.152 104.437, 115.482 104.972 C 115.813 105.506, 118.089 106.831, 120.541 107.915 C 127.920 111.179, 125.344 114.112, 117.453 111.432 C 114.982 110.593, 112.548 110.162, 112.044 110.473 C 111.541 110.784, 109.511 110.130, 107.534 109.019 C 105.557 107.909, 102.883 107, 101.592 107 C 100.301 107, 97.502 106.236, 95.372 105.303 C 93.242 104.370, 90.187 103.469, 88.582 103.301 C 86.977 103.134, 85.457 102.791, 85.205 102.538 C 84.953 102.286, 83.453 102.748, 81.873 103.566 C 79.330 104.881, 78.583 106.001, 78.837 108.117 C 78.878 108.457, 77.806 109.773, 76.456 111.042 C 75.105 112.310, 74 113.739, 74 114.217 C 74 114.694, 73.557 115.628, 73.015 116.292 C 68.068 122.359, 67 124.080, 67 125.987 C 67 127.195, 66.100 129.329, 65 130.727 C 63.900 132.126, 63 133.815, 63 134.481 C 63 135.148, 62.283 137.129, 61.408 138.885 C 60.532 140.640, 60.026 142.626, 60.284 143.298 C 61.034 145.252, 69.831 147.256, 78.535 147.455 C 83.679 147.573, 87.764 148.234, 89.888 149.294 C 93.463 151.078, 102.345 152.860, 108 152.928 C 109.925 152.951, 112.850 153.189, 114.500 153.457 C 125.722 155.277, 125.313 155.318, 128.845 152.041 C 130.797 150.231, 131.961 148.340, 131.639 147.501 C 131.336 146.711, 131.459 145.835, 131.912 145.554 C 132.366 145.274, 133.017 143.293, 133.360 141.152 C 133.702 139.011, 134.690 136.672, 135.555 135.954 C 136.516 135.157, 136.914 133.794, 136.578 132.454 C 136.214 131.003, 137.032 128.778, 138.995 125.880 C 142.125 121.262, 142.860 116.314, 140.750 114.071 C 139.722 112.978, 139.989 112.857, 142.250 113.390 C 144.912 114.017, 146.062 112.775, 144 111.500 C 143.450 111.160, 143 110.369, 143 109.741 C 143 108.919, 143.336 108.936, 144.200 109.800 C 146.053 111.653, 147 111.234, 147 108.559 C 147 107.216, 147.450 105.840, 148 105.500 C 148.550 105.160, 149 103.874, 149 102.641 C 149 101.408, 149.526 99.874, 150.168 99.232 C 150.810 98.590, 151.864 96.529, 152.509 94.652 C 154.205 89.719, 152.236 86.406, 146.736 84.942 C 144.406 84.321, 141.821 83.209, 140.991 82.470 C 140.161 81.731, 138.361 80.896, 136.991 80.615 C 130.803 79.343, 129.721 79.013, 128.556 78.047 C 127.874 77.481, 126.008 76.870, 124.408 76.690 C 122.809 76.510, 120.376 75.755, 119.001 75.013 C 117.627 74.271, 115.377 73.568, 114.001 73.452 C 112.626 73.336, 110.484 72.908, 109.243 72.502 C 107.460 71.918, 106.411 72.416, 104.243 74.877 M 218.232 80 C 217.545 81.100, 217.329 82, 217.751 82 C 218.173 82, 219.081 81.100, 219.768 80 C 220.455 78.900, 220.671 78, 220.249 78 C 219.827 78, 218.919 78.900, 218.232 80 M 273.389 82.980 C 271.234 83.851, 269.974 85.935, 269.448 89.500 C 268.378 96.752, 268.256 98.778, 268.840 99.587 C 270.121 101.359, 274.008 103, 276.927 103 C 278.552 103, 280.143 103.422, 280.461 103.937 C 280.780 104.452, 282.753 104.850, 284.846 104.822 C 286.940 104.793, 290.094 105.514, 291.856 106.425 C 293.617 107.336, 295.476 107.824, 295.985 107.509 C 296.495 107.194, 298.470 107.587, 300.374 108.383 C 302.279 109.179, 304.060 109.607, 304.333 109.334 C 304.606 109.061, 305.880 109.417, 307.164 110.124 C 308.449 110.831, 310.185 111.307, 311.023 111.181 C 311.860 111.054, 315.010 111.793, 318.023 112.822 C 321.035 113.851, 324.021 114.514, 324.658 114.294 C 325.295 114.074, 326.110 114.368, 326.467 114.947 C 327.320 116.327, 330.592 116.289, 333.246 114.868 C 335.294 113.773, 335.301 113.693, 333.489 112.368 C 332.460 111.616, 332.154 111, 332.809 111 C 333.464 111, 334 110.325, 334 109.500 C 334 108.675, 333.550 108, 333 108 C 332.450 108, 332 108.450, 332 109 C 332 109.550, 331.550 110, 331 110 C 330.450 110, 330 109.325, 330 108.500 C 330 107.675, 330.450 107, 331 107 C 331.550 107, 332 106.520, 332 105.933 C 332 105.320, 331.147 105.136, 330 105.500 C 328.735 105.902, 328 105.680, 328 104.896 C 328 104.215, 327.212 102.758, 326.250 101.659 C 324.583 99.756, 324.583 99.691, 326.250 100.299 C 327.519 100.762, 328 100.425, 328 99.076 C 328 97.195, 325.499 95.573, 324.015 96.491 C 323.572 96.765, 322.952 96.316, 322.636 95.494 C 322.300 94.617, 320.794 94, 318.991 94 C 317.301 94, 314.620 93.039, 313.032 91.865 C 311.366 90.634, 309.451 89.997, 308.505 90.360 C 307.603 90.706, 304.758 90.015, 302.183 88.824 C 297.185 86.514, 291.166 85.103, 284.201 84.608 C 281.837 84.440, 279.384 83.784, 278.751 83.151 C 277.424 81.824, 276.335 81.789, 273.389 82.980 M 216 85 C 216 85.550, 216.477 86, 217.059 86 C 217.641 86, 217.840 85.550, 217.500 85 C 217.160 84.450, 216.684 84, 216.441 84 C 216.198 84, 216 84.450, 216 85 M 170.500 94.719 C 169.400 94.987, 167.681 95.934, 166.679 96.822 C 164.661 98.613, 160 108.204, 160 110.565 C 160 111.393, 159.308 113.127, 158.461 114.419 C 157.615 115.711, 157.012 117.157, 157.121 117.634 C 157.231 118.110, 156.358 120.525, 155.182 123 C 154.006 125.475, 153.034 128.770, 153.022 130.321 C 153.010 131.873, 152.325 133.818, 151.500 134.643 C 150.675 135.468, 150 137.150, 150 138.380 C 150 139.611, 149.339 141.491, 148.532 142.559 C 147.724 143.626, 147.049 145.486, 147.032 146.691 C 147.014 147.896, 146.532 149.171, 145.959 149.525 C 143.341 151.144, 148.147 158.255, 151.557 157.808 C 152.748 157.652, 154.365 158.058, 155.150 158.710 C 157.147 160.367, 164.329 161.851, 167.457 161.253 C 169.046 160.949, 170.754 161.373, 171.816 162.334 C 172.794 163.218, 174.869 163.790, 176.531 163.632 C 178.164 163.477, 179.950 163.663, 180.500 164.044 C 182.930 165.731, 196.563 166.820, 200.944 165.678 C 202.528 165.264, 204.009 165.603, 205.156 166.641 C 206.129 167.522, 207.617 167.977, 208.463 167.653 C 209.308 167.328, 210 167.499, 210 168.031 C 210 168.564, 210.873 169, 211.941 169 C 213.009 169, 214.153 169.439, 214.485 169.975 C 214.816 170.512, 216.530 170.778, 218.294 170.566 C 220.057 170.355, 222.175 170.771, 223 171.491 C 223.825 172.211, 227.088 173.047, 230.250 173.349 C 235.201 173.821, 236.004 173.661, 236.032 172.199 C 236.061 170.625, 236.161 170.629, 237.392 172.250 C 238.837 174.154, 241 174.603, 241 173 C 241 172.450, 240.550 172, 240 172 C 239.450 172, 239 171.235, 239 170.300 C 239 168.978, 239.267 168.867, 240.200 169.800 C 240.860 170.460, 241.725 171, 242.122 171 C 243.197 171, 244.900 164.872, 244.624 162 C 244.492 160.625, 244.818 158.919, 245.348 158.209 C 245.879 157.499, 246.445 154.249, 246.607 150.985 C 246.769 147.722, 247.431 144.063, 248.078 142.853 C 248.726 141.644, 249.419 137.846, 249.619 134.414 C 249.819 130.982, 250.411 127.048, 250.935 125.672 C 251.973 122.941, 250.906 117.621, 248.719 114.630 C 247.213 112.570, 230.975 107.932, 227.997 108.711 C 226.788 109.027, 225.799 108.640, 225.443 107.712 C 225.123 106.878, 223.205 105.887, 221.181 105.509 C 219.156 105.131, 216.940 104.358, 216.255 103.792 C 215.571 103.227, 214.019 103.023, 212.807 103.340 C 211.596 103.657, 210.131 103.554, 209.552 103.111 C 208.228 102.097, 198.330 98.915, 197.281 99.166 C 196.851 99.269, 194.475 98.762, 192 98.040 C 189.525 97.318, 186.600 96.604, 185.500 96.453 C 184.400 96.301, 181.475 95.699, 179 95.113 C 174.218 93.982, 173.636 93.955, 170.500 94.719 M 92 98 C 92 98.550, 92.450 99, 93 99 C 93.550 99, 94 98.550, 94 98 C 94 97.450, 93.550 97, 93 97 C 92.450 97, 92 97.450, 92 98 M 321 103 C 321 103.550, 321.477 104, 322.059 104 C 322.641 104, 322.840 103.550, 322.500 103 C 322.160 102.450, 321.684 102, 321.441 102 C 321.198 102, 321 102.450, 321 103 M 267.819 112.490 C 264.385 114.413, 263.217 118.449, 262.605 130.500 C 262.521 132.150, 262.111 134.044, 261.692 134.710 C 261.274 135.375, 260.933 137.400, 260.935 139.210 C 260.940 145.246, 260.359 150.610, 259.560 151.903 C 259.125 152.606, 258.550 156.179, 258.281 159.841 C 258.013 163.503, 257.390 167.258, 256.897 168.184 C 254.023 173.582, 258.114 178.784, 265.950 179.693 C 268.947 180.041, 272.547 180.925, 273.950 181.657 C 275.352 182.389, 278.161 182.990, 280.191 182.994 C 282.221 182.997, 284.131 183.403, 284.436 183.896 C 285.420 185.488, 298.208 187.281, 299.035 185.943 C 299.565 185.086, 299.903 185.138, 300.303 186.137 C 300.750 187.255, 301.039 187.230, 301.909 186 C 302.787 184.758, 302.972 184.887, 302.985 186.750 C 303.001 189.110, 304.413 189.758, 305.546 187.925 C 305.976 187.230, 306.987 187.579, 308.404 188.909 C 309.609 190.042, 312.150 191.240, 314.048 191.571 C 315.947 191.902, 318.175 192.437, 319 192.759 C 322.322 194.057, 325.404 193.833, 326.642 192.203 C 327.581 190.968, 327.945 190.876, 327.968 191.867 C 327.989 192.767, 328.731 193.042, 330.144 192.673 C 331.753 192.252, 332.003 192.397, 331.144 193.256 C 329.655 194.745, 329.693 195.644, 331.250 195.761 C 331.938 195.813, 333.504 196.163, 334.732 196.540 C 336.528 197.090, 337.157 196.717, 337.950 194.631 C 338.575 192.988, 339.460 192.239, 340.367 192.587 C 342.252 193.311, 343.461 191.261, 342.110 189.632 C 341.360 188.729, 341.362 188.038, 342.116 187.284 C 342.875 186.525, 342.858 185.603, 342.057 184.107 C 340.912 181.967, 338 181.172, 338 183 C 338 183.550, 337.480 184, 336.845 184 C 336.154 184, 336.355 183.265, 337.345 182.171 C 339.193 180.130, 339.527 178, 338 178 C 337.450 178, 337 177.502, 337 176.893 C 337 176.284, 337.633 176.029, 338.407 176.326 C 339.291 176.665, 340.245 175.824, 340.975 174.061 C 342.658 169.998, 339.562 163.475, 335.989 163.556 C 334.610 163.588, 333.611 164.145, 333.750 164.806 C 333.887 165.463, 333.502 166, 332.893 166 C 332.284 166, 332.059 165.288, 332.393 164.418 C 332.727 163.548, 333.014 161.861, 333.032 160.668 C 333.063 158.547, 333.095 158.542, 334.532 160.441 C 335.985 162.363, 336.015 162.363, 337.468 160.441 C 339.368 157.929, 339.380 156.083, 337.500 155.362 C 336.675 155.045, 336 154.329, 336 153.771 C 336 153.144, 336.525 153.191, 337.373 153.895 C 338.129 154.522, 339.479 154.754, 340.373 154.410 C 342.165 153.723, 342.579 150.476, 341 149.500 C 340.450 149.160, 340 146.884, 340 144.441 C 340 141.333, 339.400 139.400, 338 138 C 336.444 136.444, 336.333 136, 337.500 136 C 338.325 136, 339 135.550, 339 135 C 339 134.450, 338.534 134, 337.965 134 C 337.274 134, 337.297 133.314, 338.034 131.936 C 339.315 129.543, 337.820 127.002, 335.128 126.996 C 334.232 126.994, 332.027 126.094, 330.226 124.996 C 328.425 123.898, 325.867 123, 324.541 123 C 323.215 123, 320.863 122.477, 319.315 121.839 C 317.767 121.200, 316.149 120.754, 315.720 120.849 C 315.291 120.943, 313.655 120.356, 312.086 119.544 C 310.516 118.733, 307.224 118.109, 304.769 118.158 C 302.144 118.211, 299.256 117.559, 297.754 116.574 C 296.349 115.654, 292.971 114.749, 290.246 114.564 C 287.522 114.379, 284.439 113.771, 283.396 113.215 C 279.792 111.291, 270.713 110.868, 267.819 112.490 M 177.500 115 C 177.840 115.550, 178.316 116, 178.559 116 C 178.802 116, 179 115.550, 179 115 C 179 114.450, 178.523 114, 177.941 114 C 177.359 114, 177.160 114.450, 177.500 115 M 138 117.059 C 138 117.641, 138.450 117.840, 139 117.500 C 139.550 117.160, 140 116.684, 140 116.441 C 140 116.198, 139.550 116, 139 116 C 138.450 116, 138 116.477, 138 117.059 M 170 124 C 170 124.550, 170.477 125, 171.059 125 C 171.641 125, 171.840 124.550, 171.500 124 C 171.160 123.450, 170.684 123, 170.441 123 C 170.198 123, 170 123.450, 170 124 M 134.733 127.124 C 135.412 127.808, 136.219 128.115, 136.526 127.807 C 136.834 127.499, 136.279 126.940, 135.293 126.564 C 133.868 126.022, 133.753 126.136, 134.733 127.124 M 87 131 C 87 131.550, 87.450 132, 88 132 C 88.550 132, 89 131.550, 89 131 C 89 130.450, 88.550 130, 88 130 C 87.450 130, 87 130.450, 87 131 M 300 132 C 300 132.550, 300.477 133, 301.059 133 C 301.641 133, 301.840 132.550, 301.500 132 C 301.160 131.450, 300.684 131, 300.441 131 C 300.198 131, 300 131.450, 300 132 M 319.624 139.539 C 318.696 141.956, 318.896 142.704, 320.015 141 C 320.880 139.683, 321.116 139.680, 321.946 140.971 C 322.466 141.780, 323.143 142.190, 323.452 141.882 C 323.760 141.573, 323.165 140.554, 322.130 139.617 C 320.407 138.058, 320.194 138.051, 319.624 139.539 M 295.079 144.583 C 295.127 145.748, 295.364 145.985, 295.683 145.188 C 295.972 144.466, 295.936 143.603, 295.604 143.271 C 295.272 142.939, 295.036 143.529, 295.079 144.583 M 335.625 143.798 C 335.354 144.237, 335.545 145.249, 336.051 146.048 C 336.768 147.182, 336.973 147.007, 336.985 145.250 C 337 142.937, 336.492 142.394, 335.625 143.798 M 296.500 148 C 296.840 148.550, 297.568 149, 298.118 149 C 298.668 149, 298.840 148.550, 298.500 148 C 298.160 147.450, 297.432 147, 296.882 147 C 296.332 147, 296.160 147.450, 296.500 148 M 318 155.059 C 318 155.641, 318.450 155.840, 319 155.500 C 319.550 155.160, 320 154.684, 320 154.441 C 320 154.198, 319.550 154, 319 154 C 318.450 154, 318 154.477, 318 155.059 M 326.500 157 C 326.840 157.550, 327.316 158, 327.559 158 C 327.802 158, 328 157.550, 328 157 C 328 156.450, 327.523 156, 326.941 156 C 326.359 156, 326.160 156.450, 326.500 157 M 341 159.059 C 341 159.641, 341.450 159.840, 342 159.500 C 342.550 159.160, 343 158.684, 343 158.441 C 343 158.198, 342.550 158, 342 158 C 341.450 158, 341 158.477, 341 159.059 M 59.993 162.234 C 58.895 164.030, 58.181 165.993, 58.407 166.595 C 58.854 167.785, 58.087 174.021, 55.609 189.358 C 54.733 194.781, 54.276 200.251, 54.593 201.515 C 54.910 202.779, 54.703 204.687, 54.132 205.754 C 53.405 207.111, 53.420 208.020, 54.180 208.780 C 54.820 209.420, 54.934 210.612, 54.457 211.683 C 53.324 214.232, 53.221 225, 54.330 225 C 54.833 225, 54.627 225.745, 53.872 226.656 C 53.118 227.567, 52.424 229.930, 52.331 231.906 C 52.238 233.883, 51.849 236.967, 51.466 238.759 C 51.011 240.891, 51.220 242.561, 52.071 243.585 C 52.841 244.513, 52.989 245.427, 52.436 245.826 C 51.291 246.650, 51.273 256.015, 52.412 257.858 C 52.881 258.616, 54.269 258.990, 55.641 258.728 C 56.965 258.475, 58.300 258.676, 58.608 259.175 C 58.916 259.673, 60.052 259.801, 61.132 259.458 C 62.212 259.115, 63.726 259.357, 64.496 259.996 C 66.459 261.626, 69.470 259.756, 69.612 256.821 C 69.707 254.836, 70.123 250.358, 71.451 237 C 71.588 235.625, 72.298 227.975, 73.029 220 L 74.359 205.500 77.518 218.500 C 79.255 225.650, 81.275 234.200, 82.006 237.500 C 82.737 240.800, 83.706 243.991, 84.159 244.592 C 84.612 245.193, 84.746 245.921, 84.457 246.210 C 84.167 246.499, 84.430 248.708, 85.041 251.118 C 85.651 253.528, 86.462 257.072, 86.841 258.994 L 87.532 262.487 95.516 263.631 C 101.482 264.486, 103.806 264.487, 104.709 263.637 C 105.405 262.983, 107.430 250.606, 109.477 234.500 C 111.435 219.100, 113.248 205.150, 113.507 203.500 C 113.766 201.850, 114.220 198.025, 114.517 195 C 115.428 185.692, 116.990 173.560, 117.430 172.365 C 118.287 170.043, 114.975 167, 111.593 167 C 109.781 167, 106.847 166.494, 105.073 165.876 C 101.236 164.538, 99.622 165.643, 99.362 169.784 C 99.269 171.278, 98.680 176.325, 98.054 181 C 97.427 185.675, 96.747 191.300, 96.541 193.500 C 95.140 208.526, 93.333 219.042, 93.086 213.610 C 93.039 212.571, 90.487 201.771, 87.415 189.610 C 84.343 177.450, 81.703 166.473, 81.549 165.217 C 81.134 161.845, 80.191 161.372, 72.500 160.669 C 71.400 160.569, 70.050 160.231, 69.500 159.918 C 68.950 159.605, 67.035 159.263, 65.245 159.158 C 62.546 159, 61.649 159.525, 59.993 162.234 M 322.584 161.641 C 322.057 163.014, 322.204 163.076, 323.477 162.019 C 325.212 160.579, 325.393 160, 324.107 160 C 323.616 160, 322.931 160.739, 322.584 161.641 M 339 160.882 C 339 161.432, 339.450 162.160, 340 162.500 C 340.550 162.840, 341 162.668, 341 162.118 C 341 161.568, 340.550 160.840, 340 160.500 C 339.450 160.160, 339 160.332, 339 160.882 M 334.721 167.286 C 334.449 167.993, 335.057 170.131, 336.072 172.036 C 337.086 173.941, 337.935 174.799, 337.958 173.941 C 337.981 173.084, 337.375 171.528, 336.611 170.483 C 335.847 169.438, 335.446 168.002, 335.718 167.292 C 335.991 166.581, 335.989 166, 335.714 166 C 335.439 166, 334.992 166.579, 334.721 167.286 M 241 168 C 241 168.550, 241.477 169, 242.059 169 C 242.641 169, 242.840 168.550, 242.500 168 C 242.160 167.450, 241.684 167, 241.441 167 C 241.198 167, 241 167.450, 241 168 M 330 169 C 330 169.550, 330.675 170, 331.500 170 C 332.325 170, 333 169.550, 333 169 C 333 168.450, 332.325 168, 331.500 168 C 330.675 168, 330 168.450, 330 169 M 325.094 171.387 C 324.384 172.242, 324.284 173.057, 324.847 173.405 C 325.366 173.726, 326.073 173.252, 326.419 172.351 C 327.267 170.141, 326.557 169.624, 325.094 171.387 M 137.479 172.894 C 130.492 174.651, 125.547 180.281, 124.650 187.500 C 124.377 189.700, 123.638 196, 123.007 201.500 C 122.377 207, 121.613 212.175, 121.310 213 C 121.007 213.825, 120.567 216.750, 120.332 219.500 C 120.098 222.250, 119.516 225.952, 119.040 227.726 C 118.564 229.500, 118.413 231.865, 118.705 232.981 C 118.997 234.097, 118.698 235.659, 118.040 236.452 C 117.381 237.245, 116.951 238.930, 117.083 240.197 C 117.215 241.464, 116.974 244.634, 116.549 247.243 C 115.348 254.603, 116.586 258.843, 121.205 263.193 C 123.428 265.287, 125.979 267.033, 126.874 267.073 C 128.597 267.150, 137.477 268.601, 142.500 269.625 C 147.845 270.716, 153.014 270.298, 154.862 268.625 C 155.852 267.729, 156.901 267.234, 157.192 267.525 C 158.145 268.479, 163.497 260.561, 163.630 258 C 163.702 256.625, 164.002 254.825, 164.299 254 C 164.595 253.175, 165.384 248.225, 166.052 243 C 166.720 237.775, 167.438 232.375, 167.648 231 C 169.665 217.803, 170.184 214.086, 170.369 211.491 C 170.487 209.836, 170.915 207.947, 171.320 207.292 C 171.724 206.637, 172.155 201.466, 172.278 195.801 L 172.500 185.500 169.132 181.312 C 165.102 176.300, 164.700 176.112, 154.500 174.464 C 150.100 173.753, 145.150 172.938, 143.500 172.653 C 141.850 172.367, 139.141 172.476, 137.479 172.894 M 333 174.309 C 333 175.789, 333.423 177, 333.941 177 C 335.643 177, 335.846 175.510, 334.411 173.548 C 333.068 171.710, 333 171.747, 333 174.309 M 184.538 180.939 C 184.154 181.559, 183.638 183.739, 183.390 185.783 C 183.142 187.827, 182.431 192.425, 181.811 196 C 181.190 199.575, 180.753 203.850, 180.839 205.500 C 180.924 207.150, 180.537 209.626, 179.978 211.003 C 179.419 212.379, 178.791 215.754, 178.581 218.503 C 178.064 225.276, 175.271 244.569, 174.093 249.500 C 173.567 251.700, 172.830 256.650, 172.455 260.500 C 172.079 264.350, 171.375 268.255, 170.889 269.178 C 169.337 272.129, 170.909 274, 174.940 274 C 176.990 274, 178.965 274.298, 179.329 274.663 C 179.694 275.027, 181.321 275.471, 182.946 275.649 C 185.879 275.970, 187.220 274.926, 187.608 272.018 C 187.719 271.183, 188.304 266.675, 188.908 262 C 190.369 250.679, 192.234 240.984, 192.933 241.070 C 195.799 241.426, 197.480 243.047, 197.623 245.594 C 197.913 250.757, 199.198 262.484, 199.535 263.043 C 199.715 263.342, 200.135 266.717, 200.468 270.543 C 201.067 277.417, 202.867 280.649, 205.528 279.628 C 206.125 279.398, 208.838 279.785, 211.557 280.487 C 217.577 282.041, 219.279 281.091, 218.492 276.612 C 218.192 274.900, 217.771 272.150, 217.557 270.500 C 217.343 268.850, 216.659 263.900, 216.037 259.500 C 213.755 243.360, 213.733 243.680, 217.243 242 C 223.009 239.241, 224.081 236.641, 226.515 219.500 C 226.828 217.300, 227.566 213.042, 228.157 210.038 C 229.827 201.539, 229.427 197.243, 226.563 192.916 C 222.891 187.367, 219.947 185.830, 210.169 184.358 C 205.401 183.640, 199.475 182.554, 197 181.945 C 189.383 180.070, 185.280 179.739, 184.538 180.939 M 329.543 182.931 C 329.226 183.443, 329.425 184.144, 329.984 184.490 C 330.543 184.835, 331 184.416, 331 183.559 C 331 181.802, 330.400 181.544, 329.543 182.931 M 305.500 184 C 305.840 184.550, 306.316 185, 306.559 185 C 306.802 185, 307 184.550, 307 184 C 307 183.450, 306.523 183, 305.941 183 C 305.359 183, 305.160 183.450, 305.500 184 M 338.500 185 C 338.160 185.550, 338.359 186, 338.941 186 C 339.523 186, 340 185.550, 340 185 C 340 184.450, 339.802 184, 339.559 184 C 339.316 184, 338.840 184.450, 338.500 185 M 312 186 C 312 186.550, 312.477 187, 313.059 187 C 313.641 187, 313.840 186.550, 313.500 186 C 313.160 185.450, 312.684 185, 312.441 185 C 312.198 185, 312 185.450, 312 186 M 337.128 189.900 C 336.374 190.378, 335.961 191.382, 336.211 192.132 C 336.527 193.081, 337.030 192.813, 337.868 191.247 C 339.197 188.763, 339.127 188.634, 337.128 189.900 M 142.122 191.354 C 141.504 192.098, 141.041 193.786, 141.093 195.104 C 141.145 196.422, 140.661 200.200, 140.017 203.500 C 138.253 212.537, 138.226 212.721, 136.985 224 C 136.350 229.775, 135.582 235.175, 135.278 236 C 134.705 237.554, 133.950 242.682, 133.664 246.959 C 133.517 249.157, 134.084 249.552, 139 250.677 C 147.951 252.725, 147.607 253.191, 149.480 236.500 C 149.872 233.013, 150.335 230.280, 151.600 224 C 152.409 219.980, 154.091 206.685, 154.641 199.952 L 155.258 192.403 150.053 191.202 C 143.570 189.705, 143.488 189.707, 142.122 191.354 M 237.699 190.678 C 237.391 191.177, 236.894 193.366, 236.596 195.543 C 236.297 197.719, 235.757 201.412, 235.395 203.750 C 235.033 206.088, 235.133 208.070, 235.618 208.157 C 236.913 208.386, 240.912 208.966, 245.830 209.635 C 249.925 210.193, 250.123 210.369, 249.479 212.863 C 249.105 214.313, 248.628 217.300, 248.419 219.500 C 248.211 221.700, 247.773 224.610, 247.446 225.967 C 247.120 227.324, 246.672 229.799, 246.452 231.467 C 245.852 236.006, 243.265 252.247, 241.428 263 C 240.536 268.225, 239.685 273.400, 239.538 274.500 C 239.390 275.600, 238.943 277.705, 238.544 279.178 C 237.513 282.989, 239.240 285.431, 243.173 285.722 C 255.004 286.599, 254.273 286.734, 255.148 283.504 C 255.594 281.857, 256.190 278.707, 256.473 276.504 C 257.463 268.807, 261.003 246.433, 262.485 238.514 C 263.307 234.121, 263.900 230.071, 263.802 229.514 C 263.705 228.956, 264.199 225.246, 264.900 221.268 C 266.119 214.352, 266.291 214.044, 268.837 214.200 C 270.302 214.289, 272.057 214.781, 272.737 215.293 C 273.418 215.805, 274.712 215.941, 275.614 215.595 C 276.516 215.249, 277.812 215.429, 278.494 215.995 C 280.415 217.589, 281.566 215.338, 282.812 207.556 C 284.142 199.239, 283.625 198.319, 277.168 197.522 C 274.601 197.205, 270.956 196.450, 269.068 195.843 C 267.181 195.236, 263.131 194.376, 260.068 193.933 C 257.006 193.490, 252.475 192.639, 250 192.043 C 242.272 190.180, 238.280 189.737, 237.699 190.678 M 340 195.441 C 340 196.298, 340.450 197, 341 197 C 341.550 197, 342 196.577, 342 196.059 C 342 195.541, 341.550 194.840, 341 194.500 C 340.450 194.160, 340 194.584, 340 195.441 M 198.918 199.420 C 198.873 199.464, 198.650 200.850, 198.424 202.500 C 198.197 204.150, 197.521 208.168, 196.921 211.428 C 194.759 223.169, 194.808 224.993, 197.284 225.060 C 198.503 225.093, 201.574 225.326, 204.109 225.577 L 208.717 226.034 209.342 221.267 C 209.686 218.645, 210.204 214.700, 210.492 212.500 C 210.781 210.300, 211.237 207.375, 211.507 206 C 212.218 202.369, 211.167 201.491, 204.750 200.357 C 201.588 199.798, 198.963 199.376, 198.918 199.420 M 291.166 201.362 C 290.288 202.481, 289.057 208.444, 288.422 214.662 C 288.244 216.401, 287.365 221.801, 286.469 226.662 C 285.573 231.523, 284.657 237.075, 284.435 239 C 284.212 240.925, 283.589 244.975, 283.050 248 C 281.190 258.431, 280.869 260.514, 280.502 264.500 C 280.299 266.700, 279.608 270.525, 278.966 273 C 278.324 275.475, 277.666 278.850, 277.503 280.500 C 277.340 282.150, 276.901 285.104, 276.527 287.064 C 275.699 291.406, 277.067 292.824, 282.589 293.352 C 284.740 293.557, 287.175 294.007, 288 294.352 C 288.825 294.697, 289.999 294.646, 290.610 294.239 C 291.941 293.352, 295.169 281.082, 294.399 279.836 C 294.101 279.355, 294.315 277.507, 294.875 275.730 C 295.944 272.335, 296.720 268.326, 297.685 261.225 C 298.202 257.418, 298.498 257.025, 300.383 257.642 C 301.547 258.023, 303.278 258.400, 304.230 258.480 C 305.181 258.560, 306.268 258.935, 306.646 259.313 C 307.024 259.691, 308.608 260, 310.167 260 C 313.359 260, 313.530 260.797, 311.885 268 C 310.934 272.165, 309.690 277.921, 307.036 290.444 C 305.749 296.513, 306.464 299.373, 309.095 298.685 C 310.142 298.412, 311.238 298.576, 311.531 299.050 C 311.824 299.525, 312.689 299.673, 313.454 299.379 C 314.218 299.086, 315.732 299.321, 316.817 299.902 C 318.274 300.682, 319.069 300.621, 319.858 299.672 C 321.153 298.110, 324.233 287.264, 324.152 284.546 C 324.120 283.471, 324.482 282.121, 324.957 281.546 C 327.339 278.662, 330.853 259, 328.987 259 C 328.444 259, 328 258.523, 328 257.941 C 328 257.359, 328.427 257.146, 328.950 257.469 C 330.209 258.247, 332.020 254.750, 331.873 251.825 C 331.809 250.546, 333.156 241.474, 334.867 231.664 C 338.234 212.363, 338.108 210.617, 333.278 209.719 C 328.521 208.834, 325.750 208.084, 325.196 207.529 C 324.082 206.416, 321 210.426, 321 212.988 C 321 215.584, 319.958 222.188, 317.922 232.500 C 317.379 235.250, 316.775 238.625, 316.580 240 C 316.386 241.375, 315.783 242.407, 315.242 242.293 C 314.700 242.179, 313.187 241.887, 311.879 241.645 C 310.570 241.402, 307.799 240.880, 305.720 240.485 L 301.939 239.766 302.483 235.133 C 303.304 228.140, 306.722 208.718, 307.450 206.910 C 308.241 204.948, 306.445 203.422, 302.500 202.708 C 300.850 202.409, 297.826 201.728, 295.780 201.194 C 293.144 200.507, 291.799 200.556, 291.166 201.362 M 159.079 214.583 C 159.127 215.748, 159.364 215.985, 159.683 215.188 C 159.972 214.466, 159.936 213.603, 159.604 213.271 C 159.272 212.939, 159.036 213.529, 159.079 214.583 M 74.583 274.866 C 74.152 275.563, 74.070 276.403, 74.400 276.733 C 75.295 277.628, 76.271 276.312, 75.787 274.862 C 75.449 273.846, 75.213 273.846, 74.583 274.866 M 75.822 277.690 C 73.785 278.717, 72.071 278.800, 68.670 278.038 C 65.574 277.344, 63.239 277.369, 61.086 278.120 C 59.375 278.716, 57.339 278.960, 56.561 278.662 C 54.852 278.006, 52.562 280.482, 53.489 281.983 C 53.853 282.571, 54.693 282.929, 55.355 282.777 C 56.965 282.407, 57.271 283.129, 56.432 285.317 C 56.048 286.317, 56.244 287.644, 56.867 288.267 C 58.217 289.617, 58.403 293.367, 57.080 292.549 C 55.501 291.574, 56.684 301.112, 58.348 302.776 C 59.769 304.198, 59.756 304.460, 58.207 305.610 C 56.820 306.641, 56.720 307.238, 57.673 308.802 C 58.348 309.910, 58.615 312.454, 58.300 314.797 C 57.885 317.894, 58.270 319.701, 59.910 322.354 C 61.268 324.552, 61.683 326.078, 61.033 326.480 C 57.748 328.510, 63.666 335.185, 68.500 334.903 C 70.150 334.807, 72.625 335.186, 74 335.746 C 75.375 336.306, 77.175 336.419, 78 335.998 C 78.825 335.577, 81.412 334.915, 83.750 334.528 C 86.088 334.141, 88 333.324, 88 332.712 C 88 331.902, 88.304 331.904, 89.122 332.722 C 89.739 333.339, 90.870 333.604, 91.635 333.310 C 92.400 333.016, 93.582 333.215, 94.263 333.751 C 94.943 334.287, 98.200 334.663, 101.500 334.588 C 104.800 334.512, 109.197 334.740, 111.272 335.095 C 114.782 335.695, 117.776 334.546, 114.579 333.826 C 113.324 333.543, 113.322 333.246, 114.567 331.559 C 115.695 330.030, 116 329.948, 116 331.170 C 116 332.282, 116.701 332.589, 118.469 332.251 C 123.119 331.362, 123.411 330.134, 124.472 307 C 124.686 302.325, 124.973 297.600, 125.109 296.500 C 125.746 291.354, 124.814 285.316, 123.025 283 C 121.208 280.646, 120.995 280.599, 119.384 282.199 C 117.771 283.801, 117.797 283.866, 119.837 283.332 C 121.101 283.002, 122 283.231, 122 283.883 C 122 284.498, 120.623 285, 118.941 285 C 116.860 285, 116.113 284.626, 116.605 283.830 C 117.096 283.036, 116.776 282.872, 115.612 283.319 C 114.593 283.710, 114.144 283.576, 114.507 282.989 C 114.843 282.445, 115.856 282, 116.759 282 C 120.943 282, 115.913 280.103, 110.741 279.730 C 107.573 279.502, 104.686 279.019, 104.324 278.657 C 103.266 277.599, 100 277.902, 100 279.059 C 100 279.641, 99.499 279.808, 98.886 279.429 C 98.273 279.051, 94.560 278.589, 90.636 278.404 C 83.072 278.046, 81.109 277.780, 79.500 276.892 C 78.950 276.589, 77.295 276.948, 75.822 277.690 M 142.225 283.709 C 138.218 284.478, 136.911 287.872, 137.452 296.101 C 137.719 300.170, 137.535 304.148, 137.042 304.941 C 136.473 305.855, 136.653 307.362, 137.533 309.064 C 138.296 310.539, 138.664 312.003, 138.350 312.317 C 137.508 313.158, 136.990 324.175, 137.735 325.381 C 138.808 327.116, 138.961 331.342, 137.995 332.506 C 137.493 333.111, 137.284 335.996, 137.529 338.918 C 137.775 341.840, 137.647 344.741, 137.245 345.365 C 136.843 345.989, 136.439 349.875, 136.347 354 C 136.123 364.089, 135.260 376.158, 134.631 378 C 134.349 378.825, 133.887 381.525, 133.605 384 C 132.636 392.508, 131.874 396.505, 130.805 398.683 C 130.216 399.883, 129.970 401.481, 130.259 402.233 C 130.548 402.985, 130.225 404.644, 129.543 405.920 C 127.881 409.025, 129.041 414.549, 131.315 414.361 C 132.242 414.285, 133 414.622, 133 415.111 C 133 415.600, 133.816 416, 134.813 416 C 137.110 416, 142 410.966, 142 408.602 C 142 407.618, 142.905 406.576, 144.011 406.287 C 145.117 405.998, 146.307 404.625, 146.656 403.236 C 147.004 401.847, 148.145 399.763, 149.191 398.605 C 150.237 397.447, 151.747 395.787, 152.546 394.916 C 153.346 394.045, 154 392.661, 154 391.840 C 154 391.020, 155.102 389.314, 156.448 388.049 C 157.795 386.784, 159.180 384.455, 159.528 382.874 C 159.875 381.293, 160.814 380, 161.615 380 C 162.416 380, 163.894 378.081, 164.899 375.736 C 165.904 373.391, 167.463 370.860, 168.363 370.113 C 169.264 369.366, 170 368.328, 170 367.807 C 170 366.625, 178.464 354.690, 180.501 352.999 C 181.325 352.315, 182 350.889, 182 349.830 C 182 348.771, 183.057 346.913, 184.348 345.702 C 185.639 344.491, 187.828 341.693, 189.212 339.485 C 190.596 337.277, 192.464 334.860, 193.364 334.113 C 194.264 333.366, 195 331.989, 195 331.052 C 195 330.115, 196.125 328.292, 197.500 327 C 198.875 325.708, 200 324.125, 200 323.481 C 200 322.837, 200.962 321.453, 202.138 320.405 C 203.314 319.357, 204.896 317.150, 205.653 315.500 C 207.399 311.696, 209.035 309.164, 211.250 306.838 C 212.213 305.827, 213 304.520, 213 303.934 C 213 301.797, 210.887 298.998, 209.215 298.921 C 208.172 298.873, 207.990 298.644, 208.750 298.338 C 210.679 297.559, 210.228 296, 208.073 296 C 207.014 296, 205.941 296.788, 205.689 297.750 C 205.259 299.396, 205.225 299.394, 205.116 297.725 C 204.962 295.363, 201.173 294.035, 196.387 294.665 C 193.272 295.076, 191.705 294.635, 188.500 292.446 C 186.242 290.904, 183.228 289.750, 181.580 289.795 C 179.975 289.840, 177.399 289.224, 175.858 288.426 C 174.316 287.629, 171.130 287.040, 168.778 287.118 C 163.614 287.287, 150.179 285.259, 147.764 283.945 C 146.809 283.425, 145.684 283.061, 145.264 283.136 C 144.844 283.211, 143.476 283.469, 142.225 283.709 M 105.350 288.050 C 105.629 289.587, 107.377 289.427, 107.801 287.825 C 108.078 286.779, 107.951 286.787, 107.197 287.863 C 106.524 288.824, 106.081 288.891, 105.696 288.088 C 105.343 287.352, 105.221 287.339, 105.350 288.050 M 101 294.893 C 101 295.384, 101.739 296.069, 102.641 296.416 C 104.014 296.943, 104.076 296.796, 103.019 295.523 C 101.579 293.788, 101 293.607, 101 294.893 M 185 296.059 C 185 296.641, 185.450 296.840, 186 296.500 C 186.550 296.160, 187 295.684, 187 295.441 C 187 295.198, 186.550 295, 186 295 C 185.450 295, 185 295.477, 185 296.059 M 76 299 C 76 299.550, 76.477 300, 77.059 300 C 77.641 300, 77.840 299.550, 77.500 299 C 77.160 298.450, 76.684 298, 76.441 298 C 76.198 298, 76 298.450, 76 299 M 183 300 C 182.099 300.582, 181.975 300.975, 182.691 300.985 C 183.346 300.993, 184.160 300.550, 184.500 300 C 185.267 298.758, 184.921 298.758, 183 300 M 234.263 301.059 C 231.449 302.379, 229.817 303.882, 229.402 305.534 C 229.059 306.903, 227.478 308.948, 225.889 310.079 C 224.300 311.211, 223 312.746, 223 313.491 C 223 314.237, 221.875 316.184, 220.500 317.818 C 219.125 319.452, 218 321.014, 218 321.289 C 218 321.564, 216.650 323.234, 215 325 C 213.350 326.766, 212 328.638, 212 329.160 C 212 329.682, 210.679 331.522, 209.065 333.249 C 207.450 334.977, 205.537 337.499, 204.815 338.854 C 204.092 340.208, 202.286 342.619, 200.801 344.209 C 199.317 345.800, 197.794 348.074, 197.417 349.262 C 197.040 350.451, 195.442 352.712, 193.866 354.288 C 192.289 355.864, 191 357.779, 191 358.542 C 191 359.306, 189.716 361.409, 188.147 363.215 C 183.859 368.151, 182.744 370.824, 183.436 374.509 C 183.994 377.486, 186.207 379.599, 188.291 379.145 C 188.725 379.051, 190.075 379.528, 191.291 380.207 C 194.769 382.149, 200.290 383.939, 201.156 383.404 C 201.589 383.136, 203.006 383.613, 204.305 384.464 C 205.604 385.315, 209.225 386.229, 212.352 386.495 C 215.480 386.761, 219.173 387.723, 220.560 388.632 C 221.948 389.540, 224.076 390.450, 225.291 390.652 C 232.166 391.797, 234 392.315, 234 393.113 C 234 393.601, 235.329 394, 236.953 394 C 238.577 394, 241.039 394.516, 242.423 395.147 C 244.366 396.032, 245.290 396.004, 246.470 395.025 C 247.736 393.974, 248 394.035, 248 395.378 C 248 396.270, 248.457 397, 249.015 397 C 250.228 397, 254.151 390.817, 253.409 390.075 C 253.124 389.791, 252.528 390.145, 252.085 390.863 C 251.456 391.880, 251.137 391.799, 250.636 390.494 C 249.856 388.460, 250.758 386.732, 252.150 387.593 C 252.714 387.941, 253.076 387.394, 252.966 386.359 C 252.540 382.326, 252.945 381.543, 254.418 383.557 C 255.198 384.624, 256.162 385.171, 256.561 384.773 C 256.959 384.374, 256.700 383.343, 255.985 382.482 C 255 381.295, 254.966 380.634, 255.842 379.758 C 256.479 379.121, 257 377.510, 257 376.178 C 257 374.138, 257.237 373.952, 258.500 375 C 259.396 375.744, 260 375.829, 260 375.211 C 260 373.631, 254.079 369, 252.058 369 C 251.075 369, 249.126 368.100, 247.727 367 C 246.329 365.900, 244.289 365, 243.194 365 C 242.099 365, 238.682 363.674, 235.602 362.053 C 232.521 360.433, 230 359.363, 230 359.676 C 230 359.989, 229.426 359.769, 228.725 359.187 C 228.024 358.605, 225.212 357.380, 222.475 356.464 C 219.739 355.548, 216.510 353.886, 215.300 352.772 C 213.201 350.838, 213.178 350.641, 214.798 348.493 C 216.237 346.585, 217.257 346.293, 221.465 346.579 C 224.568 346.790, 226.752 346.463, 227.282 345.708 C 227.792 344.982, 227.879 345.397, 227.498 346.750 C 227.004 348.506, 227.275 349, 228.733 349 C 229.760 349, 231.101 349.501, 231.713 350.113 C 232.325 350.725, 234.875 351.608, 237.379 352.076 C 239.884 352.544, 243.722 354.111, 245.909 355.558 C 248.095 357.005, 250.344 357.906, 250.905 357.559 C 251.466 357.212, 253.710 358.055, 255.891 359.431 C 260.594 362.400, 264.867 363.355, 266.687 361.845 C 267.638 361.055, 268 361.064, 268 361.878 C 268 362.495, 268.498 363, 269.107 363 C 269.716 363, 269.980 362.391, 269.695 361.647 C 269.409 360.903, 270.036 359.557, 271.088 358.657 C 272.622 357.343, 273 357.298, 273 358.426 C 273 359.200, 272.534 359.989, 271.965 360.178 C 271.320 360.393, 271.455 361.240, 272.325 362.430 C 273.639 364.226, 273.871 364.077, 276.359 359.830 C 279.432 354.587, 279.541 354, 277.441 354 C 276.584 354, 276.179 353.519, 276.542 352.932 C 276.905 352.344, 277.832 352.105, 278.601 352.400 C 280.492 353.126, 280.361 352.083, 278.250 349.596 C 276.861 347.960, 276.835 347.793, 278.123 348.784 C 279.016 349.472, 280.479 349.754, 281.373 349.410 C 282.460 348.993, 283 349.320, 283 350.393 C 283 351.277, 283.450 352, 284 352 C 284.550 352, 285 351.577, 285 351.059 C 285 350.541, 284.550 349.840, 284 349.500 C 283.450 349.160, 283 348.061, 283 347.058 C 283 345.055, 286.627 343.587, 287.617 345.189 C 287.957 345.739, 289.057 344.938, 290.061 343.407 C 291.065 341.877, 291.660 340.259, 291.384 339.812 C 291.108 339.366, 291.584 339, 292.441 339 C 293.298 339, 294 338.550, 294 338 C 294 337.450, 293.625 337, 293.167 337 C 292.709 337, 292.395 336.212, 292.469 335.250 C 292.665 332.715, 294.726 329.393, 295.576 330.243 C 295.975 330.642, 296.895 330.188, 297.619 329.234 C 298.868 327.590, 298.938 327.591, 298.968 329.250 C 298.986 330.212, 299.723 331, 300.607 331 C 301.662 331, 302.005 330.456, 301.607 329.418 C 301.273 328.548, 301 327.198, 301 326.418 C 301 325.638, 300.325 325, 299.500 325 C 298.675 325, 298 324.550, 298 324 C 298 323.450, 298.850 323, 299.889 323 C 301.273 323, 301.975 321.999, 302.517 319.250 C 302.924 317.188, 303.461 316.063, 303.711 316.750 C 303.962 317.438, 304.606 318, 305.142 318 C 306.832 318, 305.085 316.189, 301.826 314.563 C 300.103 313.703, 297.952 313, 297.046 313 C 296.141 313, 294.923 312.523, 294.339 311.939 C 293.756 311.356, 291.444 310.853, 289.201 310.822 C 286.392 310.783, 284.927 310.258, 284.491 309.133 C 283.918 307.658, 283.728 307.675, 282.525 309.310 C 281.730 310.389, 280.938 310.709, 280.564 310.104 C 280.219 309.545, 279.275 309.341, 278.468 309.651 C 277.661 309.960, 277 309.705, 277 309.082 C 277 307.700, 273.452 306.278, 268.328 305.608 C 263.276 304.947, 257.201 303.134, 256.560 302.097 C 256.278 301.641, 254.988 301.471, 253.693 301.718 C 252.398 301.966, 249.633 301.456, 247.547 300.584 C 242.602 298.518, 239.442 298.631, 234.263 301.059 M 60.500 301 C 60.160 301.550, 60.359 302, 60.941 302 C 61.523 302, 62 301.550, 62 301 C 62 300.450, 61.802 300, 61.559 300 C 61.316 300, 60.840 300.450, 60.500 301 M 192 303 C 191.409 304.105, 191.341 305, 191.848 305 C 192.353 305, 193.002 304.100, 193.290 303 C 193.577 301.900, 193.646 301, 193.442 301 C 193.237 301, 192.589 301.900, 192 303 M 65 302.383 C 65 302.594, 65.901 303.002, 67.001 303.290 C 68.102 303.578, 68.751 303.405, 68.442 302.907 C 67.904 302.036, 65 301.594, 65 302.383 M 178 305 C 178 305.550, 178.450 306, 179 306 C 179.550 306, 180 305.550, 180 305 C 180 304.450, 179.550 304, 179 304 C 178.450 304, 178 304.450, 178 305 M 190.500 308 C 190.840 308.550, 191.316 309, 191.559 309 C 191.802 309, 192 308.550, 192 308 C 192 307.450, 191.523 307, 190.941 307 C 190.359 307, 190.160 307.450, 190.500 308 M 275.557 311.418 C 276.624 312.198, 277.710 312.624, 277.969 312.364 C 278.520 311.814, 275.941 310.038, 274.559 310.015 C 274.041 310.007, 274.491 310.638, 275.557 311.418 M 300 317 C 300 317.550, 300.477 318, 301.059 318 C 301.641 318, 301.840 317.550, 301.500 317 C 301.160 316.450, 300.684 316, 300.441 316 C 300.198 316, 300 316.450, 300 317 M 169.079 319.583 C 169.127 320.748, 169.364 320.985, 169.683 320.188 C 169.972 319.466, 169.936 318.603, 169.604 318.271 C 169.272 317.939, 169.036 318.529, 169.079 319.583 M 281 319 C 281 319.550, 281.450 320, 282 320 C 282.550 320, 283 319.550, 283 319 C 283 318.450, 282.550 318, 282 318 C 281.450 318, 281 318.450, 281 319 M 303.683 319.650 C 302.618 320.715, 302.881 324, 304.031 324 C 305.510 324, 306.441 321.041, 305.316 319.916 C 304.794 319.394, 304.059 319.274, 303.683 319.650 M 272.583 322.866 C 272.152 323.563, 272.070 324.403, 272.400 324.733 C 273.295 325.628, 274.271 324.312, 273.787 322.862 C 273.449 321.846, 273.213 321.846, 272.583 322.866 M 262 325.393 C 262 325.609, 262.675 326.045, 263.500 326.362 C 264.325 326.678, 265 326.501, 265 325.969 C 265 325.436, 264.325 325, 263.500 325 C 262.675 325, 262 325.177, 262 325.393 M 170 327.059 C 170 327.641, 170.450 327.840, 171 327.500 C 171.550 327.160, 172 326.684, 172 326.441 C 172 326.198, 171.550 326, 171 326 C 170.450 326, 170 326.477, 170 327.059 M 260.628 328.792 C 260.359 329.228, 261.079 329.656, 262.229 329.742 C 264.822 329.938, 266.120 331.868, 265.429 334.500 L 264.905 336.500 266.117 334.500 C 266.784 333.400, 267.771 332.208, 268.310 331.851 C 269.609 330.992, 268.415 327.996, 266.781 328.015 C 265.871 328.026, 265.926 328.300, 266.971 328.961 C 267.780 329.473, 268.147 330.187, 267.786 330.548 C 267.425 330.909, 266.100 330.483, 264.842 329.602 C 262.284 327.810, 261.347 327.630, 260.628 328.792 M 267 337.059 C 267 337.641, 267.450 337.840, 268 337.500 C 268.550 337.160, 269 336.684, 269 336.441 C 269 336.198, 268.550 336, 268 336 C 267.450 336, 267 336.477, 267 337.059 M 158 340 C 158 340.550, 158.423 341, 158.941 341 C 159.459 341, 160.160 340.550, 160.500 340 C 160.840 339.450, 160.416 339, 159.559 339 C 158.702 339, 158 339.450, 158 340 M 162.362 341.470 C 161.236 343.898, 161.248 343.906, 163.509 342.212 C 164.766 341.271, 165.589 340.163, 165.338 339.750 C 164.516 338.398, 163.519 338.975, 162.362 341.470 M 103.503 345.995 C 103.190 346.501, 101.712 346.906, 100.217 346.896 C 97.206 346.876, 91.321 347.834, 89 348.723 C 86.971 349.500, 82.718 349.038, 81.550 347.914 C 80.043 346.464, 77.271 346.851, 76.599 348.604 C 76.254 349.500, 75.340 349.961, 74.524 349.647 C 73.721 349.339, 72.779 349.548, 72.431 350.112 C 72.083 350.675, 71.216 350.913, 70.505 350.640 C 67.423 349.457, 63.212 357.777, 66.016 359.510 C 66.575 359.856, 66.779 360.548, 66.470 361.048 C 66.161 361.549, 66.444 362.962, 67.100 364.187 C 67.756 365.413, 68.348 367.335, 68.415 368.458 C 68.492 369.741, 69.181 370.448, 70.269 370.361 C 71.221 370.285, 72 370.685, 72 371.251 C 72 371.817, 72.743 372.823, 73.651 373.487 C 74.630 374.202, 74.895 374.947, 74.303 375.313 C 73.753 375.653, 72.305 375.001, 71.085 373.865 C 69.866 372.729, 68.571 372.096, 68.207 372.459 C 67.844 372.823, 69.336 374.651, 71.523 376.522 C 73.711 378.394, 74.986 379.942, 74.357 379.962 C 73.728 379.983, 72.955 379.325, 72.638 378.500 C 71.842 376.425, 69.028 376.612, 68.872 378.750 C 68.626 382.131, 68.277 384.530, 67.562 387.750 C 66.881 390.818, 68.309 392.574, 69.232 389.804 C 69.505 388.986, 70.808 389.336, 73.358 390.912 C 76.677 392.963, 76.903 393.351, 75.417 394.437 C 72.605 396.493, 75.149 399.826, 79.436 399.705 C 81.419 399.648, 83.711 400.334, 84.782 401.303 C 85.814 402.236, 87.771 403, 89.133 403 C 90.494 403, 93.737 404.350, 96.339 406 C 98.941 407.650, 102.377 409, 103.976 409 C 105.574 409, 107.174 409.472, 107.530 410.049 C 107.979 410.775, 108.579 410.765, 109.484 410.013 C 110.202 409.417, 111.242 409.058, 111.795 409.215 C 112.348 409.372, 112.872 409.050, 112.960 408.500 C 113.047 407.950, 113.992 407.177, 115.060 406.782 C 117.139 406.013, 117.782 402, 115.826 402 C 115.180 402, 115.681 400.904, 116.939 399.564 C 118.198 398.225, 119.295 395.781, 119.378 394.133 C 119.461 392.486, 119.860 390.807, 120.264 390.402 C 120.669 389.998, 121 388.198, 121 386.403 C 121 383.813, 120.535 383.050, 118.750 382.706 C 116.523 382.277, 116.524 382.271, 118.867 382.136 C 120.700 382.031, 121.118 381.557, 120.720 380.037 C 120.437 378.957, 120.852 377.538, 121.641 376.883 C 122.492 376.177, 123.042 374.025, 122.992 371.596 C 122.946 369.343, 123.069 366.012, 123.265 364.192 C 123.462 362.373, 123.324 360.700, 122.959 360.475 C 122.594 360.249, 122.396 357.237, 122.519 353.782 C 122.745 347.439, 121.834 344.789, 119.677 345.515 C 116.808 346.479, 108.485 346.755, 106.382 345.955 C 105.015 345.436, 103.839 345.452, 103.503 345.995 M 158 346 C 158 346.550, 158.450 347, 159 347 C 159.550 347, 160 346.550, 160 346 C 160 345.450, 159.550 345, 159 345 C 158.450 345, 158 345.450, 158 346 M 116 350.500 C 116 351.325, 116.436 352, 116.969 352 C 117.501 352, 117.678 351.325, 117.362 350.500 C 117.045 349.675, 116.609 349, 116.393 349 C 116.177 349, 116 349.675, 116 350.500 M 274 349.882 C 274 350.432, 274.450 351.160, 275 351.500 C 275.550 351.840, 276 351.668, 276 351.118 C 276 350.568, 275.550 349.840, 275 349.500 C 274.450 349.160, 274 349.332, 274 349.882 M 113.204 352.955 C 113.875 354.030, 114.564 354.769, 114.736 354.598 C 115.328 354.005, 113.782 351, 112.885 351 C 112.389 351, 112.532 351.880, 113.204 352.955 M 111 356 C 110.099 356.582, 109.975 356.975, 110.691 356.985 C 111.346 356.993, 112.160 356.550, 112.500 356 C 113.267 354.758, 112.921 354.758, 111 356 M 111 361.059 C 111 361.641, 111.450 361.840, 112 361.500 C 112.550 361.160, 113 360.684, 113 360.441 C 113 360.198, 112.550 360, 112 360 C 111.450 360, 111 360.477, 111 361.059 M 68.500 362 C 68.840 362.550, 69.316 363, 69.559 363 C 69.802 363, 70 362.550, 70 362 C 70 361.450, 69.523 361, 68.941 361 C 68.359 361, 68.160 361.450, 68.500 362 M 72 362 C 72 362.550, 72.477 363, 73.059 363 C 73.641 363, 73.840 362.550, 73.500 362 C 73.160 361.450, 72.684 361, 72.441 361 C 72.198 361, 72 361.450, 72 362 M 147 370.883 C 147 371.369, 147.926 372.009, 149.057 372.305 C 150.745 372.746, 150.903 372.588, 149.935 371.421 C 148.614 369.830, 147 369.535, 147 370.883 M 91 373.941 C 91 374.459, 91.445 375.157, 91.989 375.493 C 92.555 375.843, 92.723 375.442, 92.382 374.552 C 91.717 372.820, 91 372.503, 91 373.941 M 97 374.059 C 97 374.641, 97.450 374.840, 98 374.500 C 98.550 374.160, 99 373.684, 99 373.441 C 99 373.198, 98.550 373, 98 373 C 97.450 373, 97 373.477, 97 374.059 M 112 375.500 C 111.282 376.365, 111.185 377, 111.771 377 C 112.329 377, 113.045 376.325, 113.362 375.500 C 113.678 374.675, 113.781 374, 113.591 374 C 113.401 374, 112.685 374.675, 112 375.500 M 106.158 377 C 106.158 378.375, 106.385 378.938, 106.662 378.250 C 106.940 377.563, 106.940 376.438, 106.662 375.750 C 106.385 375.063, 106.158 375.625, 106.158 377 M 77 377.882 C 77 378.432, 77.450 379.160, 78 379.500 C 78.550 379.840, 79 379.668, 79 379.118 C 79 378.568, 78.550 377.840, 78 377.500 C 77.450 377.160, 77 377.332, 77 377.882 M 258 379.500 C 258 380.325, 258.450 381, 259 381 C 259.550 381, 260 380.325, 260 379.500 C 260 378.675, 259.550 378, 259 378 C 258.450 378, 258 378.675, 258 379.500 M 96.033 380.728 C 94.722 382.204, 94.758 382.307, 96.365 381.690 C 97.354 381.311, 98.352 381, 98.582 381 C 98.812 381, 99 380.550, 99 380 C 99 378.529, 97.703 378.847, 96.033 380.728 M 91 381.058 C 91 381.767, 90.150 382.011, 88.856 381.673 C 87.283 381.261, 87.008 381.408, 87.823 382.223 C 88.589 382.989, 89.626 383.026, 91.157 382.343 C 92.666 381.670, 92.997 381.116, 92.189 380.617 C 91.528 380.208, 91 380.404, 91 381.058 M 70 386.977 C 70 387.411, 70.900 388.002, 72 388.290 C 73.100 388.577, 74 388.457, 74 388.023 C 74 387.589, 73.100 386.998, 72 386.710 C 70.900 386.423, 70 386.543, 70 386.977 M 173.500 389.992 C 170.686 391.090, 166 395.639, 166 397.272 C 166 398.024, 164.664 400.136, 163.031 401.965 C 161.398 403.794, 160.271 405.630, 160.527 406.044 C 160.783 406.458, 159.644 408.240, 157.996 410.004 C 156.348 411.768, 155 413.644, 155 414.172 C 155 414.701, 153.836 416.659, 152.414 418.524 C 150.781 420.664, 150.131 422.390, 150.649 423.207 C 151.455 424.478, 151.626 425.005, 151.875 427 C 151.944 427.550, 152.608 428, 153.351 428 C 154.094 428, 156.682 429.039, 159.101 430.309 C 161.520 431.579, 164.400 432.635, 165.500 432.657 C 168.773 432.720, 170.425 433.399, 171.807 435.250 C 172.534 436.224, 174.418 437, 176.057 437 C 177.676 437, 179 437.415, 179 437.922 C 179 438.430, 180.539 439.353, 182.420 439.974 C 184.301 440.594, 186.377 441.749, 187.033 442.540 C 187.690 443.331, 188.674 443.702, 189.220 443.364 C 190.224 442.744, 197.036 444.434, 200.236 446.097 C 202.732 447.395, 204.098 447.221, 206.171 445.345 C 207.363 444.266, 208 444.113, 208 444.904 C 208 445.572, 208.445 445.843, 208.989 445.507 C 209.559 445.155, 209.721 445.564, 209.372 446.474 C 208.904 447.693, 208.452 447.790, 207.383 446.903 C 205.270 445.149, 205.737 446.737, 208 449 C 209.100 450.100, 211.242 451, 212.759 451 C 214.413 451, 216.007 451.782, 216.737 452.950 C 217.419 454.042, 219.616 455.192, 221.728 455.563 C 223.802 455.927, 226.497 456.849, 227.715 457.612 C 228.933 458.376, 230.283 458.996, 230.715 458.992 C 231.655 458.983, 234 454.164, 234 452.242 C 234 451.494, 234.457 451.165, 235.016 451.510 C 235.575 451.856, 235.738 452.615, 235.377 453.199 C 235 453.808, 235.312 454.063, 236.111 453.796 C 236.875 453.542, 237.455 452.808, 237.400 452.167 C 237.345 451.525, 237.233 449.875, 237.150 448.500 C 237.048 446.797, 236.416 446, 235.167 446 C 234.158 446, 233.333 445.318, 233.333 444.486 C 233.333 443.510, 233.944 443.165, 235.049 443.515 C 236.359 443.931, 236.869 443.345, 237.209 441.030 C 237.541 438.770, 237.253 437.980, 236.077 437.921 C 235.045 437.869, 234.932 437.668, 235.750 437.338 C 237.508 436.628, 237.312 434, 235.500 434 C 233.570 434, 233.598 432.543, 235.586 429.509 C 236.459 428.177, 236.882 426.618, 236.527 426.044 C 236.172 425.470, 236.584 425, 237.441 425 C 239.462 425, 239.411 424.118, 237.250 421.696 C 235.565 419.808, 235.580 419.759, 237.634 420.398 C 239.361 420.934, 239.894 420.558, 240.430 418.425 C 241.229 415.240, 238.569 410.567, 236.426 411.390 C 235.642 411.691, 235 411.554, 235 411.085 C 235 410.617, 234.213 409.949, 233.250 409.601 C 230.886 408.746, 227.081 406.481, 225.716 405.116 C 225.102 404.502, 223.536 404, 222.235 404 C 219.973 404, 211.152 400.845, 208 398.909 C 207.175 398.402, 205.825 397.724, 205 397.403 C 204.175 397.082, 202.600 396.426, 201.500 395.946 C 200.400 395.465, 197.833 395.145, 195.796 395.233 C 193.592 395.329, 191.365 394.738, 190.296 393.775 C 189.308 392.884, 187.150 391.858, 185.500 391.494 C 183.850 391.131, 181.825 390.568, 181 390.244 C 178.506 389.265, 175.612 389.167, 173.500 389.992 M 68.667 392.667 C 67.629 393.704, 67.883 397, 69 397 C 69.550 397, 70 396.587, 70 396.082 C 70 395.577, 70.273 394.452, 70.607 393.582 C 71.212 392.005, 69.932 391.401, 68.667 392.667 M 71 395 C 71 395.550, 71.450 396, 72 396 C 72.550 396, 73 395.550, 73 395 C 73 394.450, 72.550 394, 72 394 C 71.450 394, 71 394.450, 71 395 M 57.027 413.178 C 55.836 414.788, 54.781 417.278, 54.681 418.710 C 54.581 420.143, 53.506 422.330, 52.291 423.571 C 51.076 424.812, 49.764 427.104, 49.376 428.664 C 48.988 430.224, 47.816 432.662, 46.772 434.082 C 45.727 435.502, 44.766 437.302, 44.636 438.082 C 44.506 438.862, 43.589 441.300, 42.598 443.500 C 41.607 445.700, 40.337 448.625, 39.776 450 C 39.215 451.375, 38.138 453.691, 37.383 455.146 C 35.482 458.808, 38.022 461.935, 43.271 462.396 C 45.345 462.578, 47.820 463.407, 48.771 464.237 C 49.722 465.067, 52.525 466.004, 55 466.321 C 63.449 467.400, 66.500 468.187, 67.235 469.478 C 67.639 470.188, 70.108 471.089, 72.722 471.481 C 75.335 471.873, 78.624 472.788, 80.029 473.515 C 81.435 474.242, 85.491 475.361, 89.042 476.001 C 92.594 476.642, 96.212 477.805, 97.083 478.587 C 98.169 479.562, 100.148 479.858, 103.386 479.531 C 108.893 478.973, 110 478.440, 110 476.342 C 110 475.495, 110.633 473.384, 111.406 471.651 C 114.224 465.332, 116.274 458.941, 115.674 458.341 C 115.336 458.002, 115.882 456.550, 116.887 455.113 C 117.892 453.676, 118.535 451.993, 118.315 451.374 C 118.096 450.754, 119.056 447.669, 120.450 444.517 C 123.122 438.474, 123.058 435.026, 120.211 431.750 C 119.374 430.788, 117.972 429.986, 117.095 429.968 C 116.218 429.951, 114.626 429.276, 113.559 428.468 C 112.491 427.661, 110.639 427, 109.444 427 C 108.248 427, 106.145 426.115, 104.770 425.033 C 103.394 423.952, 100.296 422.755, 97.885 422.375 C 95.473 421.995, 91.821 420.630, 89.770 419.342 C 87.718 418.054, 85.226 417, 84.231 417 C 83.237 417, 80.640 416.048, 78.461 414.884 C 76.283 413.720, 73.312 412.823, 71.860 412.891 C 70.365 412.961, 68.975 412.376, 68.655 411.543 C 68.267 410.532, 66.698 410.099, 63.641 410.160 C 59.934 410.235, 58.830 410.739, 57.027 413.178 M 167.079 411.583 C 167.127 412.748, 167.364 412.985, 167.683 412.188 C 167.972 411.466, 167.936 410.603, 167.604 410.271 C 167.272 409.939, 167.036 410.529, 167.079 411.583 M 237 417.559 C 237 418.416, 237.457 418.835, 238.016 418.490 C 238.575 418.144, 238.774 417.443, 238.457 416.931 C 237.600 415.544, 237 415.802, 237 417.559 M 215 428 C 213.718 428.828, 213.754 428.972, 215.250 428.985 C 216.213 428.993, 217 428.550, 217 428 C 217 426.780, 216.887 426.780, 215 428 M 212.015 433.750 C 212.024 434.163, 212.467 435.175, 213 436 C 213.784 437.213, 213.972 437.069, 213.985 435.250 C 213.993 434.012, 213.550 433, 213 433 C 212.450 433, 212.007 433.337, 212.015 433.750 M 201.638 436.500 C 201.955 437.325, 202.671 438, 203.229 438 C 203.815 438, 203.718 437.365, 203 436.500 C 202.315 435.675, 201.599 435, 201.409 435 C 201.219 435, 201.322 435.675, 201.638 436.500 M 210 436 C 210 436.550, 210.477 437, 211.059 437 C 211.641 437, 211.840 436.550, 211.500 436 C 211.160 435.450, 210.684 435, 210.441 435 C 210.198 435, 210 435.450, 210 436 M 137.578 440.565 C 135.592 442.551, 134.261 445.680, 133.454 450.261 C 133.148 451.997, 132.533 453.887, 132.087 454.459 C 131.042 455.800, 129.615 461.137, 129.875 462.726 C 129.986 463.400, 129.384 465.290, 128.538 466.926 C 127.692 468.562, 127 470.829, 127 471.964 C 127 473.099, 126.592 474.809, 126.094 475.764 C 124.717 478.400, 122.608 486.326, 122.882 487.830 C 123.015 488.562, 122.403 490.262, 121.521 491.609 C 120.639 492.955, 120.179 494.481, 120.500 495 C 120.821 495.519, 120.388 497.005, 119.538 498.302 C 118.688 499.599, 118.275 500.942, 118.620 501.287 C 118.966 501.632, 118.381 503.396, 117.320 505.207 C 116.260 507.018, 114.566 512.100, 113.556 516.500 C 112.545 520.900, 111.316 525.014, 110.825 525.643 C 110.334 526.272, 109.762 528.297, 109.555 530.143 C 109.347 531.989, 108.423 536.425, 107.502 540 C 106.581 543.575, 105.729 547.049, 105.609 547.721 C 105.489 548.393, 105.078 549.255, 104.696 549.638 C 103.573 550.760, 103.898 555, 105.107 555 C 105.716 555, 105.968 555.641, 105.667 556.425 C 105.072 557.976, 109.416 561.346, 111.969 561.314 C 112.811 561.303, 114.388 561.903, 115.473 562.647 C 116.557 563.391, 118.415 564, 119.600 564 C 120.785 564, 122.276 564.628, 122.913 565.395 C 123.549 566.162, 125.517 567.030, 127.285 567.323 C 133.722 568.392, 136.516 569.320, 137.300 570.646 C 137.740 571.391, 139.218 572, 140.585 572 C 141.952 572, 144.156 572.711, 145.482 573.580 C 147.545 574.932, 148.289 574.968, 150.627 573.830 C 153.404 572.479, 158.099 564.738, 157.803 562 C 157.714 561.175, 158.397 558.758, 159.320 556.628 C 160.244 554.498, 161 551.776, 161 550.578 C 161 549.380, 161.474 547.926, 162.052 547.348 C 162.631 546.769, 163.224 545.177, 163.370 543.812 C 163.515 542.446, 164.549 538.892, 165.666 535.914 C 170.357 523.413, 170.604 521.176, 167.149 522.491 C 165.827 522.994, 165.748 522.869, 166.750 521.859 C 167.438 521.167, 168.052 519.677, 168.116 518.550 C 168.211 516.863, 168.313 516.810, 168.689 518.250 C 169.442 521.132, 170.847 520.244, 172.087 516.102 C 172.841 513.588, 174.146 511.799, 175.764 511.062 C 178.888 509.638, 185.992 510.570, 191.782 513.162 C 194.137 514.216, 196.522 514.796, 197.082 514.449 C 197.642 514.103, 199.638 514.549, 201.517 515.441 C 203.396 516.333, 206.815 517.249, 209.114 517.478 C 211.413 517.707, 213.768 518.368, 214.347 518.947 C 214.926 519.526, 216.810 520, 218.533 520 C 220.257 520, 221.991 520.324, 222.386 520.720 C 222.782 521.116, 224.967 521.564, 227.242 521.716 C 229.517 521.869, 231.648 522.431, 231.979 522.966 C 232.754 524.221, 238.236 522.791, 238.768 521.195 C 238.987 520.538, 238.693 520, 238.115 520 C 237.536 520, 237.321 519.328, 237.636 518.506 C 237.952 517.684, 238.500 517.190, 238.855 517.408 C 240.186 518.227, 239.892 511.538, 238.530 510.033 C 237.421 508.808, 237.321 507.519, 238.074 504.167 C 238.605 501.805, 238.738 499.384, 238.369 498.788 C 237.518 497.411, 236.841 490.772, 236.982 485.176 C 237.077 481.389, 236.623 480.424, 233.322 477.401 C 231.250 475.503, 228.867 474.013, 228.027 474.090 C 224.152 474.446, 222.087 473.861, 221.531 472.250 C 220.650 469.699, 214.378 466.024, 210.422 465.743 C 208.542 465.609, 207.003 465.174, 207.002 464.776 C 206.999 463.610, 201.309 461, 198.772 461 C 197.492 461, 195.557 460.378, 194.473 459.618 C 193.388 458.859, 192.050 458.126, 191.500 457.991 C 189.018 457.381, 187.370 456.784, 185.709 455.893 C 184.724 455.365, 183.484 455.201, 182.952 455.530 C 182.421 455.858, 181.731 455.464, 181.421 454.654 C 180.907 453.314, 176.531 451.451, 174.780 451.826 C 174.384 451.911, 172.399 450.853, 170.370 449.476 C 168.341 448.099, 164.961 446.698, 162.859 446.361 C 160.757 446.025, 158.524 445.132, 157.896 444.375 C 157.269 443.619, 155.785 443, 154.600 443 C 153.415 443, 151.557 442.391, 150.473 441.647 C 149.388 440.903, 147.825 440.236, 147 440.164 C 146.175 440.092, 144.110 439.760, 142.411 439.427 C 140.200 438.993, 138.827 439.316, 137.578 440.565 M 91.672 443.940 C 90.047 444.510, 90.129 444.731, 92.422 445.958 C 95.433 447.570, 96.316 447.153, 94.667 444.898 C 93.949 443.915, 92.795 443.546, 91.672 443.940 M 79 445.500 C 79 446.325, 79.436 447, 79.969 447 C 80.501 447, 80.678 446.325, 80.362 445.500 C 80.045 444.675, 79.609 444, 79.393 444 C 79.177 444, 79 444.675, 79 445.500 M 86 447 C 86 447.550, 86.450 448, 87 448 C 87.550 448, 88 447.550, 88 447 C 88 446.450, 87.550 446, 87 446 C 86.450 446, 86 446.450, 86 447 M 233.250 459.250 C 233.479 459.938, 234.267 460.500, 235 460.500 C 235.733 460.500, 236.521 459.938, 236.750 459.250 C 236.998 458.506, 236.289 458, 235 458 C 233.711 458, 233.002 458.506, 233.250 459.250 M 157 466 C 157 466.550, 157.450 467, 158 467 C 158.550 467, 159 466.550, 159 466 C 159 465.450, 158.550 465, 158 465 C 157.450 465, 157 465.450, 157 466 M 150.500 467 C 150.160 467.550, 150.359 468, 150.941 468 C 151.523 468, 152 467.550, 152 467 C 152 466.450, 151.802 466, 151.559 466 C 151.316 466, 150.840 466.450, 150.500 467 M 155 473.059 C 155 473.641, 155.450 473.840, 156 473.500 C 156.550 473.160, 157 472.684, 157 472.441 C 157 472.198, 156.550 472, 156 472 C 155.450 472, 155 472.477, 155 473.059 M 32.178 475.304 C 30.449 476.512, 29.027 478.067, 29.017 478.761 C 29.008 479.454, 28.138 481.929, 27.085 484.261 C 26.032 486.592, 24.934 489.850, 24.646 491.500 C 23.572 497.640, 22.640 500.503, 21.267 501.876 C 17.478 505.665, 24.288 513.512, 30.813 512.875 C 32.291 512.731, 34.625 513.233, 36 513.991 C 37.375 514.749, 40.525 515.461, 43 515.574 C 45.475 515.687, 48.235 515.829, 49.133 515.889 C 50.032 515.950, 51.002 516.900, 51.290 518 C 51.609 519.221, 52.654 520, 53.972 520 C 55.160 520, 56.978 520.453, 58.013 521.007 C 59.047 521.561, 61.155 522.070, 62.697 522.140 C 64.239 522.210, 67.005 522.923, 68.845 523.725 C 70.684 524.527, 73.018 524.967, 74.030 524.702 C 75.042 524.438, 76.801 524.872, 77.937 525.668 C 79.074 526.465, 80.440 526.846, 80.972 526.517 C 81.505 526.188, 83.326 526.634, 85.018 527.509 C 91.488 530.855, 98.417 526.953, 98.221 520.073 C 98.174 518.402, 98.554 516.775, 99.067 516.458 C 99.580 516.141, 100.036 514.896, 100.080 513.691 C 100.124 512.486, 100.925 509.250, 101.859 506.500 C 104.299 499.317, 102.532 494.756, 96.648 493.051 C 94.367 492.390, 91.226 491.208, 89.669 490.425 C 88.112 489.641, 86.177 489, 85.369 489 C 84.562 489, 82.461 488.231, 80.700 487.292 C 78.940 486.352, 77.162 485.509, 76.750 485.417 C 76.338 485.325, 75.662 485.140, 75.250 485.007 C 74.838 484.873, 74.106 484.835, 73.624 484.924 C 73.142 485.012, 72.077 484.127, 71.257 482.956 C 70.261 481.535, 69.089 481.005, 67.728 481.361 C 65.135 482.039, 55.495 479.554, 52.106 477.334 C 50.654 476.382, 47.951 475.730, 45.951 475.848 C 43.989 475.964, 40.795 475.394, 38.852 474.583 C 35.548 473.202, 35.118 473.249, 32.178 475.304 M 152 474.559 C 152 475.416, 152.450 475.840, 153 475.500 C 153.550 475.160, 154 474.459, 154 473.941 C 154 473.423, 153.550 473, 153 473 C 152.450 473, 152 473.702, 152 474.559 M 77 479 C 77 479.550, 77.450 480, 78 480 C 78.550 480, 79 479.550, 79 479 C 79 478.450, 78.550 478, 78 478 C 77.450 478, 77 478.450, 77 479 M 222 480 C 222 480.550, 222.450 481, 223 481 C 223.550 481, 224 480.550, 224 480 C 224 479.450, 223.550 479, 223 479 C 222.450 479, 222 479.450, 222 480 M 19.539 525.148 C 17.330 526.886, 16.920 527.848, 17.389 530.193 C 17.707 531.787, 17.421 535.137, 16.752 537.639 C 15.667 541.693, 15.728 542.328, 17.314 543.488 C 18.494 544.350, 19.088 546.089, 19.078 548.644 C 19.049 555.605, 20.085 563.747, 21.233 565.581 C 21.604 566.175, 22.657 568.875, 23.572 571.581 C 24.487 574.286, 25.745 576.831, 26.368 577.235 C 27.184 577.764, 27.158 577.974, 26.275 577.985 C 24.621 578.005, 26.406 582.724, 29.193 585.699 C 30.326 586.909, 30.998 588.563, 30.686 589.376 C 30.334 590.293, 31.711 592.328, 34.309 594.734 C 36.614 596.868, 39.117 599.785, 39.870 601.216 C 40.624 602.647, 42.536 605.236, 44.120 606.970 C 45.704 608.705, 47 610.716, 47 611.439 C 47 612.163, 47.685 613.324, 48.523 614.019 C 49.810 615.087, 49.960 614.990, 49.492 613.391 C 49.042 611.856, 49.146 611.891, 50.044 613.576 C 50.653 614.718, 52.721 616.221, 54.641 616.915 C 56.560 617.609, 58.366 618.790, 58.654 619.540 C 59.466 621.656, 65.766 623.439, 67.460 622.033 C 68.577 621.106, 68.739 621.280, 68.305 622.943 C 67.915 624.431, 68.243 625, 69.490 625 C 70.561 625, 71.009 625.533, 70.674 626.407 C 70.140 627.799, 74.615 630.333, 77.609 630.333 C 79.742 630.333, 79.276 630.945, 76.275 632.086 L 73.549 633.122 77.525 636.523 C 81.581 639.994, 84.366 640.834, 85.537 638.940 C 85.956 638.263, 86.633 638.483, 87.414 639.551 C 88.551 641.106, 88.758 641.099, 90.408 639.449 C 91.516 638.341, 92.429 638.061, 92.841 638.703 C 93.203 639.268, 94.505 640.044, 95.734 640.427 L 97.968 641.125 95.940 643.867 C 93.320 647.411, 94.200 651.034, 97.054 648.451 C 98.747 646.919, 98.826 646.948, 98.314 648.908 C 97.934 650.360, 98.237 651, 99.302 651 C 100.146 651, 101.489 651.250, 102.287 651.557 C 103.203 651.908, 104.022 651.264, 104.510 649.807 C 105.267 647.544, 105.290 647.552, 105.708 650.250 C 106.037 652.380, 106.681 653, 108.566 653 C 109.905 653, 111 652.550, 111 652 C 111 651.450, 111.540 651, 112.200 651 C 113.133 651, 113.133 651.267, 112.200 652.200 C 110.446 653.954, 110.730 655, 112.961 655 C 114.040 655, 115.773 654.086, 116.814 652.970 C 118.417 651.248, 118.883 651.155, 119.878 652.353 C 120.798 653.461, 120.708 653.898, 119.462 654.376 C 118.588 654.712, 118.180 655.482, 118.555 656.089 C 119.034 656.864, 119.626 656.792, 120.546 655.846 C 122.245 654.100, 121.295 649.241, 119.144 648.669 C 117.460 648.221, 121.274 647.604, 123.746 647.924 C 124.431 648.013, 125.752 646.491, 126.681 644.543 C 127.610 642.594, 128.785 641, 129.292 641 C 129.799 641, 129.991 640.419, 129.718 639.708 C 129.446 638.998, 129.847 637.562, 130.611 636.517 C 132.317 634.185, 132.426 630.309, 130.801 629.767 C 129.975 629.492, 130.241 628.456, 131.659 626.434 C 133.926 623.200, 134.973 619.574, 135.398 613.485 C 135.552 611.276, 136.142 608.576, 136.708 607.485 C 138.523 603.984, 140.495 591.929, 139.374 591.181 C 138.813 590.806, 138.069 589.727, 137.721 588.782 C 137.105 587.112, 131.072 583.831, 127.958 583.471 C 127.110 583.373, 125.455 582.779, 124.280 582.150 C 123.106 581.521, 121.502 581.254, 120.717 581.555 C 119.932 581.856, 117.652 581.137, 115.652 579.957 C 113.652 578.777, 110.099 577.636, 107.758 577.421 C 104.817 577.151, 102.836 576.272, 101.355 574.581 C 100.004 573.039, 98.512 572.315, 97.325 572.625 C 96.289 572.896, 94.104 572.569, 92.470 571.898 C 90.837 571.226, 89.176 570.745, 88.780 570.829 C 86.727 571.261, 86.181 567.016, 87.571 561.413 C 88.377 558.161, 89.265 553.976, 89.545 552.114 C 89.824 550.252, 90.443 548.031, 90.920 547.178 C 92.591 544.192, 86.708 536.827, 83.992 538.505 C 83.469 538.828, 82.020 538.544, 80.771 537.874 C 79.522 537.203, 77.375 536.538, 76 536.395 C 69.533 535.724, 66.580 534.930, 64.900 533.409 C 63.828 532.439, 60.976 531.645, 57.982 531.484 C 55.146 531.331, 52.131 530.524, 51.181 529.664 C 50.227 528.801, 47.714 528.131, 45.487 528.146 C 43.294 528.161, 39.838 527.463, 37.806 526.596 C 35.774 525.729, 33.406 525.291, 32.543 525.622 C 31.680 525.953, 30.305 525.668, 29.487 524.989 C 28.669 524.311, 28 524.125, 28 524.578 C 28 525.030, 27.460 524.860, 26.800 524.200 C 25.021 522.421, 22.605 522.736, 19.539 525.148 M 154.357 524.500 C 155.182 525.325, 156.169 526, 156.551 526 C 156.933 526, 156.685 525.325, 156 524.500 C 155.315 523.675, 154.328 523, 153.806 523 C 153.284 523, 153.532 523.675, 154.357 524.500 M 186.153 524.695 C 184.311 525.602, 182.637 526.829, 182.432 527.422 C 182.227 528.015, 181.508 529.850, 180.834 531.500 C 180.160 533.150, 179.553 534.950, 179.483 535.500 C 179.414 536.050, 178.602 538.242, 177.679 540.372 C 176.755 542.502, 176 545.259, 176 546.500 C 176 547.740, 175.360 549.286, 174.578 549.935 C 173.796 550.584, 172.843 553.002, 172.460 555.308 C 172.077 557.613, 171.202 560.625, 170.515 562 C 168.355 566.327, 166.477 577.948, 167.640 579.792 C 168.590 581.297, 173.087 584.470, 175.500 585.337 C 181.010 587.318, 183.888 588.194, 186 588.535 C 187.375 588.757, 189.428 589.088, 190.561 589.270 C 192.772 589.625, 197.077 591.202, 203.500 594.010 C 210.033 596.866, 211.400 597.337, 213.500 597.455 C 214.600 597.517, 216.063 597.917, 216.752 598.344 C 217.576 598.855, 218.336 598.246, 218.977 596.560 C 219.962 593.969, 222.358 593.153, 223.510 595.016 C 224.216 596.159, 226 595.388, 226 593.941 C 226 593.423, 225.100 593, 224 593 C 221.791 593, 221.542 592.255, 223 590 C 223.646 589, 223.974 588.917, 223.985 589.750 C 223.993 590.438, 224.655 591, 225.455 591 C 227.637 591, 228.657 584.228, 226.760 582.332 C 224.748 580.320, 226.665 575.775, 229.192 576.567 C 230.921 577.110, 230.995 576.836, 231.044 569.641 C 231.055 568.068, 230.556 566.169, 229.935 565.421 C 229.070 564.379, 229.319 563.412, 231 561.281 C 232.675 559.158, 233.112 558.949, 232.847 560.396 C 232.656 561.439, 233.082 562.496, 233.794 562.744 C 234.735 563.073, 234.909 562.486, 234.432 560.585 C 234.052 559.071, 234.278 557.370, 234.971 556.535 C 235.628 555.744, 235.879 554.194, 235.529 553.092 C 235.179 551.990, 235.449 549.233, 236.128 546.966 C 236.943 544.246, 237.022 542.614, 236.359 542.171 C 235.806 541.802, 235.060 540.703, 234.701 539.730 C 234.341 538.756, 232.671 537.684, 230.988 537.348 C 229.306 537.011, 227.462 535.864, 226.892 534.798 C 226.129 533.373, 224.984 532.934, 222.568 533.142 C 220.491 533.321, 218.653 532.796, 217.570 531.713 C 216.628 530.771, 214.687 530, 213.257 530 C 211.827 530, 209.822 529.244, 208.802 528.321 C 207.750 527.369, 204.876 526.515, 202.165 526.350 C 199.535 526.189, 195.736 525.370, 193.724 524.529 C 189.362 522.706, 190.227 522.688, 186.153 524.695 M 212 548.107 C 212 548.716, 212.675 548.955, 213.500 548.638 C 214.325 548.322, 215 548.525, 215 549.090 C 215 549.656, 215.457 549.835, 216.016 549.490 C 216.575 549.144, 216.774 548.443, 216.457 547.931 C 215.649 546.622, 212 546.767, 212 548.107 M 224 553 C 224.825 553.533, 225.950 553.969, 226.500 553.969 C 227.050 553.969, 226.825 553.533, 226 553 C 225.175 552.467, 224.050 552.031, 223.500 552.031 C 222.950 552.031, 223.175 552.467, 224 553 M 15.598 553.736 C 14.394 554.939, 15.051 556, 17 556 C 18.100 556, 19 555.598, 19 555.107 C 19 553.983, 16.399 552.934, 15.598 553.736 M 230.584 555.641 C 230.057 557.014, 230.204 557.076, 231.477 556.019 C 233.212 554.579, 233.393 554, 232.107 554 C 231.616 554, 230.931 554.739, 230.584 555.641 M 12 560.941 C 12 561.459, 12.450 562.160, 13 562.500 C 13.550 562.840, 14 562.416, 14 561.559 C 14 560.702, 13.550 560, 13 560 C 12.450 560, 12 560.423, 12 560.941 M 16.211 565.250 C 14.680 567.101, 15.903 572.251, 17.709 571.558 C 18.509 571.251, 19.352 571, 19.582 571 C 19.812 571, 20 570.523, 20 569.941 C 20 569.359, 19.555 569.157, 19.011 569.493 C 18.445 569.843, 18.277 569.442, 18.618 568.552 C 18.946 567.698, 18.730 567, 18.138 567 C 17.547 567, 17.322 566.325, 17.638 565.500 C 18.338 563.676, 17.618 563.549, 16.211 565.250 M 232.500 566 C 232.160 566.550, 232.359 567, 232.941 567 C 233.523 567, 234 566.550, 234 566 C 234 565.450, 233.802 565, 233.559 565 C 233.316 565, 232.840 565.450, 232.500 566 M 222.500 570 C 222.160 570.550, 222.359 571, 222.941 571 C 223.523 571, 224 570.550, 224 570 C 224 569.450, 223.802 569, 223.559 569 C 223.316 569, 222.840 569.450, 222.500 570 M 18.500 575 C 18.160 575.550, 18.809 576, 19.941 576 C 21.073 576, 22 575.550, 22 575 C 22 574.450, 21.352 574, 20.559 574 C 19.766 574, 18.840 574.450, 18.500 575 M 20.543 577.931 C 19.860 579.036, 21.437 580.230, 22.361 579.306 C 23.311 578.355, 23.134 577, 22.059 577 C 21.541 577, 20.859 577.419, 20.543 577.931 M 216.517 582.611 C 215.472 583.375, 215.127 584, 215.750 584 C 216.373 584, 217.174 583.528, 217.530 582.951 C 217.973 582.235, 218.624 582.273, 219.589 583.074 C 220.442 583.782, 221 583.843, 221 583.229 C 221 581.498, 218.509 581.154, 216.517 582.611 M 218.500 586 C 218.840 586.550, 219.316 587, 219.559 587 C 219.802 587, 220 586.550, 220 586 C 220 585.450, 219.523 585, 218.941 585 C 218.359 585, 218.160 585.450, 218.500 586 M 156 595.284 C 154.196 596.189, 152.984 598.203, 151.647 602.519 C 150.627 605.808, 148.903 611.200, 147.815 614.500 C 146.727 617.800, 145.442 622.687, 144.961 625.360 C 144.480 628.033, 143.382 631.295, 142.521 632.608 C 141.661 633.921, 140.869 637.021, 140.761 639.498 C 140.635 642.392, 140.107 644, 139.283 644 C 137.460 644, 137.693 645.409, 139.967 648.139 L 141.933 650.500 141.967 648.250 C 142.006 645.591, 142.590 645.447, 144.715 647.572 C 145.868 648.725, 147.716 649.043, 151.644 648.763 C 154.590 648.554, 157 648.794, 157 649.298 C 157 649.802, 157.661 649.960, 158.468 649.651 C 159.275 649.341, 160.172 649.470, 160.461 649.937 C 160.996 650.802, 156.415 652.470, 154.383 652.150 C 153.769 652.053, 152.702 652.655, 152.011 653.487 C 150.978 654.732, 151.042 655, 152.378 655 C 153.270 655, 154 655.675, 154 656.500 C 154 657.433, 154.944 658, 156.500 658 C 157.982 658, 159 657.427, 159 656.594 C 159 655.680, 159.700 655.370, 161 655.710 C 162.100 655.998, 163 656.583, 163 657.010 C 163 657.437, 163.609 658.020, 164.353 658.305 C 165.471 658.734, 165.458 658.107, 164.280 654.686 C 163.310 651.872, 163.197 650.434, 163.927 650.191 C 164.517 649.994, 165.036 648.858, 165.079 647.667 C 165.122 646.475, 165.385 646.063, 165.662 646.750 C 166.214 648.117, 169 648.491, 169 647.198 C 169 646.757, 170.663 646.349, 172.695 646.292 C 175.035 646.225, 176.889 645.511, 177.751 644.343 C 178.499 643.330, 179.822 642.646, 180.691 642.825 C 181.775 643.048, 182.082 642.655, 181.667 641.575 C 180.996 639.826, 182.510 639.398, 183.530 641.049 C 183.978 641.774, 184.586 641.759, 185.500 641 C 186.394 640.258, 187.028 640.236, 187.457 640.931 C 188.453 642.541, 195 638.382, 195 636.139 C 195 635.587, 195.900 634.849, 197 634.500 C 198.100 634.151, 199 633.434, 199 632.908 C 199 632.381, 200.125 631.523, 201.500 631 C 202.875 630.477, 204 629.588, 204 629.025 C 204 628.461, 204.675 628, 205.500 628 C 206.325 628, 207 627.506, 207 626.901 C 207 624.739, 210.218 619.070, 211.325 619.283 C 211.945 619.402, 212.619 618.397, 212.822 617.048 C 213.160 614.810, 213.037 614.723, 211.423 616.048 C 209.818 617.365, 209.704 617.303, 210.196 615.392 C 210.836 612.905, 209.441 610, 207.605 610 C 206.893 610, 205.527 609.135, 204.569 608.077 C 203.273 606.644, 201.986 606.290, 199.527 606.689 C 197.023 607.096, 195.715 606.715, 194.113 605.113 C 192.951 603.951, 190.902 603, 189.559 603 C 188.216 603, 186.871 602.601, 186.570 602.113 C 186.269 601.626, 184.330 600.918, 182.261 600.540 C 180.192 600.162, 176.972 598.963, 175.105 597.875 C 173.239 596.787, 171.076 596.141, 170.300 596.439 C 169.523 596.736, 167.283 596.310, 165.322 595.490 C 161.002 593.685, 159.263 593.647, 156 595.284 M 29.079 600.583 C 29.127 601.748, 29.364 601.985, 29.683 601.188 C 29.972 600.466, 29.936 599.603, 29.604 599.271 C 29.272 598.939, 29.036 599.529, 29.079 600.583 M 33.583 600.643 C 33.237 601.547, 33.189 602.522, 33.476 602.810 C 33.764 603.098, 34 602.808, 34 602.167 C 34 601.525, 34.702 601, 35.559 601 C 36.416 601, 36.840 600.550, 36.500 600 C 35.577 598.507, 34.295 598.790, 33.583 600.643 M 24 606 C 24 606.550, 24.450 607, 25 607 C 25.550 607, 26 606.550, 26 606 C 26 605.450, 25.550 605, 25 605 C 24.450 605, 24 605.450, 24 606 M 29.500 607 C 29.160 607.550, 29.359 608, 29.941 608 C 30.523 608, 31 607.550, 31 607 C 31 606.450, 30.802 606, 30.559 606 C 30.316 606, 29.840 606.450, 29.500 607 M 37 610 C 37 610.550, 37.450 611, 38 611 C 38.550 611, 39 610.550, 39 610 C 39 609.450, 38.550 609, 38 609 C 37.450 609, 37 609.450, 37 610 M 42.597 612.844 C 42.251 613.404, 42.455 614.163, 43.050 614.531 C 44.588 615.481, 45.580 614.180, 44.296 612.896 C 43.578 612.178, 43.019 612.161, 42.597 612.844 M 126.682 612.652 C 125.606 613.728, 125.880 614.740, 127.406 615.326 C 128.179 615.622, 129.642 614.891, 130.656 613.700 C 132.413 611.637, 132.413 611.602, 130.674 612.953 C 129.284 614.032, 128.670 614.084, 128.105 613.171 C 127.697 612.510, 127.057 612.277, 126.682 612.652 M 23 615 C 23 615.550, 23.450 616, 24 616 C 24.550 616, 25 615.550, 25 615 C 25 614.450, 24.550 614, 24 614 C 23.450 614, 23 614.450, 23 615 M 166.079 615.219 C 166.024 616.411, 165.464 616.749, 164.250 616.321 C 162.821 615.819, 162.730 615.953, 163.750 617.053 C 165.256 618.676, 167.537 616.958, 166.691 614.837 C 166.326 613.921, 166.133 614.040, 166.079 615.219 M 42.115 616.908 C 41.010 617.608, 41.165 618.018, 42.886 618.939 C 45.415 620.292, 47.150 619.555, 46.349 617.468 C 45.715 615.814, 44.166 615.609, 42.115 616.908 M 169.564 619.293 C 169.940 620.279, 170.499 620.834, 170.807 620.526 C 171.115 620.219, 170.808 619.412, 170.124 618.733 C 169.136 617.753, 169.022 617.868, 169.564 619.293 M 185.638 620.500 C 185.955 621.325, 186.391 622, 186.607 622 C 186.823 622, 187 621.325, 187 620.500 C 187 619.675, 186.564 619, 186.031 619 C 185.499 619, 185.322 619.675, 185.638 620.500 M 58.245 625.250 C 58.734 626.736, 63 627.567, 63 626.177 C 63 625.207, 60.691 624, 58.835 624 C 58.284 624, 58.019 624.563, 58.245 625.250 M 46.500 628 C 46.840 628.550, 47.316 629, 47.559 629 C 47.802 629, 48 628.550, 48 628 C 48 627.450, 47.523 627, 46.941 627 C 46.359 627, 46.160 627.450, 46.500 628 M 185.638 628.500 C 185.955 629.325, 186.602 630, 187.076 630 C 187.549 630, 187.678 629.325, 187.362 628.500 C 187.045 627.675, 186.398 627, 185.924 627 C 185.451 627, 185.322 627.675, 185.638 628.500 M 60.921 629.750 C 60.878 630.712, 60.624 630.963, 60.356 630.306 C 60.089 629.650, 59.145 629.391, 58.259 629.731 C 56.862 630.267, 56.904 630.451, 58.573 631.105 C 61.826 632.379, 63 632.086, 63 630 C 63 627.545, 61.031 627.309, 60.921 629.750 M 67.607 632.582 C 66.712 634.915, 66.778 635, 69.500 635 C 72.230 635, 72.664 634.064, 70.800 632.200 C 69.187 630.587, 68.333 630.689, 67.607 632.582 M 51.500 634 C 51.840 634.550, 52.316 635, 52.559 635 C 52.802 635, 53 634.550, 53 634 C 53 633.450, 52.523 633, 51.941 633 C 51.359 633, 51.160 633.450, 51.500 634 M 62 634 C 60.787 634.784, 60.931 634.972, 62.750 634.985 C 63.987 634.993, 65 634.550, 65 634 C 65 632.747, 63.939 632.747, 62 634 M 54.597 634.844 C 54.251 635.404, 54.455 636.163, 55.050 636.531 C 56.588 637.481, 57.580 636.180, 56.296 634.896 C 55.578 634.178, 55.019 634.161, 54.597 634.844 M 138.667 635.667 C 138.300 636.033, 138 636.798, 138 637.367 C 138 637.993, 138.466 637.934, 139.183 637.217 C 139.834 636.566, 140.134 635.801, 139.850 635.517 C 139.566 635.232, 139.033 635.300, 138.667 635.667 M 57.345 638.543 C 57.019 639.392, 57.034 640.367, 57.376 640.710 C 57.719 641.053, 58 640.808, 58 640.167 C 58 639.525, 58.675 639, 59.500 639 C 60.325 639, 61 638.550, 61 638 C 61 636.400, 57.996 636.847, 57.345 638.543 M 71.232 640 C 72.714 642.373, 74.476 642.684, 73.607 640.418 C 73.273 639.548, 73 638.648, 73 638.418 C 73 638.188, 72.321 638, 71.492 638 C 70.233 638, 70.190 638.332, 71.232 640 M 68 642.559 C 68 643.416, 68.457 643.835, 69.016 643.490 C 69.575 643.144, 69.774 642.443, 69.457 641.931 C 68.600 640.544, 68 640.802, 68 642.559 M 82.750 643.080 C 80.645 644.306, 80.395 646.446, 82.449 645.658 C 83.418 645.286, 83.714 645.582, 83.342 646.551 C 82.664 648.319, 84.598 648.504, 85.417 646.750 C 85.883 645.750, 86.117 645.750, 86.583 646.750 C 86.904 647.438, 87.804 648, 88.583 648 C 89.362 648, 90 648.730, 90 649.622 C 90 650.951, 90.271 651.020, 91.500 650 C 92.325 649.315, 92.948 647.573, 92.884 646.128 C 92.809 644.434, 92.606 644.122, 92.311 645.250 C 91.701 647.581, 91.152 647.463, 88.821 644.500 C 86.691 641.792, 85.457 641.504, 82.750 643.080 M 98 643.925 C 98 644.277, 99.201 644.663, 100.669 644.785 C 104.221 645.079, 104.932 645.944, 102.206 646.656 C 100.993 646.974, 100 647.631, 100 648.117 C 100 649.696, 103.031 649.049, 105.230 647 C 107.051 645.304, 107.121 645, 105.689 645 C 104.760 645, 103.999 644.663, 103.998 644.250 C 103.996 643.837, 102.646 643.452, 100.998 643.394 C 99.349 643.335, 98 643.574, 98 643.925 M 57.459 645.067 C 57.096 645.653, 56.977 646.310, 57.194 646.527 C 57.880 647.214, 62 645.805, 62 644.883 C 62 643.632, 58.252 643.783, 57.459 645.067 M 111.235 645.790 C 109.990 645.984, 109.229 646.561, 109.544 647.071 C 109.860 647.582, 109.641 648, 109.059 648 C 108.477 648, 108 648.675, 108 649.500 C 108 651.233, 109.573 651.500, 110.542 649.932 C 110.905 649.344, 111.865 649.118, 112.675 649.429 C 113.953 649.919, 117 647.988, 117 646.688 C 117 645.935, 113.651 645.413, 111.235 645.790 M 132.667 645.667 C 131.516 646.817, 131.938 648, 133.500 648 C 134.325 648, 135 647.325, 135 646.500 C 135 644.938, 133.817 644.516, 132.667 645.667 M 144 650.031 C 144 650.662, 143.027 651.967, 141.838 652.930 C 140.465 654.042, 140.070 654.925, 140.758 655.350 C 141.353 655.718, 142.673 654.959, 143.692 653.664 C 145.106 651.867, 145.921 651.547, 147.136 652.314 C 148.024 652.874, 149.562 652.965, 150.614 652.519 C 152.232 651.833, 152.062 651.620, 149.413 651.019 C 147.715 650.634, 145.802 649.996, 145.163 649.601 C 144.523 649.205, 144 649.399, 144 650.031 M 169.500 652 C 169.840 652.550, 170.316 653, 170.559 653 C 170.802 653, 171 652.550, 171 652 C 171 651.450, 170.523 651, 169.941 651 C 169.359 651, 169.160 651.450, 169.500 652 M 174.667 651.667 C 173.644 652.689, 173.875 655, 175 655 C 175.550 655, 176 654.298, 176 653.441 C 176 652.584, 176.450 652.160, 177 652.500 C 177.550 652.840, 178 652.641, 178 652.059 C 178 650.888, 175.715 650.619, 174.667 651.667 M 83 655 C 83 655.550, 83.450 656, 84 656 C 84.550 656, 85 655.550, 85 655 C 85 654.450, 84.550 654, 84 654 C 83.450 654, 83 654.450, 83 655 M 86 655 C 86 655.550, 87.237 655.968, 88.750 655.930 C 91.187 655.867, 91.272 655.762, 89.500 655 C 86.769 653.826, 86 653.826, 86 655 M 108.500 656 C 108.840 656.550, 109.316 657, 109.559 657 C 109.802 657, 110 656.550, 110 656 C 110 655.450, 109.523 655, 108.941 655 C 108.359 655, 108.160 655.450, 108.500 656 M 115.583 656.866 C 115.152 657.563, 115.070 658.403, 115.400 658.733 C 116.295 659.628, 117.271 658.312, 116.787 656.862 C 116.449 655.846, 116.213 655.846, 115.583 656.866 M 100 658.059 C 100 658.641, 100.450 658.840, 101 658.500 C 101.550 658.160, 102 657.684, 102 657.441 C 102 657.198, 101.550 657, 101 657 C 100.450 657, 100 657.477, 100 658.059 M 130 657.542 C 130 657.840, 130.900 659.050, 132 660.230 C 134.225 662.619, 134.688 661.490, 132.608 658.750 C 131.318 657.051, 130 656.440, 130 657.542 M 160.670 658.766 C 160.984 660.012, 161.637 661.276, 162.121 661.575 C 163.489 662.420, 163.156 660.591, 161.550 658.441 C 160.151 656.568, 160.120 656.580, 160.670 658.766 M 113 661 C 113 661.550, 113.477 662, 114.059 662 C 114.641 662, 114.840 661.550, 114.500 661 C 114.160 660.450, 113.684 660, 113.441 660 C 113.198 660, 113 660.450, 113 661 M 91.510 662.016 C 91.856 662.575, 92.557 662.774, 93.069 662.457 C 94.456 661.600, 94.198 661, 92.441 661 C 91.584 661, 91.165 661.457, 91.510 662.016 M 155.229 662.188 C 155.847 664.042, 158 664.349, 158 662.583 C 158 661.712, 157.287 661, 156.417 661 C 155.546 661, 155.011 661.534, 155.229 662.188 M 151 663.559 C 151 664.416, 151.457 664.835, 152.016 664.490 C 152.575 664.144, 152.774 663.443, 152.457 662.931 C 151.600 661.544, 151 661.802, 151 663.559 M 105 669 C 105 669.550, 105.450 670, 106 670 C 106.550 670, 107 669.550, 107 669 C 107 668.450, 106.550 668, 106 668 C 105.450 668, 105 668.450, 105 669" stroke="none" fill="#F3EDE2" fill-rule="evenodd"/>
</svg>