<svg xmlns="http://www.w3.org/2000/svg" width="969" height="378" viewBox="0 0 969 378" version="1.1">
	<path d="M 0 189.001 L 0 378.002 484.750 377.751 L 969.500 377.500 969.753 188.750 L 970.005 0 485.003 0 L 0 0 0 189.001 M 0.490 189.500 C 0.490 293.450, 0.607 335.827, 0.750 283.671 C 0.893 231.514, 0.893 146.464, 0.750 94.671 C 0.607 42.877, 0.490 85.550, 0.490 189.500 M 123.738 25.977 C 121.120 26.317, 118.345 27.248, 117.573 28.047 C 115.544 30.147, 106.766 52.927, 106.622 56.467 C 106.488 59.766, 106.559 59.802, 121.500 63.903 C 125.350 64.960, 131.272 66.599, 134.660 67.544 C 142.253 69.662, 145.746 68.985, 146.571 65.235 C 146.901 63.731, 147.762 60.925, 148.485 59 C 149.702 55.755, 150.114 55.495, 154.149 55.436 C 156.542 55.401, 160.075 56.012, 162 56.793 C 163.925 57.575, 166.400 58.293, 167.500 58.390 C 168.600 58.487, 171.458 59.144, 173.851 59.849 C 176.244 60.554, 178.421 60.912, 178.689 60.644 C 179.661 59.673, 172.741 46.745, 171.007 46.292 C 169.818 45.981, 169.401 45.184, 169.742 43.879 C 170.394 41.384, 163.625 34.775, 157.720 32.139 C 143.798 25.927, 135.599 24.440, 123.738 25.977 M 104.121 31.627 C 101.163 32.932, 98.289 34, 97.733 34 C 96.497 34, 83.166 44.130, 80.082 47.413 C 77.661 49.990, 78.172 50.801, 82.735 51.628 C 84.222 51.898, 85.902 52.464, 86.469 52.887 C 88.660 54.520, 97.134 57.162, 98.500 56.638 C 100.184 55.992, 103.240 49.198, 102.434 47.894 C 102.131 47.402, 102.306 47, 102.824 47 C 103.647 47, 106.670 41.507, 110.622 32.826 C 112.343 29.047, 110.667 28.738, 104.121 31.627 M 166.500 42 C 166.840 42.550, 167.316 43, 167.559 43 C 167.802 43, 168 42.550, 168 42 C 168 41.450, 167.523 41, 166.941 41 C 166.359 41, 166.160 41.450, 166.500 42 M 68.106 59.392 C 64.849 62.710, 63.955 64.282, 64.445 65.826 C 64.801 66.949, 65.860 67.826, 66.797 67.774 C 68.975 67.653, 81 73.067, 81 74.169 C 81 75.472, 78.766 75.165, 71.880 72.916 C 60.780 69.290, 60.678 69.302, 56.747 74.708 C 53.555 79.099, 49 88.124, 49 90.060 C 49 91.209, 52.679 92.223, 57.956 92.528 C 60.455 92.672, 63.625 93.232, 65 93.772 C 68.553 95.167, 81.264 96.216, 82.726 95.235 C 83.400 94.782, 84.828 91.668, 85.900 88.315 C 86.971 84.961, 88.294 81.381, 88.840 80.359 C 89.385 79.336, 90.566 76.700, 91.464 74.500 C 92.362 72.300, 93.525 69.719, 94.048 68.764 C 96.091 65.036, 95.171 62.460, 91.164 60.692 C 89.054 59.762, 86.669 59, 85.864 59 C 85.059 59, 83.972 58.611, 83.450 58.136 C 82.701 57.455, 74.337 55, 72.765 55 C 72.573 55, 70.477 56.976, 68.106 59.392 M 154.279 61.250 C 153.747 61.938, 153.355 64.062, 153.406 65.972 C 153.496 69.287, 153.725 69.499, 158.500 70.665 C 161.250 71.337, 165.525 72.400, 168 73.027 C 170.475 73.654, 173.177 74.307, 174.004 74.479 C 174.831 74.650, 177.464 75.317, 179.855 75.961 C 182.246 76.605, 184.469 76.864, 184.797 76.537 C 186.163 75.170, 185.693 72.906, 183.836 71.912 C 182.685 71.296, 182.080 70.233, 182.403 69.393 C 182.932 68.013, 182.180 67.533, 175.500 64.989 C 171.596 63.503, 158.204 60.115, 155.872 60.024 C 155.527 60.011, 154.810 60.563, 154.279 61.250 M 102.144 67.327 C 99.049 71.056, 91.019 94.282, 92.135 96.277 C 92.912 97.664, 100.198 99.715, 102.355 99.153 C 102.826 99.030, 103.777 99.400, 104.470 99.975 C 105.162 100.550, 109.053 101.194, 113.115 101.406 C 117.177 101.618, 121.175 102.045, 122 102.354 C 125.786 103.771, 135.686 105.883, 137.362 105.630 C 139.899 105.248, 140.610 103.656, 141.885 95.500 C 142.487 91.650, 143.224 87.375, 143.523 86 C 145.294 77.851, 143.394 74.749, 135.849 73.474 C 133.569 73.089, 130.195 72.144, 128.352 71.374 C 126.508 70.603, 125 70.193, 125 70.462 C 125 70.731, 123.763 70.464, 122.250 69.868 C 119.093 68.626, 107.296 66, 104.873 66 C 103.977 66, 102.749 66.597, 102.144 67.327 M 152.607 75.298 C 151.210 76.319, 150.392 79.859, 148.872 91.465 C 147.801 99.638, 147.307 106.707, 147.775 107.175 C 148.569 107.969, 157.278 110.176, 166.500 111.920 C 168.700 112.336, 172.625 113.414, 175.223 114.317 C 177.821 115.219, 180.588 115.712, 181.372 115.411 C 182.156 115.110, 183.095 115.344, 183.458 115.932 C 183.821 116.519, 185.243 117, 186.618 117 C 188.030 117, 188.849 116.565, 188.500 116 C 188.160 115.450, 188.367 115, 188.961 115 C 189.620 115, 189.799 113.932, 189.421 112.250 C 189.081 110.737, 188.836 108.713, 188.878 107.750 C 188.919 106.787, 188.974 105.438, 189 104.750 C 189.027 104.063, 188.850 101.816, 188.608 99.757 C 188.365 97.699, 188.506 95.805, 188.921 95.549 C 189.335 95.293, 189.175 92.322, 188.564 88.947 C 187.159 81.178, 187.270 81.233, 162 75.918 C 159.525 75.397, 156.801 74.751, 155.948 74.481 C 155.094 74.211, 153.590 74.579, 152.607 75.298 M 816.688 97.645 C 815.373 98.960, 815.877 274.477, 817.200 275.800 C 818.046 276.646, 823.800 277, 836.700 277 L 855 277 855 236.559 C 855 210.677, 855.360 195.896, 856 195.500 C 856.550 195.160, 857 193.628, 857 192.095 C 857 188.767, 859.234 184.003, 861.945 181.550 C 865.114 178.682, 873.110 175, 876.169 175 C 877.726 175, 879 174.550, 879 174 C 879 173.450, 880.098 173, 881.441 173 C 882.784 173, 884.160 173.450, 884.500 174 C 884.840 174.550, 886.666 175, 888.559 175 C 890.452 175, 892 175.344, 892 175.764 C 892 176.184, 893.801 177.308, 896.002 178.262 C 898.986 179.555, 900.445 181.014, 901.738 183.998 C 902.692 186.199, 903.816 188, 904.236 188 C 904.656 188, 905 189.998, 905 192.441 C 905 194.884, 905.450 197.160, 906 197.500 C 906.639 197.895, 907 212.344, 907 237.559 L 907 277 925.500 277 L 944 277 944 227 C 944 194.333, 943.653 177, 943 177 C 942.450 177, 942 175.737, 942 174.193 C 942 164.081, 924.148 144, 915.158 144 C 914.036 144, 912.840 143.550, 912.500 143 C 912.160 142.450, 910.334 142, 908.441 142 C 906.548 142, 905 141.550, 905 141 C 905 140.400, 901.020 140, 895.059 140 C 889.510 140, 884.845 140.442, 884.500 141 C 884.160 141.550, 882.630 142, 881.101 142 C 876.693 142, 866.948 147.458, 861.538 152.956 C 858.808 155.730, 856.227 158, 855.802 158 C 855.377 158, 854.910 144.387, 854.765 127.750 L 854.500 97.500 835.938 97.229 C 825.729 97.079, 817.066 97.267, 816.688 97.645 M 49.111 100.173 C 46.704 106.292, 43.527 145.995, 45.315 147.632 C 45.417 147.726, 47.300 147.959, 49.500 148.151 L 53.500 148.500 54.500 137.325 C 55.511 126.022, 56.443 122.812, 57.460 127.132 C 57.766 128.434, 59.048 133.988, 60.309 139.474 L 62.601 149.449 66.382 150.343 C 68.520 150.849, 70.520 150.860, 70.985 150.369 C 72.474 148.796, 77.772 104.050, 76.579 103.121 C 75.593 102.353, 69.011 100.752, 68.992 101.275 C 68.899 103.781, 65.983 123.350, 65.653 123.681 C 65.398 123.935, 63.910 118.710, 62.345 112.069 C 60.440 103.985, 59.004 99.854, 58 99.571 C 51.493 97.741, 50.030 97.840, 49.111 100.173 M 83.834 107.439 C 81.748 109.525, 81.129 111.800, 79.549 123.189 C 75.647 151.316, 75.572 151.043, 87.796 153.062 C 94.356 154.145, 98.150 153.077, 99.785 149.684 C 100.982 147.202, 105.012 120.268, 104.978 114.979 C 104.945 109.791, 102.179 106.873, 96.392 105.923 C 88.400 104.610, 86.424 104.849, 83.834 107.439 M 723.667 108.667 C 723.300 109.033, 723 117.133, 723 126.667 L 723 144 712.122 144 C 704.066 144, 700.946 144.360, 700.093 145.387 C 699.315 146.325, 699.033 151.268, 699.221 160.637 L 699.500 174.500 711.250 174.782 L 723 175.063 723 208.973 C 723 230.500, 723.365 243.108, 724 243.500 C 724.550 243.840, 725 245.580, 725 247.366 C 725 251.722, 730.977 263.368, 735.692 268.199 C 739.754 272.360, 744.179 275, 747.095 275 C 748.078 275, 749.160 275.450, 749.500 276 C 749.840 276.550, 751.415 277, 753 277 C 754.585 277, 756.160 277.450, 756.500 278 C 756.858 278.580, 762.324 279, 769.500 279 C 776.676 279, 782.142 278.580, 782.500 278 C 782.840 277.450, 785.116 277, 787.559 277 C 790.002 277, 792 276.602, 792 276.117 C 792 275.631, 792.900 274.998, 794 274.710 C 795.889 274.216, 796 273.346, 796 259.094 L 796 244 793.059 244 C 791.441 244, 789.840 244.450, 789.500 245 C 789.160 245.550, 784.930 246, 780.100 246 L 771.318 246 766.644 241.585 L 761.971 237.171 762.235 206.335 L 762.500 175.500 779 175 L 795.500 174.500 795.776 159.274 L 796.052 144.049 779.276 143.774 L 762.500 143.500 762.227 125.750 L 761.954 108 743.144 108 C 732.798 108, 724.033 108.300, 723.667 108.667 M 110.692 111.144 C 110.374 112.440, 109.153 120.250, 107.979 128.500 C 106.804 136.750, 105.482 145.975, 105.039 149 C 104.064 155.667, 104.229 156, 108.492 156 C 112.111 156, 112.334 155.663, 113.447 148.500 C 114.818 139.676, 115.112 138.848, 116.474 139.978 C 117.221 140.599, 118.063 144.599, 118.468 149.452 L 119.167 157.852 123.151 158.526 C 125.342 158.896, 127.379 158.954, 127.679 158.655 C 127.978 158.356, 127.674 154.251, 127.005 149.533 L 125.787 140.955 128.268 139.004 C 130.267 137.432, 130.968 135.580, 131.875 129.485 C 134.011 115.119, 132.831 112.190, 124.412 110.973 C 121.711 110.583, 117.648 109.932, 115.385 109.526 C 111.609 108.848, 111.223 108.982, 110.692 111.144 M 89.557 115.250 C 88.950 117.248, 85.640 141.840, 85.822 143 C 85.947 143.791, 91.991 144.824, 92.419 144.127 C 92.631 143.782, 93.113 141.069, 93.489 138.098 C 93.865 135.127, 94.357 131.752, 94.581 130.598 C 96.072 122.925, 96.217 115.751, 94.898 114.916 C 92.862 113.626, 89.996 113.806, 89.557 115.250 M 136.986 116.119 C 136.979 117.429, 136.713 119.466, 136.397 120.647 C 135.898 122.507, 136.342 122.882, 139.722 123.453 L 143.624 124.112 141.303 138.306 C 137.214 163.317, 137.193 160.626, 141.485 161.431 C 143.530 161.815, 145.397 161.937, 145.632 161.701 C 146.141 161.193, 149.830 139.639, 150.631 132.500 C 151.351 126.078, 151.407 126.011, 155.773 126.276 C 159.319 126.491, 159.484 126.355, 160.080 122.705 C 160.827 118.134, 160.163 117.655, 151 116.150 C 147.425 115.563, 142.813 114.780, 140.750 114.411 C 137.281 113.789, 136.999 113.917, 136.986 116.119 M 117.267 124.390 C 116.789 127.751, 116.420 130.548, 116.448 130.606 C 116.477 130.665, 117.949 130.988, 119.720 131.325 L 122.939 131.938 123.701 126.719 C 124.768 119.415, 124.840 119.652, 121.319 118.931 L 118.137 118.281 117.267 124.390 M 163.549 122.151 C 160.820 137.937, 157.680 157.244, 157.292 160.623 C 156.830 164.650, 156.897 164.758, 160.159 165.254 C 164.466 165.909, 164.804 165.655, 165.531 161.215 C 165.866 159.172, 166.580 155.186, 167.118 152.358 L 168.097 147.217 171.548 148.276 C 175.479 149.483, 175.546 149.805, 173.500 157.661 C 171.250 166.301, 171.453 167.693, 175.044 168.220 C 176.718 168.465, 178.349 168.245, 178.667 167.730 C 179.794 165.906, 183.815 150.149, 183.288 149.621 C 182.994 149.327, 183.096 148.279, 183.515 147.293 C 183.935 146.307, 184.384 144.825, 184.513 144 C 186.673 130.246, 187.283 124.950, 186.768 124.435 C 186.425 124.091, 184.672 123.741, 182.873 123.655 L 179.602 123.500 178.164 131.698 L 176.726 139.895 173.613 139.304 C 171.901 138.979, 170.337 138.577, 170.139 138.412 C 169.940 138.246, 170.328 134.236, 171 129.500 C 171.672 124.764, 172.060 120.729, 171.861 120.534 C 171.663 120.338, 169.841 119.869, 167.814 119.490 C 164.235 118.821, 164.111 118.898, 163.549 122.151 M 356.500 141 C 356.160 141.550, 354.334 142, 352.441 142 C 350.548 142, 349 142.450, 349 143 C 349 143.550, 348.525 144, 347.945 144 C 345.698 144, 338.383 147.953, 336.076 150.414 C 334.742 151.836, 333.162 153, 332.563 153 C 331.964 153, 331.030 153.983, 330.487 155.185 C 328.327 159.967, 327 158.406, 327 151.083 L 327 144 307.500 144 L 288 144 288 210.500 L 288 277 306.300 277 C 319.200 277, 324.954 276.646, 325.800 275.800 C 326.694 274.906, 327 264.244, 327 233.999 C 327 194.297, 327.442 188.037, 330.250 188.008 C 330.663 188.004, 331 187.379, 331 186.621 C 331 184.736, 338.638 177, 340.499 177 C 341.325 177, 342 176.550, 342 176 C 342 175.394, 346.333 175, 353 175 C 359.667 175, 364 175.394, 364 176 C 364 176.550, 364.695 177, 365.545 177 C 367.691 177, 371.254 180.779, 374.370 186.360 L 377 191.071 377 232.607 C 377 267.271, 377.236 274.379, 378.429 275.571 C 380.148 277.291, 405 277.692, 405 276 C 405 275.450, 407.475 275, 410.500 275 L 416 275 416 228.059 C 416 197.844, 415.644 180.898, 415 180.500 C 414.450 180.160, 414 178.135, 414 176 C 414 173.865, 413.550 171.840, 413 171.500 C 412.450 171.160, 411.967 169.896, 411.927 168.691 C 411.887 167.486, 410.992 165.150, 409.938 163.500 C 408.884 161.850, 407.728 159.825, 407.369 159 C 406.367 156.698, 398.729 149, 397.447 149 C 396.822 149, 395.489 148.093, 394.486 146.985 C 393.483 145.877, 390.929 144.692, 388.809 144.353 C 386.690 144.015, 384.714 143.346, 384.419 142.869 C 384.124 142.391, 382.585 142, 381 142 C 379.415 142, 377.840 141.550, 377.500 141 C 377.155 140.442, 372.509 140, 367 140 C 361.491 140, 356.845 140.442, 356.500 141 M 493.500 141 C 493.160 141.550, 491.135 142, 489 142 C 486.865 142, 484.840 142.450, 484.500 143 C 484.160 143.550, 482.941 144, 481.791 144 C 479.522 144, 468.710 148.931, 468.167 150.213 C 467.983 150.646, 467.070 151, 466.137 151 C 465.205 151, 463.793 151.900, 463 153 C 462.207 154.100, 461.081 155, 460.498 155 C 459.915 155, 456.821 157.644, 453.623 160.876 C 448.317 166.238, 446.400 168.747, 444.359 173 C 443.963 173.825, 442.820 175.228, 441.819 176.117 C 440.819 177.007, 440 178.456, 440 179.337 C 440 180.218, 439.068 182.599, 437.929 184.627 C 436.673 186.863, 435.630 191.021, 435.281 195.190 C 434.964 198.971, 434.321 202.302, 433.852 202.591 C 432.740 203.279, 432.741 217.722, 433.854 218.410 C 434.323 218.700, 435.017 222.649, 435.395 227.185 C 435.773 231.722, 436.423 235.673, 436.839 235.967 C 437.254 236.260, 438.809 239.016, 440.293 242.091 C 441.777 245.167, 443.894 248.499, 444.996 249.496 C 446.098 250.494, 447 251.816, 447 252.434 C 447 253.860, 459.190 266, 460.622 266 C 461.209 266, 462.404 266.789, 463.277 267.753 C 464.150 268.718, 467.144 270.392, 469.932 271.474 C 472.719 272.555, 475 273.791, 475 274.220 C 475 274.649, 476.098 275, 477.441 275 C 478.784 275, 480.160 275.450, 480.500 276 C 480.840 276.550, 482.190 277, 483.500 277 C 484.810 277, 486.160 277.450, 486.500 278 C 486.840 278.550, 489.765 279, 493 279 C 496.235 279, 499.160 279.450, 499.500 280 C 499.840 280.550, 502.791 281, 506.059 281 C 509.353 281, 512 280.554, 512 280 C 512 279.437, 514.814 279, 518.441 279 C 521.984 279, 525.160 278.550, 525.500 278 C 525.840 277.450, 527.203 277, 528.529 277 C 529.854 277, 532.542 276.100, 534.500 275 C 536.458 273.900, 538.835 272.967, 539.780 272.927 C 540.726 272.887, 542.850 271.992, 544.500 270.938 C 546.150 269.884, 548.175 268.707, 549 268.322 C 549.825 267.938, 551.693 266.358, 553.151 264.811 C 554.609 263.265, 556.209 262, 556.705 262 C 557.807 262, 564 255.721, 564 254.604 C 564 254.163, 565.257 252.609, 566.793 251.151 C 568.329 249.693, 570.376 246.700, 571.342 244.500 C 572.307 242.300, 573.525 239.719, 574.048 238.764 C 574.572 237.809, 575 236.148, 575 235.073 C 575 233.998, 575.450 232.840, 576 232.500 C 576.550 232.160, 577 230.334, 577 228.441 C 577 226.548, 577.450 225, 578 225 C 578.621 225, 579 219.520, 579 210.559 C 579 202.010, 578.592 195.866, 578 195.500 C 577.450 195.160, 577 193.334, 577 191.441 C 577 189.548, 576.550 188, 576 188 C 575.450 188, 575 187.094, 575 185.986 C 575 184.879, 574.566 183.191, 574.035 182.236 C 573.504 181.281, 572.193 178.475, 571.121 176 C 570.049 173.525, 568.008 170.409, 566.586 169.076 C 565.164 167.742, 564 166.146, 564 165.529 C 564 164.132, 556.793 157, 555.382 157 C 554.814 157, 553.292 155.875, 552.001 154.501 C 549.062 151.373, 536.564 145.128, 531.645 144.330 C 529.614 144, 527.711 143.341, 527.417 142.865 C 527.123 142.389, 524.884 142, 522.441 142 C 519.998 142, 518 141.550, 518 141 C 518 140.389, 513.353 140, 506.059 140 C 499.177 140, 493.856 140.424, 493.500 141 M 663.570 142.887 C 663.269 143.374, 661.521 144.055, 659.686 144.399 C 657.851 144.743, 655.062 146.369, 653.488 148.012 C 651.914 149.656, 650.113 151, 649.487 151 C 648.100 151, 644 155.229, 644 156.659 C 644 157.226, 643.100 158.505, 642 159.500 C 640.900 160.495, 640 161.915, 640 162.655 C 640 163.395, 639.550 164, 639 164 C 638.400 164, 638 160, 638 154 L 638 144 618.493 144 L 598.986 144 599.243 210.250 L 599.500 276.500 606.340 276.798 C 610.625 276.984, 613.722 276.645, 614.632 275.890 C 615.732 274.977, 616.366 274.966, 617.242 275.842 C 618.823 277.423, 635.212 277.388, 636.800 275.800 C 637.687 274.913, 638 265.533, 638 239.800 C 638 217.267, 638.352 205, 639 205 C 639.550 205, 640 204.094, 640 202.986 C 640 200.014, 641.856 197.165, 647.990 190.723 C 654.461 183.927, 659.573 181, 664.972 181 C 667.122 181, 669.160 180.550, 669.500 180 C 670.340 178.640, 678.329 178.729, 679.713 180.113 C 682.450 182.850, 683 179.642, 683 160.941 L 683 142 673.559 142 C 668.366 142, 663.871 142.399, 663.570 142.887 M 56 156.934 C 56 157.421, 53.971 157.789, 51.492 157.751 C 46.895 157.682, 44.784 158.555, 46.529 159.804 C 47.063 160.187, 47.493 163.200, 47.485 166.500 C 47.477 169.800, 47.839 174.300, 48.290 176.500 C 48.740 178.700, 49.115 181.257, 49.122 182.183 C 49.140 184.648, 51.220 185.974, 55.088 185.987 C 81.756 186.079, 80.119 186.812, 80.979 174.380 C 81.869 161.525, 81.334 159.683, 76.461 158.818 C 74.283 158.432, 69.942 158.089, 66.815 158.058 C 63.688 158.026, 59.976 157.561, 58.565 157.025 C 57.146 156.485, 56 156.445, 56 156.934 M 89.088 160.932 C 87.972 161.633, 87.630 165.558, 87.456 179.659 C 87.206 199.878, 86.495 208.739, 84.395 217.794 C 82.818 224.596, 83.093 226, 86.002 226 C 87.261 226, 90.060 222.816, 94.443 216.397 C 98.049 211.115, 101 206.611, 101 206.387 C 101 206.163, 102.499 203.847, 104.331 201.240 C 118.521 181.049, 125.027 170.659, 124.507 169.021 C 123.903 167.120, 121.189 166.036, 116.973 166.014 C 115.582 166.006, 113.557 165.391, 112.473 164.647 C 111.388 163.903, 109.825 163.233, 109 163.157 C 105.397 162.828, 93.566 160.998, 92.104 160.544 C 91.222 160.270, 89.865 160.445, 89.088 160.932 M 136.315 168.601 C 134.970 169.194, 124.096 183.442, 115.585 195.766 C 108.304 206.307, 108.495 207.042, 119.276 209.971 C 123.799 211.200, 128.175 212.456, 129 212.761 C 133.245 214.332, 143.605 216.719, 144.318 216.290 C 144.768 216.019, 144.893 215.163, 144.595 214.387 C 143.726 212.122, 146.020 208.071, 147.789 208.749 C 148.930 209.187, 149.096 208.972, 148.429 207.920 C 147.935 207.139, 147.524 206.072, 147.515 205.549 C 147.499 204.510, 144.220 202.797, 133.500 198.224 C 129.535 196.533, 126.360 194.536, 126.177 193.619 C 125.563 190.546, 131.830 191.854, 144.445 197.433 C 152.669 201.070, 155.617 200.872, 157.681 196.543 C 158.588 194.641, 159.700 193.315, 160.153 193.595 C 160.606 193.875, 160.751 193.515, 160.475 192.795 C 160.198 192.074, 160.989 191.040, 162.236 190.493 C 163.640 189.877, 164.620 188.455, 164.816 186.750 C 165.040 184.807, 165.700 184, 167.066 184 C 168.333 184, 169 183.310, 169 182 C 169 180.900, 169.633 180, 170.406 180 C 173.400 180, 170.789 176.017, 167.135 175.009 C 148.133 169.767, 138.307 167.724, 136.315 168.601 M 495.500 176 C 495.160 176.550, 493.784 177, 492.441 177 C 491.098 177, 490 177.450, 490 178 C 490 178.550, 489.379 179, 488.621 179 C 486.782 179, 479 186.616, 479 188.416 C 479 189.195, 478.663 189.983, 478.250 190.167 C 477.837 190.350, 476.488 192.455, 475.250 194.845 C 473.289 198.632, 473 200.705, 473 211.011 C 473 217.513, 473.337 222.983, 473.750 223.167 C 474.163 223.350, 475.599 225.750, 476.941 228.500 C 479.569 233.883, 484.676 240, 486.541 240 C 487.173 240, 488.505 240.900, 489.500 242 C 490.495 243.100, 492.339 244, 493.596 244 C 494.853 244, 496.160 244.450, 496.500 245 C 496.845 245.558, 501.491 246, 507 246 C 512.509 246, 517.155 245.558, 517.500 245 C 517.840 244.450, 519.147 244, 520.404 244 C 521.661 244, 523.505 243.100, 524.500 242 C 525.495 240.900, 526.711 240, 527.200 240 C 528.301 240, 532.342 236.029, 533.309 233.997 C 533.701 233.174, 534.884 231.150, 535.938 229.500 C 536.992 227.850, 537.887 225.514, 537.927 224.309 C 537.967 223.104, 538.450 221.840, 539 221.500 C 539.568 221.149, 540 216.156, 540 209.941 C 540 203.314, 539.606 199, 539 199 C 538.450 199, 538 198.169, 538 197.154 C 538 192.315, 527.911 180.711, 521.250 177.889 C 519.462 177.131, 518 176.172, 518 175.756 C 518 174.607, 496.215 174.843, 495.500 176 M 66.500 192.220 C 63.750 192.616, 60.735 192.705, 59.800 192.418 C 58.162 191.916, 52.625 194.180, 51.656 195.748 C 51.397 196.167, 51.745 198.716, 52.429 201.412 C 53.114 204.108, 53.391 207.931, 53.045 209.907 C 52.309 214.115, 52.780 217.254, 54.032 216.480 C 54.516 216.181, 54.623 215.163, 54.269 214.218 C 53.715 212.739, 53.852 212.684, 55.253 213.823 C 56.149 214.551, 56.635 215.788, 56.334 216.573 C 55.965 217.533, 56.481 218, 57.907 218 C 59.073 218, 60.809 218.400, 61.764 218.889 C 72.111 224.188, 75.842 224.335, 77.228 219.500 C 78.649 214.544, 80.433 203.375, 80.302 200.250 C 80.273 199.563, 80.194 197.221, 80.125 195.047 L 80 191.093 75.750 191.297 C 73.412 191.408, 69.250 191.824, 66.500 192.220 M 102.362 216.667 C 97.239 223.350, 93.839 229.138, 94.311 230.369 C 94.784 231.599, 98.553 233.657, 105.500 236.474 C 107.700 237.367, 110.175 238.456, 111 238.896 C 111.825 239.335, 114.862 240.298, 117.750 241.036 C 120.638 241.774, 123 242.743, 123 243.189 C 123 243.635, 123.681 244, 124.514 244 C 125.346 244, 126.809 244.409, 127.764 244.909 C 132.040 247.149, 136.498 248.835, 136.949 248.384 C 137.220 248.113, 136.793 247.490, 135.999 246.999 C 134.755 246.230, 134.766 246.027, 136.077 245.524 C 137.306 245.052, 137.472 243.839, 136.940 239.220 C 136.480 235.233, 136.693 232.682, 137.640 230.800 C 138.388 229.314, 139 227.440, 139 226.635 C 139 225.107, 130.791 220, 128.334 220 C 127.557 220, 125.156 219.100, 123 218 C 120.844 216.900, 118.027 216, 116.740 216 C 115.453 216, 113.973 215.585, 113.450 215.078 C 112.927 214.571, 110.880 213.858, 108.900 213.495 C 105.580 212.885, 105.071 213.132, 102.362 216.667 M 47.530 224.967 C 46.689 225.897, 46 226.980, 46 227.375 C 46 227.769, 43.900 232.409, 41.332 237.687 C 35.932 248.788, 36.013 249.031, 45.822 251.067 C 48.879 251.702, 52.083 252.577, 52.940 253.013 C 53.798 253.449, 56.525 254.351, 59 255.019 C 61.475 255.686, 64.695 256.667, 66.155 257.198 C 72.057 259.345, 73.153 258.329, 76.837 247.288 C 80.539 236.192, 80.475 234.553, 76.278 232.867 C 74.750 232.253, 72.600 231.361, 71.500 230.885 C 70.400 230.409, 66.350 228.873, 62.500 227.472 C 58.650 226.071, 54.825 224.636, 54 224.283 C 51.146 223.062, 49.054 223.283, 47.530 224.967 M 87.303 239.250 C 86.784 239.938, 85.771 242.525, 85.051 245 C 84.330 247.475, 83.149 251.300, 82.425 253.500 C 81.701 255.700, 80.392 260.200, 79.516 263.500 C 78.640 266.800, 77.511 270.400, 77.007 271.500 C 75.246 275.347, 70.996 294.825, 71.584 296.357 C 71.910 297.208, 73.825 298.434, 75.838 299.082 C 77.852 299.730, 79.950 300.571, 80.500 300.950 C 81.050 301.329, 83.525 302.252, 86 303 C 88.475 303.748, 90.981 304.716, 91.568 305.152 C 93.293 306.430, 96.785 303.266, 97.532 299.749 C 97.911 297.962, 99.453 292.900, 100.957 288.500 C 102.461 284.100, 103.538 280.050, 103.351 279.500 C 103.164 278.950, 104.036 277.219, 105.288 275.653 C 107.512 272.873, 107.672 272.836, 112.033 274.060 C 114.490 274.749, 117.175 275.428, 118 275.568 C 118.825 275.709, 123.241 276.763, 127.813 277.912 C 132.386 279.060, 136.496 280, 136.947 280 C 137.913 280, 139.038 274.871, 138.325 273.718 C 138.056 273.281, 137.666 269.735, 137.460 265.837 C 137.072 258.513, 135.348 255.023, 132.095 254.978 C 131.218 254.966, 129.375 254.076, 128 253 C 126.625 251.924, 124.739 251.034, 123.809 251.022 C 122.879 251.010, 121.876 250.608, 121.580 250.129 C 121.284 249.650, 119.746 248.999, 118.162 248.682 C 116.578 248.366, 112.204 246.697, 108.442 244.974 C 93.662 238.204, 89.035 236.951, 87.303 239.250 M 34.926 256.007 C 34.061 256.499, 32.771 258.837, 32.060 261.201 C 31.350 263.565, 30.311 266.749, 29.752 268.276 C 28.288 272.277, 30.800 274.665, 37.330 275.479 C 40.174 275.833, 43.850 276.720, 45.500 277.450 C 48.906 278.956, 54.308 280.668, 58 281.411 C 59.375 281.688, 61.445 282.194, 62.601 282.535 C 65.674 283.443, 67.510 281.022, 68.972 274.133 C 70.491 266.976, 70.022 265.277, 66.293 264.413 C 64.757 264.057, 61.025 262.756, 58 261.523 C 47.017 257.043, 37.220 254.701, 34.926 256.007 M 28.397 281.149 C 27.349 282.823, 27.219 296, 28.250 296 C 28.663 296, 29 296.891, 29 297.980 C 29 299.915, 31.032 306.007, 33.343 311 C 35.585 315.843, 43.961 325.319, 48.206 327.813 C 53.338 330.829, 57.578 334, 56.480 334 C 56.045 334, 56.505 334.900, 57.500 336 C 58.712 337.339, 60.580 338, 63.155 338 C 65.270 338, 67 338.402, 67 338.893 C 67 340.302, 64.350 340.950, 63.218 339.818 C 62.518 339.118, 61.608 339.121, 60.346 339.829 C 58.309 340.973, 59.091 341.519, 64 342.382 C 66.999 342.909, 69.708 343.802, 72.770 345.270 C 74.445 346.074, 75.350 346.050, 76.220 345.180 C 77.953 343.447, 79.460 343.740, 77.981 345.523 C 76.922 346.799, 76.988 346.942, 78.388 346.404 C 79.481 345.985, 79.853 345.111, 79.462 343.882 C 79.065 342.629, 79.351 342, 80.319 342 C 81.960 342, 85.368 335.553, 84.703 333.705 C 84.465 333.042, 84.683 331.699, 85.186 330.720 C 85.690 329.741, 86.258 327.711, 86.448 326.210 C 86.638 324.709, 87.307 321.574, 87.934 319.244 C 89.436 313.665, 88.164 311.390, 82.734 309.942 C 80.405 309.321, 77.719 308.405, 76.764 307.906 C 75.809 307.408, 74.153 307, 73.085 307 C 72.017 307, 70.489 306.346, 69.690 305.548 C 68.892 304.749, 68.018 304.316, 67.748 304.585 C 67.479 304.854, 66.037 304.518, 64.544 303.838 C 62.189 302.765, 61.916 302.198, 62.483 299.551 C 62.843 297.873, 63.355 295.407, 63.621 294.070 C 63.887 292.734, 64.301 291.322, 64.541 290.933 C 65.031 290.142, 62.419 287.725, 60.649 287.333 C 60.017 287.192, 57.925 286.798, 56 286.456 C 54.075 286.114, 52.072 285.422, 51.550 284.917 C 51.027 284.413, 49.367 284, 47.859 284 C 46.351 284, 44.879 283.613, 44.586 283.140 C 44.294 282.666, 42.130 282.009, 39.777 281.679 C 37.425 281.349, 34.092 280.791, 32.371 280.439 C 30.249 280.005, 28.970 280.233, 28.397 281.149 M 110.690 281.453 C 109.790 282.353, 108.572 284.982, 107.985 287.295 C 107.397 289.608, 106.531 292.400, 106.059 293.500 C 102.644 301.467, 101.544 307.377, 103.218 308.766 C 105.110 310.336, 126.039 317.199, 127.374 316.687 C 127.993 316.449, 128.950 316.173, 129.500 316.074 C 131.417 315.728, 133.233 310.986, 132.012 309.514 C 131.158 308.486, 131.274 307.946, 132.493 307.264 C 134.085 306.373, 134.642 303.878, 133.891 301 C 133.676 300.175, 134.063 299.613, 134.750 299.750 C 135.438 299.887, 136.031 299.212, 136.069 298.250 C 136.107 297.287, 136.319 295.150, 136.542 293.500 C 137.135 289.089, 136.393 287.650, 132.762 286.165 C 130.968 285.432, 128.600 284.461, 127.500 284.007 C 123.315 282.279, 121.451 281.634, 120 281.409 C 119.175 281.281, 117.111 280.870, 115.414 280.496 C 113.194 280.006, 111.868 280.275, 110.690 281.453 M 27 302.441 C 27 303.298, 27.450 304, 28 304 C 28.550 304, 29 303.577, 29 303.059 C 29 302.541, 28.550 301.840, 28 301.500 C 27.450 301.160, 27 301.584, 27 302.441 M 28.638 306.500 C 28.955 307.325, 29.391 308, 29.607 308 C 29.823 308, 30 307.325, 30 306.500 C 30 305.675, 29.564 305, 29.031 305 C 28.499 305, 28.322 305.675, 28.638 306.500 M 96.692 316.250 C 95.212 317.345, 93.174 322.934, 91.315 331 C 90.998 332.375, 90.235 334.175, 89.619 335 C 88.068 337.078, 88.167 342.567, 89.750 342.250 C 90.438 342.113, 91 342.360, 91 342.800 C 91 343.240, 90.438 344.231, 89.750 345.002 C 88.696 346.184, 88.760 346.208, 90.162 345.153 C 91.526 344.125, 92.494 344.261, 95.572 345.911 C 99.682 348.113, 101 347.884, 101 344.964 C 101 342.824, 107.825 339, 111.645 339 C 113.886 339, 125 328.901, 125 326.865 C 125 325.360, 119.854 320.972, 118.830 321.605 C 118.325 321.917, 117.370 321.747, 116.706 321.228 C 115.484 320.271, 100.653 315, 99.182 315 C 98.742 315, 97.622 315.563, 96.692 316.250 M 40 327 C 40 327.550, 40.450 328, 41 328 C 41.550 328, 42 327.550, 42 327 C 42 326.450, 41.550 326, 41 326 C 40.450 326, 40 326.450, 40 327 M 48.429 331.838 C 48.429 332.850, 49.093 334.297, 49.905 335.056 C 51.176 336.243, 51.285 336.185, 50.690 334.635 C 50.311 333.646, 50 332.198, 50 331.418 C 50 330.638, 49.646 330, 49.214 330 C 48.782 330, 48.429 330.827, 48.429 331.838 M 53 335.059 C 53 335.641, 53.450 335.840, 54 335.500 C 54.550 335.160, 55 334.684, 55 334.441 C 55 334.198, 54.550 334, 54 334 C 53.450 334, 53 334.477, 53 335.059 M 46.638 336.500 C 46.955 337.325, 47.671 338, 48.229 338 C 48.815 338, 48.718 337.365, 48 336.500 C 47.315 335.675, 46.599 335, 46.409 335 C 46.219 335, 46.322 335.675, 46.638 336.500 M 73.500 342 C 73.160 342.550, 73.584 343, 74.441 343 C 75.298 343, 76 342.550, 76 342 C 76 341.450, 75.577 341, 75.059 341 C 74.541 341, 73.840 341.450, 73.500 342 M 95 343 C 95 343.550, 95.477 344, 96.059 344 C 96.641 344, 96.840 343.550, 96.500 343 C 96.160 342.450, 95.684 342, 95.441 342 C 95.198 342, 95 342.450, 95 343 M 106 345.059 C 106 345.641, 106.450 345.840, 107 345.500 C 107.550 345.160, 108 344.684, 108 344.441 C 108 344.198, 107.550 344, 107 344 C 106.450 344, 106 344.477, 106 345.059" stroke="none" fill="#F3EDE2" fill-rule="evenodd"/>
</svg>