<svg xmlns="http://www.w3.org/2000/svg" width="378" height="123" viewBox="0 0 378 123" version="1.1">
	<path d="M -0 61.503 L -0 123.005 189.250 122.753 L 378.500 122.500 378.758 61.250 L 379.015 0 189.508 0 L 0 0 -0 61.503 M 0.470 62 C 0.470 95.825, 0.596 109.662, 0.749 92.750 C 0.903 75.837, 0.903 48.162, 0.749 31.250 C 0.596 14.337, 0.470 28.175, 0.470 62 M 297.240 60.250 L 297.500 108.500 307.683 108.784 L 317.866 109.068 318.183 85.737 C 318.458 65.497, 318.733 62.050, 320.259 59.724 C 325.413 51.868, 339.568 51.668, 343.797 59.391 C 345.231 62.010, 345.552 66.164, 345.830 85.750 L 346.161 109 356.138 109 L 366.114 109 365.807 80.750 C 365.515 53.905, 365.391 52.296, 363.309 48.405 C 358.470 39.362, 348.224 34.249, 336.984 35.268 C 330.480 35.857, 325.877 37.917, 321.250 42.308 L 318 45.392 318 28.696 L 318 12 307.490 12 L 296.981 12 297.240 60.250 M 247 27.452 L 247 36.905 240.750 37.202 L 234.500 37.500 234.210 45.750 L 233.919 54 240.371 54 L 246.822 54 247.176 74.250 C 247.500 92.780, 247.717 94.850, 249.721 98.624 C 254.313 107.267, 262.328 110.730, 275.391 109.715 C 286.260 108.870, 286 109.121, 286 99.508 L 286 91.230 279.463 91.755 C 273.611 92.225, 272.669 92.037, 270.463 89.966 C 268.035 87.684, 268 87.413, 268 70.826 L 268 54 277 54 L 286 54 286 45.500 L 286 37 277 37 L 268 37 268 27.500 L 268 18 257.500 18 L 247 18 247 27.452 M 46.994 35.874 C 42.636 37.304, 38.549 39.724, 35.729 42.544 L 33 45.273 33 41.136 L 33 37 22.500 37 L 12 37 12 73.035 L 12 109.070 22.250 108.785 L 32.500 108.500 33 85.500 C 33.529 61.162, 33.771 59.899, 38.629 56.078 C 41.927 53.483, 51.377 53.175, 54.770 55.551 C 59.152 58.621, 59.478 60.455, 60 85 L 60.500 108.500 64.500 108.832 C 66.700 109.015, 71.313 108.867, 74.750 108.503 L 81 107.841 81 83.470 C 81 69.627, 80.528 56.898, 79.908 54.006 C 77.578 43.140, 68.518 36.011, 56.254 35.393 C 52.539 35.205, 48.372 35.422, 46.994 35.874 M 119.618 36.049 C 85.803 44.542, 79.633 90.879, 110.306 105.979 C 126.485 113.944, 146.370 111.237, 158.536 99.413 C 173.838 84.542, 172.196 56.404, 155.273 43.482 C 146.442 36.740, 130.282 33.370, 119.618 36.049 M 214 36.690 C 210.678 37.869, 204.927 42.423, 203.038 45.371 L 201.034 48.500 201.017 42.750 L 201 37 190.500 37 L 180 37 180 72.950 L 180 108.901 190.250 108.700 L 200.500 108.500 201 88.500 C 201.526 67.453, 201.743 66.431, 206.664 61.872 C 210.931 57.918, 213.798 56.761, 219.667 56.624 L 224.996 56.500 224.998 46.250 L 225 36 220.250 36.079 C 217.637 36.122, 214.825 36.397, 214 36.690 M 122.021 55.116 C 109.978 59.921, 108.195 81.306, 119.185 89.132 C 123.584 92.264, 133.247 92.926, 138.460 90.452 C 145.531 87.096, 149.412 77.338, 147.573 67.535 C 146.817 63.505, 142.113 57.627, 137.901 55.449 C 134.736 53.812, 125.760 53.624, 122.021 55.116" stroke="none" fill="#193136" fill-rule="evenodd"/>
</svg>