<svg xmlns="http://www.w3.org/2000/svg" width="240" height="118" viewBox="0 0 240 118" version="1.1">
	<path d="M 0 59.004 L 0 118.008 120.250 117.754 L 240.500 117.500 240.758 58.750 L 241.016 0 120.508 0 L 0 0 0 59.004 M 0.469 59.500 C 0.469 91.950, 0.595 105.080, 0.750 88.678 C 0.904 72.277, 0.904 45.727, 0.749 29.678 C 0.595 13.630, 0.469 27.050, 0.469 59.500 M 34.964 12.583 C 32.361 18.657, 32.341 18.597, 37.371 19.863 C 39.775 20.469, 42.469 21.243, 43.357 21.584 C 44.494 22.020, 45.277 21.401, 46.001 19.497 C 47.042 16.759, 48.229 16.616, 53.407 18.603 C 55.643 19.461, 55.402 17.374, 52.851 13.791 C 50.336 10.259, 45.517 8, 40.497 8 C 37.211 8, 36.774 8.362, 34.964 12.583 M 29.250 11.576 C 24.314 14.523, 24.076 15.258, 27.547 16.839 C 30.960 18.395, 30.767 18.492, 32.510 14.321 C 34.670 9.152, 34.106 8.677, 29.250 11.576 M 20.980 18.524 C 19.603 20.184, 19.589 20.154, 22.500 21.916 C 24.299 23.004, 24.213 23.065, 21.644 22.517 C 19.563 22.074, 18.418 22.396, 17.425 23.704 C 14.812 27.150, 15.678 28.725, 20.592 29.461 C 25.940 30.264, 25.901 30.290, 28.146 24.375 L 29.867 19.842 26.465 18.421 C 22.291 16.677, 22.517 16.673, 20.980 18.524 M 48 20.381 C 48 21.477, 54.563 24, 57.411 24 C 59.144 24, 56.330 20.962, 53.771 20.070 C 49.651 18.634, 48 18.723, 48 20.381 M 30.449 24.468 C 28.051 30.207, 28.353 30.600, 36.135 31.885 C 40.059 32.533, 43.415 32.918, 43.593 32.740 C 43.771 32.562, 44.048 30.471, 44.208 28.092 L 44.500 23.768 40 22.399 C 33.222 20.338, 32.071 20.587, 30.449 24.468 M 46.984 25.542 C 46.443 26.966, 46 29.374, 46 30.893 C 46 33.394, 46.482 33.768, 51.076 34.828 C 59.078 36.675, 59.151 36.642, 58.805 31.258 C 58.482 26.232, 57.328 25.137, 50.734 23.599 C 48.393 23.053, 47.817 23.352, 46.984 25.542 M 14.649 34.703 C 13.542 41.402, 13.863 46, 15.437 46 C 16.311 46, 17.025 44.729, 17.261 42.750 L 17.649 39.500 18.454 42.771 C 20.208 49.901, 22.515 48.051, 23.468 38.750 C 24.059 32.974, 23.931 32, 22.580 32 C 21.480 32, 20.977 32.987, 20.924 35.250 L 20.848 38.500 19.585 35 C 17.805 30.063, 15.440 29.921, 14.649 34.703 M 25.673 33.750 C 25.428 34.163, 24.909 37.293, 24.521 40.708 C 23.822 46.836, 23.847 46.924, 26.480 47.584 C 27.972 47.959, 29.616 47.784, 30.213 47.187 C 31.899 45.501, 33.123 35.853, 31.847 34.315 C 30.675 32.903, 26.407 32.513, 25.673 33.750 M 34.646 34.763 C 33.395 36.787, 32.723 49, 33.862 49 C 34.488 49, 35 48.127, 35 47.059 C 35 44.003, 36.828 43.665, 37.182 46.656 C 37.357 48.135, 38.110 49.546, 38.855 49.791 C 39.886 50.130, 40.052 49.512, 39.547 47.214 C 39.158 45.441, 39.321 43.920, 39.941 43.536 C 41.600 42.511, 41.284 35, 39.582 35 C 38.802 35, 37.497 34.744, 36.683 34.432 C 35.869 34.119, 34.952 34.269, 34.646 34.763 M 27.630 38.250 C 26.746 41.550, 26.871 45, 27.875 45 C 28.704 45, 30 40.348, 30 37.375 C 30 35.163, 28.288 35.795, 27.630 38.250 M 43 37.500 C 43 38.325, 43.392 39, 43.871 39 C 44.363 39, 44.357 41.060, 43.856 43.740 C 43.369 46.348, 43.199 49.076, 43.478 49.804 C 44.450 52.337, 45.771 49.990, 46.455 44.513 C 46.928 40.724, 47.591 39, 48.572 39 C 50.495 39, 50.389 37.363, 48.418 36.607 C 45.611 35.530, 43 35.960, 43 37.500 M 36.583 38.643 C 36.237 39.547, 36.159 40.492, 36.410 40.743 C 37.205 41.538, 39 39.942, 39 38.441 C 39 36.479, 37.361 36.617, 36.583 38.643 M 50.111 43.285 C 48.743 51.138, 48.735 52, 50.025 52 C 50.589 52, 51.320 50.650, 51.650 49 C 52.477 44.865, 54 45.227, 54 49.559 C 54 54.653, 55.667 52.919, 57.016 46.422 C 58.450 39.514, 57.403 35.769, 55.500 41 C 54.524 43.684, 54.068 44.116, 53.546 42.853 C 53.171 41.947, 53.008 40.419, 53.183 39.457 C 53.357 38.495, 52.987 37.527, 52.361 37.307 C 51.652 37.058, 50.802 39.318, 50.111 43.285 M 61.018 47.750 C 61.028 48.163, 62.378 50.934, 64.018 53.910 C 65.898 57.320, 67 60.766, 67 63.233 C 67 66.422, 67.324 67.084, 68.750 66.810 C 70.056 66.559, 70.541 65.396, 70.662 62.225 C 70.758 59.705, 71.876 56.180, 73.412 53.560 C 76.474 48.336, 76.631 47, 74.185 47 C 73.091 47, 71.698 48.410, 70.676 50.553 C 68.778 54.533, 67.833 54.426, 66.009 50.021 C 64.902 47.350, 60.965 45.558, 61.018 47.750 M 122 57.083 C 122 64.703, 122.305 67.066, 123.250 66.755 C 123.944 66.527, 124.634 64.301, 124.802 61.752 C 124.967 59.226, 125.750 56.623, 126.540 55.967 C 128.316 54.493, 128.818 55.621, 129.218 61.991 C 129.428 65.337, 129.946 66.567, 131.250 66.815 C 132.759 67.101, 133 66.321, 133 61.145 C 133 54.224, 131.218 51.478, 127.356 52.447 C 125.271 52.970, 125 52.691, 125 50.019 C 125 48.002, 124.502 47, 123.500 47 C 122.266 47, 122 48.787, 122 57.083 M 189 50.067 C 189 52.704, 188.712 53.043, 186.951 52.484 C 183.192 51.291, 180 54.453, 180 59.368 C 180 64.925, 182.147 67.004, 187.531 66.663 L 191.500 66.411 191.786 56.705 C 192.028 48.519, 191.832 47, 190.536 47 C 189.488 47, 189 47.975, 189 50.067 M 15.193 53.250 L 15.500 57.500 20.250 57.805 L 25 58.110 25 54.162 C 25 49.781, 23.995 49, 18.361 49 C 14.890 49, 14.885 49.006, 15.193 53.250 M 27.578 51.144 C 26.773 53.623, 26.346 70, 27.087 70 C 27.776 70, 39 53.720, 39 52.720 C 39 52.462, 37.702 51.990, 36.117 51.673 C 34.531 51.356, 32.060 50.802, 30.626 50.442 C 28.854 49.997, 27.878 50.222, 27.578 51.144 M 77 54 C 72.713 58.287, 75.681 67, 81.427 67 C 84.351 67, 88 62.736, 88 59.320 C 88 56.376, 83.842 52, 81.045 52 C 79.920 52, 78.100 52.900, 77 54 M 110.977 54.023 C 108.525 56.475, 109.682 59.549, 113.621 61.046 C 114.996 61.569, 115.841 62.448, 115.499 63.001 C 115.086 63.669, 114.223 63.654, 112.919 62.956 C 110.913 61.883, 109 62.404, 109 64.024 C 109 65.603, 113.094 67.193, 115.564 66.573 C 118.290 65.889, 120.264 62.850, 119.416 60.642 C 119.099 59.816, 117.526 58.682, 115.920 58.122 C 112.044 56.771, 112.106 54.871, 116 55.650 C 119.427 56.335, 120.109 54.664, 117.066 53.035 C 114.313 51.562, 113.269 51.731, 110.977 54.023 M 137 54 C 132.713 58.287, 135.681 67, 141.427 67 C 144.351 67, 148 62.736, 148 59.320 C 148 56.376, 143.842 52, 141.045 52 C 139.920 52, 138.100 52.900, 137 54 M 149.223 52.862 C 148.337 53.410, 148.496 55.201, 149.862 60.046 C 151.928 67.373, 153.892 68.379, 155.632 63 L 156.763 59.500 158.367 63.338 C 159.250 65.449, 160.507 66.998, 161.161 66.780 C 162.357 66.381, 166.327 53.994, 165.518 53.185 C 164.354 52.021, 162.108 54.226, 161.447 57.182 L 160.706 60.500 159.571 56.500 C 158.923 54.217, 157.819 52.500, 157 52.500 C 156.184 52.500, 155.065 54.227, 154.407 56.500 L 153.251 60.500 152.512 56.739 C 151.698 52.594, 150.996 51.766, 149.223 52.862 M 168.911 53.871 C 162.334 59.196, 169.775 70.575, 176.559 65.567 C 179.219 63.604, 177.194 61.291, 174.212 62.886 C 172.678 63.708, 171.923 63.612, 170.983 62.479 C 169.933 61.214, 170.353 61, 173.878 61 C 177.774 61, 178 60.838, 178 58.057 C 178 56.149, 177.218 54.566, 175.777 53.557 C 172.899 51.541, 171.722 51.595, 168.911 53.871 M 215.077 52.808 C 214.415 53.028, 214 56.603, 214 62.083 C 214 70.333, 214.150 71, 216 71 C 217.479 71, 218 70.333, 218 68.441 C 218 66.898, 218.420 66.141, 219.057 66.535 C 221.143 67.824, 224.759 65.997, 225.987 63.032 C 227.219 60.057, 226.889 56.843, 225.062 54.027 C 224.184 52.674, 217.812 51.896, 215.077 52.808 M 38.207 58.094 C 35.972 61.025, 34.355 63.765, 34.614 64.184 C 35.398 65.454, 42.743 67.313, 44.425 66.667 C 46.959 65.695, 46.264 64.194, 42.250 61.971 C 39.520 60.459, 39.180 60.051, 41 60.471 C 48.878 62.289, 48.633 62.325, 50.985 59.020 C 53.705 55.201, 52.995 54.235, 46.845 53.392 L 42.270 52.765 38.207 58.094 M 89 57.777 C 89 64.613, 90.983 67.035, 96.293 66.684 L 100.500 66.405 100.796 59.703 C 101.068 53.520, 100.933 53, 99.046 53 C 97.258 53, 97 53.629, 97 58 C 97 62.333, 96.733 63, 95 63 C 93.267 63, 93 62.333, 93 58 C 93 53.667, 92.733 53, 91 53 C 89.279 53, 89 53.667, 89 57.777 M 200 57.777 C 200 64.613, 201.983 67.035, 207.293 66.684 L 211.500 66.405 211.796 59.703 C 212.068 53.520, 211.933 53, 210.046 53 C 208.258 53, 208 53.629, 208 58 C 208 62.333, 207.733 63, 206 63 C 204.267 63, 204 62.333, 204 58 C 204 53.667, 203.733 53, 202 53 C 200.279 53, 200 53.667, 200 57.777 M 79.606 56.537 C 78.723 57.420, 78.007 58.673, 78.015 59.321 C 78.072 63.671, 83.300 64.199, 83.801 59.906 C 84.215 56.351, 81.762 54.381, 79.606 56.537 M 139.606 56.537 C 138.723 57.420, 138.007 58.673, 138.015 59.321 C 138.072 63.671, 143.300 64.199, 143.801 59.906 C 144.215 56.351, 141.762 54.381, 139.606 56.537 M 170.951 56.559 C 169.962 57.751, 170.208 58, 172.378 58 C 175.188 58, 175.922 56.568, 173.573 55.666 C 172.788 55.365, 171.608 55.767, 170.951 56.559 M 183.545 57.859 C 182.708 60.497, 183.903 63, 186 63 C 186.982 63, 188.069 62.262, 188.416 61.359 C 189.376 58.857, 188.088 56, 186 56 C 184.974 56, 183.869 56.837, 183.545 57.859 M 218.701 56.632 C 217.543 57.790, 217.910 61.680, 219.284 62.820 C 221.270 64.469, 223.198 62.611, 222.830 59.400 C 222.515 56.651, 220.221 55.112, 218.701 56.632 M 16.678 60.750 C 16.436 61.163, 16.457 62.935, 16.724 64.689 C 17.090 67.095, 17.917 68.124, 20.098 68.884 C 23.480 70.063, 25 68.259, 25 63.066 C 25 60.163, 24.790 60, 21.059 60 C 18.891 60, 16.920 60.337, 16.678 60.750 M 228.336 63.567 C 227.426 65.939, 229.559 67.611, 231.470 66.025 C 232.654 65.042, 232.754 64.409, 231.890 63.367 C 230.392 61.563, 229.077 61.637, 228.336 63.567 M 30.626 69.448 C 28.797 72.239, 28.689 72.130, 36.019 74.916 C 43.074 77.597, 43 77.612, 43 73.513 C 43 70.452, 42.559 69.842, 39.378 68.513 C 34.350 66.413, 32.484 66.612, 30.626 69.448 M 13.526 72.950 C 11.334 77.189, 11.478 77.451, 16.964 79.206 C 22.400 80.944, 23.231 80.567, 24.355 75.856 C 24.919 73.487, 24.566 73.044, 20.972 71.606 C 15.628 69.467, 15.296 69.527, 13.526 72.950 M 25.104 81.733 C 23.886 86.005, 22.675 90.238, 22.412 91.141 C 22.077 92.291, 22.886 93.113, 25.117 93.891 C 29.688 95.485, 29.676 95.492, 31.522 89.932 C 32.646 86.550, 33.647 85.034, 34.532 85.374 C 35.261 85.654, 37.498 86.190, 39.502 86.566 L 43.145 87.250 42.823 83.875 C 42.536 80.875, 41.889 80.210, 37 77.887 C 27.009 73.141, 27.608 72.948, 25.104 81.733 M 10.118 82.128 C 8.991 85.069, 9.337 85.392, 15.344 87.009 C 19.439 88.111, 20.326 88.095, 21.079 86.906 C 23.176 83.594, 21.182 81.795, 13.763 80.305 C 11.541 79.859, 10.855 80.201, 10.118 82.128 M 9 90.597 C 9 95.261, 10.315 97.662, 15.590 102.630 C 22.616 109.248, 24.820 109.063, 26.833 101.687 L 27.873 97.875 23.513 96.005 C 20.006 94.502, 19.254 93.744, 19.675 92.133 C 20.113 90.460, 19.483 89.947, 15.850 89.016 C 13.457 88.403, 10.938 87.713, 10.250 87.482 C 9.407 87.199, 9 88.213, 9 90.597 M 33.436 90.498 C 31.313 95.579, 31.619 96.546, 35.750 97.825 C 40.777 99.381, 42.350 97.461, 41.959 90.250 C 41.937 89.838, 40.333 88.951, 38.396 88.280 C 34.914 87.075, 34.856 87.101, 33.436 90.498 M 28.852 102.101 C 27.134 107.834, 28.643 108.898, 34.169 105.850 C 39.657 102.823, 39.686 100.931, 34.269 99.363 L 30.039 98.138 28.852 102.101" stroke="none" fill="#161A1B" fill-rule="evenodd"/>
</svg>