<svg xmlns="http://www.w3.org/2000/svg" width="642" height="996" viewBox="0 0 642 996" version="1.1">
	<path d="M -0 498.002 L -0 996.003 321.250 995.752 L 642.500 995.500 642.751 497.750 L 643.002 -0 321.501 -0 L 0 0 -0 498.002 M 0.496 498.500 C 0.496 772.400, 0.610 884.301, 0.750 747.168 C 0.890 610.036, 0.890 385.936, 0.750 249.168 C 0.610 112.401, 0.496 224.600, 0.496 498.500 M 362.852 31.998 C 361.946 32.541, 358.617 32.788, 355.454 32.548 C 344.691 31.729, 339.192 36.562, 335.029 50.500 C 334.372 52.700, 333.163 56.075, 332.343 58 C 331.523 59.925, 330.276 62.850, 329.571 64.500 C 328.866 66.150, 327.323 69.525, 326.142 72 C 324.961 74.475, 323.996 77.069, 323.997 77.764 C 323.999 78.459, 323.610 79.809, 323.134 80.764 C 322.290 82.456, 321.463 84.751, 318.366 94 C 315.771 101.747, 318.210 104.755, 329.616 107.874 C 331.880 108.493, 335.052 109, 336.666 109 C 338.280 109, 340.027 109.372, 340.550 109.826 C 342.196 111.257, 349.739 113.279, 350.856 112.589 C 351.444 112.226, 354.223 113.093, 357.031 114.515 C 359.839 115.938, 362.893 117.010, 363.818 116.898 C 364.743 116.785, 366.175 116.973, 367 117.316 C 367.825 117.658, 369.625 118.076, 371 118.245 C 372.375 118.413, 373.950 118.818, 374.500 119.144 C 375.050 119.470, 377.249 120.053, 379.386 120.440 C 381.524 120.826, 384.486 122.039, 385.969 123.135 C 388.825 125.247, 393.768 125.250, 399.181 123.145 C 401.399 122.282, 401.983 121.272, 402.559 117.301 C 402.942 114.660, 403.744 111.600, 404.340 110.500 C 404.937 109.400, 405.332 108.170, 405.218 107.766 C 405.104 107.362, 405.906 105.562, 407.001 103.766 C 408.097 101.970, 408.994 99.743, 408.996 98.818 C 409.001 96.709, 413.822 93.343, 416.540 93.551 C 417.662 93.637, 420.252 94.500, 422.296 95.470 C 425.290 96.891, 426.304 96.993, 427.507 95.995 C 428.630 95.062, 429.340 95.037, 430.373 95.895 C 431.129 96.522, 432.406 96.781, 433.213 96.472 C 434.020 96.162, 435.257 96.604, 435.962 97.454 C 436.668 98.305, 437.752 99.003, 438.372 99.006 C 438.993 99.010, 440.735 99.657, 442.245 100.444 C 443.912 101.314, 446.349 101.655, 448.451 101.314 C 450.900 100.917, 453.125 101.384, 456.056 102.912 C 458.351 104.108, 461.031 104.808, 462.064 104.480 C 463.180 104.125, 465.110 104.761, 466.869 106.062 C 471.469 109.462, 473.905 106.164, 470.443 101.223 C 469.587 100, 469.192 99, 469.566 99 C 469.939 99, 469.701 98.345, 469.036 97.544 C 468.372 96.743, 468.104 95.640, 468.442 95.094 C 468.780 94.547, 468.143 93.612, 467.028 93.015 C 465.913 92.418, 465 91.072, 465 90.024 C 465 88.976, 464.550 87.840, 464 87.500 C 463.450 87.160, 463 86.034, 463 84.998 C 463 83.961, 462.045 82.444, 460.877 81.626 C 459.709 80.808, 458.228 79.095, 457.585 77.820 C 456.812 76.287, 455.697 75.601, 454.296 75.798 C 451.348 76.212, 450.464 74.250, 452.557 71.937 C 454.140 70.188, 454.161 69.830, 452.773 68.250 C 451.928 67.287, 450.912 65.438, 450.516 64.139 C 449.542 60.949, 443.149 54, 441.188 54 C 440.320 54, 438.333 52.777, 436.772 51.282 C 435.211 49.786, 432.937 48.519, 431.717 48.466 C 430.498 48.412, 428.317 47.273, 426.871 45.934 C 425.426 44.595, 422.051 42.875, 419.371 42.111 C 416.692 41.347, 412.612 39.884, 410.305 38.861 C 407.998 37.837, 405.465 37, 404.677 37 C 403.219 37, 396.761 34.648, 393.956 33.095 C 393.106 32.625, 387.904 32.240, 382.396 32.240 C 376.887 32.240, 370.607 31.963, 368.440 31.625 C 366.273 31.287, 363.759 31.455, 362.852 31.998 M 317 42.814 C 313.425 44.293, 308.632 46.485, 306.349 47.684 C 304.066 48.884, 301.983 49.649, 301.720 49.386 C 300.737 48.404, 289.325 55.137, 284.598 59.488 C 281.901 61.970, 279.370 64, 278.973 64 C 278.576 64, 276.532 65.575, 274.430 67.500 C 272.329 69.425, 270.261 71, 269.836 71 C 268.448 71, 259 80.714, 259.015 82.125 C 259.054 85.564, 262.214 87.189, 269.379 87.452 C 272.708 87.575, 274.662 88.185, 275.531 89.374 C 276.232 90.332, 277.968 91.240, 279.390 91.391 C 280.811 91.543, 282.803 92.417, 283.816 93.333 C 284.829 94.250, 286.534 95, 287.606 95 C 288.678 95, 290.560 95.704, 291.789 96.564 C 295.262 98.997, 302.400 98.032, 304.955 94.784 C 306.080 93.354, 307 91.675, 307 91.052 C 307 90.430, 307.927 88.104, 309.059 85.884 C 310.622 82.822, 310.847 81.520, 309.992 80.491 C 309.116 79.435, 309.436 78.760, 311.433 77.452 C 312.845 76.527, 314 75.295, 314 74.714 C 314 74.133, 314.781 72.794, 315.737 71.739 C 316.692 70.683, 317.541 68.481, 317.623 66.845 C 317.705 65.210, 318.663 62.888, 319.751 61.686 C 322.128 59.061, 329 45.036, 329 42.810 C 329 41.943, 327.988 40.962, 326.750 40.630 C 323.850 39.853, 324.510 39.705, 317 42.814 M 412.065 55.422 C 411.378 56.250, 411.285 57.058, 411.838 57.400 C 412.353 57.718, 413.296 57.348, 413.935 56.578 C 414.622 55.750, 414.715 54.942, 414.162 54.600 C 413.647 54.282, 412.704 54.652, 412.065 55.422 M 434.600 56.838 C 434.282 57.353, 434.652 58.296, 435.422 58.935 C 436.250 59.622, 437.058 59.715, 437.400 59.162 C 437.718 58.647, 437.348 57.704, 436.578 57.065 C 435.750 56.378, 434.942 56.285, 434.600 56.838 M 414.553 58.915 C 414.231 59.436, 414.394 60.125, 414.915 60.447 C 415.436 60.769, 416.125 60.606, 416.447 60.085 C 416.769 59.564, 416.606 58.875, 416.085 58.553 C 415.564 58.231, 414.875 58.394, 414.553 58.915 M 444 64.885 C 444 65.372, 445.102 66.492, 446.448 67.374 C 449.208 69.182, 450.952 67.852, 448.964 65.456 C 447.649 63.872, 444 63.453, 444 64.885 M 406.469 80.050 C 405.519 81.588, 406.820 82.580, 408.104 81.296 C 408.822 80.578, 408.839 80.019, 408.156 79.597 C 407.596 79.251, 406.837 79.455, 406.469 80.050 M 243.243 96.914 C 241.734 98.646, 237.688 103.027, 234.250 106.648 C 227.836 113.405, 226.847 115.799, 229.546 118.038 C 230.396 118.743, 230.877 119.879, 230.614 120.562 C 229.817 122.641, 231.231 123.101, 233.131 121.381 C 234.791 119.879, 235.218 119.911, 238.863 121.812 C 241.029 122.941, 243.053 123.614, 243.359 123.308 C 243.665 123.002, 245.319 123.932, 247.034 125.376 C 248.750 126.819, 251.217 128, 252.518 128 C 253.818 128, 255.152 128.437, 255.482 128.972 C 255.813 129.506, 258.174 130.868, 260.729 131.998 C 264.763 133.783, 265.186 134.242, 263.938 135.482 C 262.790 136.623, 261.694 136.698, 258.500 135.851 C 256.300 135.268, 253.375 134.709, 252 134.608 C 250.625 134.507, 247.925 133.697, 246 132.807 C 244.075 131.918, 240.925 130.962, 239 130.683 C 237.075 130.404, 234.150 129.604, 232.500 128.906 C 227.240 126.680, 221.262 126.254, 218.208 127.889 C 216.223 128.951, 215.789 129.714, 216.098 131.593 C 216.151 131.920, 215.076 133.382, 213.708 134.843 C 212.339 136.305, 210.303 139.330, 209.183 141.567 C 208.063 143.804, 206.438 146.221, 205.573 146.939 C 204.708 147.657, 204 149.356, 204 150.715 C 204 152.073, 203.100 154.329, 202 155.727 C 200.900 157.126, 200 158.961, 200 159.806 C 200 160.651, 199.305 162.111, 198.455 163.050 C 197.605 163.989, 196.818 165.989, 196.705 167.494 C 196.519 169.972, 196.971 170.365, 201.500 171.660 C 204.250 172.446, 210.591 173.226, 215.592 173.393 C 221.440 173.588, 225.846 174.276, 227.942 175.321 C 229.735 176.216, 232.844 177.219, 234.851 177.551 C 236.858 177.884, 239.175 178.436, 240 178.779 C 240.825 179.121, 243.750 179.504, 246.500 179.629 C 249.250 179.755, 252.850 180.088, 254.500 180.371 C 265.613 182.273, 265.305 182.304, 268.833 178.931 C 271.024 176.835, 271.999 175.103, 271.677 173.873 C 271.408 172.844, 271.596 171.750, 272.094 171.442 C 272.592 171.134, 273 170.078, 273 169.095 C 273 167.021, 275.689 161.310, 277.067 160.459 C 277.584 160.139, 277.759 158.889, 277.456 157.682 C 277.090 156.222, 277.953 153.905, 280.031 150.767 C 282.507 147.028, 283.101 145.161, 282.892 141.774 C 282.701 138.688, 282.988 137.580, 283.926 137.787 C 285.639 138.167, 287.928 135.064, 287.968 132.309 C 287.986 131.104, 288.450 129.840, 289 129.500 C 289.550 129.160, 290 127.931, 290 126.770 C 290 125.608, 290.762 123.815, 291.694 122.786 C 296.614 117.349, 295.828 109.665, 290.225 108.420 C 284.791 107.212, 283.474 106.741, 282 105.479 C 281.175 104.773, 278.080 103.483, 275.121 102.613 C 272.163 101.743, 269.197 100.578, 268.530 100.025 C 267.862 99.471, 266.008 98.870, 264.408 98.690 C 262.809 98.510, 260.387 97.761, 259.028 97.027 C 257.668 96.292, 255.193 95.596, 253.528 95.479 C 251.862 95.362, 249.484 94.928, 248.243 94.515 C 246.448 93.917, 245.426 94.407, 243.243 96.914 M 421.389 105.980 C 418.610 107.103, 417.477 109.956, 416.818 117.500 C 416.364 122.703, 417.014 125, 418.941 125 C 420.009 125, 421.160 125.450, 421.500 126 C 421.840 126.550, 423.640 127, 425.500 127 C 427.360 127, 429.143 127.422, 429.461 127.937 C 429.780 128.452, 431.719 128.864, 433.770 128.851 C 435.822 128.838, 439.207 129.555, 441.294 130.445 C 443.381 131.335, 445.498 131.810, 446 131.500 C 446.502 131.190, 448.470 131.587, 450.374 132.383 C 452.279 133.179, 454.085 133.582, 454.387 133.279 C 454.690 132.977, 456.019 133.438, 457.342 134.304 C 458.664 135.171, 460.590 135.663, 461.623 135.398 C 462.655 135.133, 466.140 135.829, 469.367 136.945 C 472.594 138.060, 475.601 138.747, 476.048 138.470 C 476.496 138.194, 477.144 138.425, 477.490 138.984 C 478.390 140.441, 483.293 140.237, 485.460 138.653 C 486.756 137.705, 486.956 137.091, 486.135 136.584 C 485.493 136.187, 485.253 135.400, 485.602 134.836 C 486.520 133.350, 483.851 128.843, 482.385 129.406 C 480.440 130.152, 478.582 127.132, 478.820 123.609 C 479.011 120.767, 478.596 120.207, 475.182 118.700 C 473.062 117.765, 470.277 117, 468.993 117 C 467.708 117, 465.846 116.266, 464.855 115.369 C 463.864 114.472, 461.271 113.638, 459.093 113.515 C 456.915 113.392, 453.416 112.465, 451.317 111.455 C 447.415 109.578, 440.857 108.190, 433.201 107.622 C 430.837 107.446, 428.384 106.784, 427.751 106.151 C 426.423 104.823, 424.388 104.768, 421.389 105.980 M 313.500 117.716 C 312.400 117.982, 310.450 119.167, 309.167 120.350 C 306.725 122.600, 302 131.972, 302 134.565 C 302 135.393, 301.297 137.143, 300.438 138.455 C 299.578 139.766, 298.975 141.438, 299.097 142.170 C 299.218 142.901, 298.356 145.525, 297.181 148 C 296.006 150.475, 295.024 153.625, 295 155 C 294.975 156.375, 294.076 158.625, 293 160 C 291.924 161.375, 291.034 163.426, 291.022 164.559 C 291.010 165.691, 290.339 167.491, 289.532 168.559 C 288.724 169.626, 288.049 171.486, 288.032 172.691 C 288.014 173.896, 287.532 175.171, 286.959 175.525 C 284.219 177.219, 290.113 185.465, 293.441 184.595 C 294.533 184.309, 296.124 184.708, 296.978 185.480 C 299.055 187.360, 305.878 188.818, 309.859 188.234 C 311.945 187.928, 313.692 188.317, 314.821 189.338 C 315.794 190.219, 317.871 190.790, 319.531 190.632 C 321.164 190.477, 322.950 190.664, 323.500 191.049 C 325.660 192.557, 339.526 193.678, 345 192.787 C 346.375 192.563, 348.175 192.913, 349 193.563 C 349.825 194.214, 352.300 195.069, 354.500 195.463 C 356.700 195.857, 359.100 196.675, 359.833 197.281 C 361.522 198.677, 364.909 198.956, 365.648 197.761 C 365.958 197.260, 367.207 197.785, 368.424 198.929 C 370.203 200.600, 372.242 201.082, 378.811 201.384 L 386.985 201.760 389.179 198.210 C 390.397 196.239, 391.437 192.814, 391.516 190.511 C 391.594 188.229, 392.043 185.740, 392.513 184.980 C 392.983 184.219, 393.489 180.771, 393.638 177.317 C 393.788 173.863, 394.444 170.039, 395.096 168.820 C 395.749 167.601, 396.443 163.576, 396.638 159.874 C 396.834 156.173, 397.438 151.977, 397.981 150.549 C 398.714 148.622, 398.521 146.613, 397.234 142.755 C 395.754 138.318, 394.988 137.383, 392 136.373 C 386.181 134.405, 376.642 132.482, 374.234 132.790 C 372.949 132.955, 371.725 132.447, 371.406 131.615 C 371.096 130.809, 368.966 129.840, 366.672 129.462 C 364.377 129.083, 361.940 128.322, 361.255 127.769 C 360.571 127.216, 359.019 127.023, 357.807 127.340 C 356.596 127.657, 355.131 127.554, 354.552 127.111 C 352.712 125.702, 342.807 122.860, 341.493 123.364 C 340.798 123.631, 339.390 123.266, 338.365 122.552 C 336.693 121.390, 332.095 120.016, 328 119.455 C 327.175 119.342, 324.475 118.754, 322 118.149 C 317.229 116.983, 316.652 116.953, 313.500 117.716 M 415.819 136.490 C 412.402 138.404, 411.248 142.611, 410.603 155.500 C 410.520 157.150, 410.107 159.050, 409.684 159.723 C 409.262 160.395, 408.919 162.645, 408.923 164.723 C 408.937 171.456, 408.368 176.456, 407.356 178.500 C 406.811 179.600, 406.251 183.394, 406.112 186.932 C 405.971 190.489, 405.219 194.277, 404.429 195.405 C 402.330 198.402, 402.667 200.599, 405.750 204.016 C 407.952 206.456, 409.586 207.188, 413.950 207.694 C 416.947 208.042, 420.547 208.925, 421.950 209.657 C 423.352 210.389, 426.386 210.990, 428.691 210.994 C 430.996 210.997, 433.135 211.410, 433.445 211.910 C 434.141 213.037, 447.574 215.381, 448.843 214.597 C 449.350 214.284, 450.874 214.900, 452.230 215.966 C 454.074 217.417, 454.982 217.618, 455.834 216.766 C 456.687 215.913, 457.556 216.173, 459.285 217.798 C 460.556 218.992, 463.150 220.240, 465.048 220.571 C 466.947 220.902, 469.175 221.437, 470 221.759 C 472.931 222.904, 476.422 222.894, 477.816 221.738 C 478.936 220.808, 479.609 221.033, 481.060 222.826 C 482.068 224.070, 483.254 225.073, 483.696 225.056 C 484.138 225.038, 485.309 225.281, 486.298 225.595 C 488.296 226.229, 491.057 224.421, 490.718 222.701 C 490.598 222.092, 491.400 221.572, 492.500 221.547 C 495.316 221.481, 495.584 214.560, 492.917 210.790 C 490.587 207.498, 490.559 206.754, 492.608 202.792 C 493.981 200.136, 494.030 199.120, 492.943 195.827 C 492.243 193.706, 491.075 191.477, 490.346 190.872 C 489.618 190.268, 489.282 189.353, 489.600 188.838 C 489.955 188.263, 490.630 188.278, 491.351 188.876 C 492.171 189.557, 492.879 189.095, 493.708 187.338 C 494.709 185.219, 494.662 184.916, 493.409 185.397 C 491.233 186.232, 490.334 182.960, 492.338 181.495 C 494.141 180.176, 494.544 176.972, 493.097 175.450 C 492.126 174.428, 491.170 167.787, 490.744 159.103 C 490.568 155.500, 489.984 153.474, 488.990 153.010 C 488.170 152.627, 485.475 151.342, 483 150.154 C 480.525 148.966, 477.292 147.996, 475.815 147.997 C 474.338 147.999, 471.863 147.477, 470.315 146.839 C 468.767 146.200, 467.149 145.754, 466.720 145.849 C 466.291 145.943, 464.640 145.348, 463.051 144.526 C 461.462 143.705, 457.908 143.083, 455.153 143.145 C 451.436 143.229, 449.445 142.709, 447.437 141.129 C 445.906 139.925, 443.283 139, 441.400 139 C 439.568 139, 436.142 138.359, 433.785 137.576 C 426.764 135.241, 418.895 134.766, 415.819 136.490 M 196.431 188.466 C 195.450 189.961, 194.620 193.738, 194.391 197.744 C 194.178 201.460, 193.567 206.525, 193.031 209 C 191.214 217.404, 189.914 228.612, 190.560 230.297 C 190.915 231.220, 190.749 233.281, 190.192 234.878 C 189.475 236.936, 189.511 238.111, 190.315 238.915 C 191.126 239.726, 191.147 240.542, 190.389 241.775 C 189.806 242.724, 189.407 246.650, 189.503 250.500 C 189.599 254.350, 189.412 257.950, 189.088 258.500 C 188.765 259.050, 188.416 261.075, 188.313 263 C 188.210 264.925, 187.822 268.194, 187.452 270.264 C 187.045 272.536, 187.215 274.554, 187.880 275.356 C 188.487 276.086, 188.691 276.975, 188.335 277.332 C 187.253 278.414, 187.352 288.101, 188.462 289.601 C 189.057 290.407, 191.702 291.135, 194.663 291.308 C 197.503 291.475, 200.429 292.111, 201.166 292.723 C 202.986 294.233, 206.461 291.672, 206.615 288.707 C 206.718 286.709, 207.846 274.244, 208.488 268 C 208.630 266.625, 209.086 261, 209.502 255.500 C 210.581 241.236, 212.733 239.172, 215.007 250.221 C 215.718 253.674, 216.659 256.968, 217.098 257.540 C 217.537 258.111, 218.613 262.161, 219.491 266.540 C 220.368 270.918, 221.363 275.175, 221.702 276 C 222.040 276.825, 222.245 277.842, 222.156 278.259 C 222.067 278.676, 222.484 280.926, 223.082 283.259 C 223.680 285.592, 224.469 289.293, 224.835 291.483 L 225.500 295.467 234 296.604 C 240.279 297.445, 242.808 297.449, 243.679 296.621 C 244.339 295.993, 246.205 284.290, 247.922 270 C 249.608 255.975, 251.425 241.125, 251.961 237 C 252.497 232.875, 253.219 226.800, 253.564 223.500 C 253.910 220.200, 254.546 217.050, 254.977 216.500 C 255.409 215.950, 256.084 211.533, 256.476 206.684 C 257.303 196.476, 256.136 194, 250.494 194 C 248.737 194, 245.872 193.503, 244.128 192.895 C 240.373 191.586, 237.979 192.971, 238.146 196.356 C 238.334 200.183, 236.871 212.446, 235.981 214.500 C 235.504 215.600, 234.642 221.649, 234.065 227.942 C 233.488 234.236, 232.577 239.823, 232.040 240.360 C 230.854 241.546, 231.010 242.027, 227.057 225 C 225.333 217.575, 222.974 207.900, 221.814 203.500 C 220.655 199.100, 219.619 194.260, 219.513 192.744 C 219.407 191.228, 219.085 189.752, 218.797 189.463 C 218.279 188.946, 213.376 187.994, 209.500 187.659 C 208.400 187.564, 207.050 187.228, 206.500 186.912 C 205.950 186.595, 203.831 186.248, 201.792 186.140 C 198.811 185.982, 197.759 186.438, 196.431 188.466 M 278 200.887 C 270.512 202.441, 265.419 208.208, 264.587 216.073 C 262.632 234.554, 261.758 241.703, 261.295 243 C 261 243.825, 260.561 246.750, 260.318 249.500 C 260.076 252.250, 259.501 256.199, 259.039 258.276 C 258.578 260.353, 258.434 262.943, 258.718 264.031 C 259.003 265.120, 258.779 266.571, 258.220 267.255 C 256.306 269.599, 255.624 287.164, 257.291 291.154 C 259.649 296.796, 264.387 299.749, 273.039 300.965 C 277.143 301.542, 281.625 302.265, 283 302.571 C 288.163 303.721, 295.073 303.244, 296.875 301.613 C 297.858 300.723, 298.909 300.242, 299.211 300.544 C 300.294 301.627, 306.090 292.494, 305.902 290 C 305.798 288.625, 305.957 286.825, 306.254 286 C 306.552 285.175, 307.560 278.650, 308.495 271.500 C 309.430 264.350, 310.540 258.050, 310.962 257.500 C 311.774 256.441, 313.070 246.874, 313.197 241 C 313.239 239.075, 313.688 236.972, 314.195 236.327 C 314.703 235.681, 315.204 230.281, 315.309 224.327 L 315.500 213.500 310.824 208.788 C 305.930 203.856, 305.744 203.780, 294.500 202.102 C 290.650 201.527, 286.150 200.855, 284.500 200.608 C 282.850 200.362, 279.925 200.487, 278 200.887 M 485.553 202.915 C 485.231 203.436, 485.394 204.125, 485.915 204.447 C 486.436 204.769, 487.125 204.606, 487.447 204.085 C 487.769 203.564, 487.606 202.875, 487.085 202.553 C 486.564 202.231, 485.875 202.394, 485.553 202.915 M 327.121 209.775 C 326.543 210.854, 326.261 211.927, 326.493 212.160 C 326.726 212.392, 326.214 216.614, 325.357 221.541 C 324.500 226.469, 323.836 232.457, 323.882 234.848 C 323.928 237.240, 323.535 239.999, 323.010 240.981 C 322.485 241.962, 321.848 245.406, 321.594 248.633 C 321.341 251.860, 320.189 260.800, 319.034 268.500 C 317.879 276.200, 316.476 286.100, 315.915 290.500 C 315.354 294.900, 314.496 299.770, 314.007 301.323 C 312.668 305.577, 313.681 307, 318.048 307 C 320.157 307, 322.099 307.351, 322.364 307.781 C 322.630 308.210, 324.535 308.547, 326.599 308.531 C 331.067 308.494, 331.516 307.449, 333.054 293.500 C 333.935 285.510, 335.431 276.825, 336.539 273.268 C 336.802 272.424, 337.645 272.303, 339.212 272.882 C 340.933 273.518, 341.533 274.567, 341.635 277.114 C 341.832 282.057, 343.059 294.257, 343.535 296 C 343.761 296.825, 344.207 300.425, 344.528 304 C 345.190 311.380, 346.276 312.955, 351.097 313.522 C 352.968 313.742, 356.174 314.340, 358.220 314.849 C 362.840 316, 364.367 314.556, 363.533 309.826 C 363.210 307.997, 362.740 304.925, 362.487 303 C 358.585 273.220, 358.519 276.584, 363.065 273.576 C 368.334 270.089, 369.967 267.276, 371.048 259.826 C 371.552 256.347, 372.221 251.700, 372.533 249.500 C 372.846 247.300, 373.676 242.125, 374.378 238 C 375.865 229.268, 375.219 225.287, 371.533 220.455 C 367.465 215.121, 364.561 213.725, 354.630 212.331 C 349.609 211.627, 343.475 210.548, 341 209.936 C 331.872 207.675, 328.267 207.633, 327.121 209.775 M 283.201 220.258 C 282.539 221.055, 282.040 222.786, 282.091 224.104 C 282.142 225.422, 281.641 229.425, 280.978 233 C 279.316 241.959, 279.160 243.084, 277.931 255 C 277.335 260.775, 276.518 266.175, 276.114 267 C 275.711 267.825, 275.275 270.278, 275.145 272.452 C 275.016 274.625, 274.425 276.988, 273.833 277.702 C 272.076 279.819, 274.451 281.614, 280.661 282.861 C 284.483 283.628, 286.696 283.667, 287.523 282.981 C 288.770 281.946, 289.761 276.794, 290.597 267 C 290.855 263.975, 291.354 260.825, 291.705 260 C 292.056 259.175, 292.393 257.600, 292.455 256.500 C 292.517 255.400, 292.956 253.874, 293.430 253.108 C 294.271 251.753, 295.317 243.974, 296.636 229.279 C 297.280 222.110, 297.265 222.051, 294.583 221.032 C 289.374 219.051, 284.479 218.718, 283.201 220.258 M 383.700 219.677 C 383.391 220.177, 382.894 222.366, 382.596 224.543 C 382.297 226.719, 381.765 230.354, 381.412 232.620 C 380.713 237.114, 381.472 238.124, 385.932 238.641 C 393.742 239.545, 396.499 240.587, 396.253 242.541 C 396.118 243.619, 395.774 246.750, 395.489 249.500 C 395.204 252.250, 394.685 255.850, 394.336 257.500 C 393.986 259.150, 393.594 261.400, 393.464 262.500 C 392.954 266.829, 390.852 280.791, 389.926 286 C 389.389 289.025, 388.540 294.568, 388.040 298.318 C 387.540 302.068, 386.613 305.761, 385.980 306.525 C 385.346 307.288, 385.097 308.348, 385.427 308.881 C 385.756 309.414, 385.505 310.993, 384.868 312.391 C 383.207 316.036, 385.610 319.395, 390.114 319.722 C 402.433 320.618, 401.315 320.914, 402.280 316.500 C 402.761 314.300, 403.414 311.825, 403.731 311 C 404.048 310.175, 404.198 308.645, 404.065 307.599 C 403.932 306.554, 404.263 304.754, 404.801 303.599 C 405.338 302.445, 406.307 297.225, 406.954 292 C 407.601 286.775, 408.791 279.183, 409.599 275.129 C 410.406 271.075, 411.287 265.124, 411.555 261.904 C 412.095 255.421, 413.684 246.320, 414.510 244.984 C 415.107 244.018, 418.594 244.251, 421.250 245.434 C 422.212 245.863, 423.732 245.933, 424.627 245.590 C 425.521 245.246, 426.812 245.429, 427.494 245.995 C 429.476 247.640, 430.631 245.243, 431.828 237 C 433.156 227.848, 432.649 227.117, 424.408 226.308 C 421.159 225.989, 417.685 225.309, 416.690 224.796 C 415.694 224.284, 411.869 223.475, 408.190 222.999 C 404.510 222.522, 399.475 221.638, 397 221.034 C 389.720 219.256, 384.301 218.704, 383.700 219.677 M 491.597 223.844 C 491.251 224.404, 491.455 225.163, 492.050 225.531 C 493.588 226.481, 494.580 225.180, 493.296 223.896 C 492.578 223.178, 492.019 223.161, 491.597 223.844 M 342.652 228.913 C 342.506 229.236, 342.281 231.075, 342.151 233 C 342.022 234.925, 341.449 238.879, 340.879 241.787 C 339.261 250.040, 339.108 253.849, 340.353 254.826 C 342.318 256.366, 351.741 257.024, 352.788 255.694 C 353.681 254.559, 354.668 249.698, 355.568 242 C 355.793 240.075, 356.221 237.073, 356.519 235.328 C 356.862 233.320, 356.591 231.852, 355.781 231.328 C 354.053 230.211, 342.985 228.175, 342.652 228.913 M 440.331 231.163 C 439.316 232.445, 438.098 238.073, 437.429 244.567 C 437.255 246.253, 436.384 251.878, 435.492 257.067 C 434.601 262.255, 433.689 268.075, 433.466 270 C 432.950 274.451, 431.025 286.726, 430.330 290 C 430.038 291.375, 429.650 294.525, 429.467 297 C 429.284 299.475, 428.603 303.525, 427.953 306 C 427.303 308.475, 426.634 312.075, 426.467 314 C 426.300 315.925, 425.845 319.405, 425.456 321.733 C 424.666 326.471, 424.938 326.726, 431.500 327.406 C 433.700 327.633, 436.473 328.128, 437.662 328.504 C 439.519 329.091, 440.120 328.517, 441.925 324.436 C 443.081 321.823, 444.063 317.844, 444.107 315.593 C 444.151 313.342, 444.570 310.150, 445.039 308.500 C 445.834 305.698, 446.198 303.800, 447.919 293.500 C 448.385 290.716, 449.030 289.603, 450.044 289.839 C 450.845 290.026, 452.513 290.289, 453.752 290.424 C 454.990 290.559, 456.302 290.969, 456.668 291.335 C 457.034 291.701, 458.328 292, 459.544 292 C 463.101 292, 464.034 294.025, 463.125 299.775 C 462.677 302.605, 461.836 305.500, 461.254 306.210 C 460.673 306.919, 459.728 310.200, 459.153 313.500 C 458.579 316.800, 457.615 321.856, 457.012 324.736 C 455.565 331.638, 456.584 333.519, 461.884 333.730 C 464.108 333.819, 466.797 334.356, 467.859 334.925 C 469.269 335.679, 470.080 335.609, 470.863 334.665 C 472.089 333.188, 475.188 321.485, 475.131 318.546 C 475.111 317.471, 475.489 316.115, 475.973 315.533 C 476.456 314.950, 477.400 312.229, 478.070 309.487 C 478.740 306.744, 479.690 303.984, 480.182 303.353 C 480.673 302.722, 481.188 299.572, 481.326 296.353 C 481.464 293.134, 482.120 289.521, 482.784 288.325 C 483.447 287.129, 483.932 285.104, 483.861 283.825 C 483.789 282.546, 484.675 275.875, 485.828 269 C 489.812 245.259, 489.976 243.823, 488.930 241.870 C 488.380 240.841, 487.158 239.993, 486.215 239.985 C 485.272 239.977, 482.530 239.285, 480.122 238.446 C 474.390 236.450, 472.524 237.957, 471.653 245.281 C 470.292 256.730, 467.465 272.868, 466.684 273.649 C 466.511 273.822, 463.249 273.184, 459.435 272.232 L 452.500 270.500 452.756 266 C 453.028 261.222, 456.455 239.913, 457.511 236.430 C 458.514 233.123, 456.288 232.047, 444.944 230.357 C 442.622 230.011, 441.022 230.290, 440.331 231.163 M 211.635 307.781 C 211.282 308.352, 211.267 309.531, 211.601 310.401 C 212.334 312.313, 209.527 313.658, 207.737 312.253 C 205.396 310.414, 200.392 310.084, 197.514 311.577 C 195.964 312.381, 193.929 312.795, 192.990 312.497 C 192.051 312.199, 190.730 312.620, 190.055 313.434 C 188.692 315.076, 189.498 317.203, 191.325 316.783 C 192.611 316.488, 193.019 317.787, 192.261 319.763 C 191.994 320.457, 192.332 321.695, 193.011 322.513 C 193.831 323.502, 193.919 324.419, 193.271 325.250 C 191.951 326.945, 192.400 335.573, 193.903 337.383 C 194.853 338.528, 194.846 339.274, 193.868 340.840 C 192.901 342.389, 192.888 343.160, 193.811 344.272 C 194.577 345.195, 194.778 347.341, 194.375 350.282 C 193.866 353.996, 194.171 355.541, 196.001 358.501 C 197.672 361.205, 197.963 362.437, 197.127 363.273 C 195.448 364.952, 195.692 365.607, 199.250 368.980 C 201.555 371.166, 203.372 372.014, 205.500 371.895 C 207.150 371.803, 209.625 372.186, 211 372.746 C 212.375 373.306, 214.175 373.426, 215 373.013 C 218.359 371.334, 231.584 369.625, 233.251 370.655 C 233.907 371.061, 239.054 371.528, 244.688 371.695 C 254.073 371.971, 255.021 371.829, 256.001 369.998 C 256.589 368.899, 257.899 368, 258.913 368 C 262.932 368, 263.440 365.668, 264.574 342 C 265.335 326.126, 265.014 319.951, 263.292 317.323 C 262.337 315.865, 261.115 315.126, 260.225 315.467 C 259.412 315.779, 258.241 315.617, 257.623 315.107 C 257.005 314.597, 253.714 313.991, 250.309 313.761 C 246.903 313.531, 243.379 312.730, 242.477 311.981 C 241.185 310.909, 240.434 310.872, 238.932 311.810 C 236.502 313.328, 234.480 313.317, 232.008 311.773 C 230.467 310.810, 229.353 310.806, 226.848 311.751 C 225.048 312.431, 223.183 312.587, 222.577 312.109 C 221.984 311.642, 219.825 310.959, 217.777 310.590 C 215.730 310.221, 213.654 309.205, 213.166 308.331 C 212.615 307.348, 212.032 307.139, 211.635 307.781 M 283.225 317.709 C 279.165 318.488, 277.923 321.838, 278.436 330.617 C 278.692 334.977, 278.506 339.182, 278.023 339.962 C 277.478 340.845, 277.670 342.396, 278.533 344.064 C 279.296 345.539, 279.640 347.026, 279.298 347.368 C 278.455 348.211, 278 360.191, 278.764 361.428 C 279.831 363.153, 279.942 367.365, 278.953 368.557 C 278.428 369.189, 278.220 372.298, 278.489 375.465 C 278.759 378.633, 278.646 381.736, 278.240 382.362 C 277.833 382.988, 277.441 386.875, 277.369 391 C 277.179 401.936, 276.172 416.161, 275.544 416.790 C 275.245 417.089, 274.986 419.396, 274.968 421.917 C 274.951 424.438, 274.276 427.374, 273.468 428.441 C 272.661 429.509, 272 432.321, 272 434.691 C 272 437.216, 271.534 439, 270.875 439 C 270.182 439, 269.960 440.055, 270.297 441.750 C 270.598 443.262, 270.272 445.566, 269.573 446.870 C 268.826 448.262, 268.564 450.530, 268.937 452.370 C 269.462 454.956, 270.220 455.661, 273.295 456.429 C 276.662 457.268, 277.304 457.083, 280.009 454.491 C 281.654 452.915, 283 450.768, 283 449.719 C 283 448.664, 283.879 447.583, 284.967 447.298 C 286.049 447.016, 287.223 445.820, 287.577 444.642 C 287.931 443.464, 289.971 440.394, 292.111 437.821 C 294.250 435.247, 296 432.490, 296 431.693 C 296 430.897, 296.636 429.717, 297.414 429.072 C 298.191 428.426, 299.769 425.896, 300.919 423.449 C 302.069 421.002, 303.474 419, 304.041 419 C 304.607 419, 305.897 417.087, 306.906 414.750 C 307.915 412.413, 309.699 409.643, 310.870 408.595 C 312.042 407.547, 313 406.258, 313 405.729 C 313 404.660, 319.118 395.880, 322.567 392 C 323.789 390.625, 325.093 388.058, 325.464 386.295 C 325.863 384.402, 326.927 382.840, 328.066 382.479 C 329.126 382.143, 331.124 379.938, 332.506 377.581 C 333.887 375.223, 335.914 372.483, 337.009 371.492 C 338.104 370.501, 339 368.713, 339 367.519 C 339 366.325, 340.125 364.292, 341.500 363 C 342.875 361.708, 344 360.133, 344 359.500 C 344 358.867, 345.183 357.258, 346.629 355.924 C 348.075 354.591, 349.871 352.150, 350.621 350.500 C 351.371 348.850, 353.418 345.588, 355.170 343.251 L 358.356 339.002 356.064 334.414 C 354.276 330.834, 353.349 329.937, 351.842 330.331 C 350.781 330.609, 348.739 330.227, 347.304 329.483 C 345.663 328.631, 342.993 328.327, 340.098 328.661 C 336.219 329.108, 334.875 328.763, 331.500 326.453 C 329.237 324.904, 326.232 323.749, 324.580 323.795 C 322.975 323.840, 320.383 323.215, 318.820 322.407 C 317.258 321.599, 313.847 321, 311.240 321.075 C 305.781 321.232, 289.521 318.864, 288.413 317.750 C 287.641 316.975, 287.075 316.970, 283.225 317.709 M 380.263 336.059 C 377.449 337.379, 375.817 338.882, 375.402 340.534 C 375.059 341.903, 373.478 343.948, 371.889 345.079 C 370.300 346.211, 369 347.741, 369 348.481 C 369 349.220, 366.829 352.452, 364.175 355.663 C 359.863 360.879, 354.278 368.436, 351.500 372.815 C 350.950 373.682, 349.667 375.315, 348.648 376.445 C 344.935 380.565, 342.215 384.556, 341.482 386.961 C 341.069 388.315, 339.442 390.712, 337.866 392.288 C 336.289 393.864, 335 395.793, 335 396.574 C 335 397.355, 333.490 399.683, 331.644 401.747 C 326.944 407.004, 325.723 409.712, 326.409 413.365 C 327.010 416.570, 330.296 419.553, 332.039 418.476 C 332.565 418.151, 334.234 418.546, 335.748 419.353 C 340.131 421.693, 345.012 423.322, 345.669 422.664 C 346.002 422.331, 347.549 422.967, 349.107 424.076 C 350.934 425.377, 354.015 426.227, 357.783 426.470 C 361.353 426.700, 365.018 427.668, 367.206 428.959 C 369.175 430.121, 371.172 430.981, 371.643 430.872 C 372.805 430.601, 378.261 432.096, 379.500 433.025 C 380.050 433.438, 382.525 434.057, 385 434.402 C 393.130 435.536, 393.590 435.628, 394.800 436.377 C 396.440 437.390, 397.726 436.430, 399.608 432.791 C 401.047 430.009, 401.049 429.767, 399.633 430.311 C 397.318 431.199, 396.406 428.908, 398.473 427.396 C 399.466 426.670, 399.994 425.427, 399.669 424.580 C 398.997 422.829, 400.552 421.465, 401.490 422.984 C 401.835 423.543, 402.836 424, 403.714 424 C 405.098 424, 405.066 423.731, 403.479 421.976 C 402.185 420.547, 401.959 419.641, 402.711 418.889 C 403.462 418.138, 403.971 418.145, 404.446 418.913 C 405.412 420.476, 408 420.253, 408 418.607 C 408 417.841, 407.325 416.955, 406.500 416.638 C 405.675 416.322, 405 415.551, 405 414.924 C 405 414.298, 405.675 414.045, 406.500 414.362 C 409.013 415.326, 408.178 413.328, 404.923 410.589 C 403.231 409.165, 401.016 408, 400 408 C 398.984 408, 396.816 406.875, 395.182 405.500 C 393.548 404.125, 391.084 403, 389.707 403 C 388.330 403, 384.682 401.674, 381.602 400.053 C 378.521 398.433, 376 397.318, 376 397.576 C 376 397.835, 374.988 397.417, 373.750 396.649 C 372.512 395.880, 369.343 394.641, 366.707 393.895 C 364.071 393.149, 360.945 391.506, 359.760 390.244 L 357.605 387.951 359.793 385.762 C 362.288 383.268, 370.609 382.546, 371.457 384.750 C 371.721 385.438, 372.928 386, 374.140 386 C 375.351 386, 377.149 386.730, 378.135 387.622 C 379.121 388.515, 381.954 389.623, 384.430 390.086 C 386.907 390.548, 390.722 392.111, 392.909 393.558 C 395.095 395.005, 397.311 395.926, 397.832 395.604 C 398.354 395.281, 400.934 396.222, 403.567 397.694 C 407.060 399.645, 409.862 400.393, 413.927 400.457 C 416.992 400.505, 420.092 400.917, 420.817 401.373 C 421.656 401.900, 422.672 401.530, 423.621 400.350 C 425.774 397.674, 428.952 390.791, 428.978 388.750 C 429.006 386.501, 430.619 386.497, 431.875 388.742 C 433.440 391.537, 434.479 389.263, 432.945 386.398 C 431.696 384.064, 431.750 383.656, 433.473 382.396 C 434.647 381.537, 435.751 381.351, 436.316 381.916 C 437.473 383.073, 443.991 374.918, 443.044 373.500 C 440.681 369.965, 445.098 365.484, 449.785 366.661 C 451.901 367.192, 452.041 366.996, 451.421 364.371 C 450.320 359.707, 450.387 359.500, 453 359.500 C 455.200 359.500, 455.494 359.080, 455.449 356.004 C 455.411 353.393, 454.821 352.220, 453.115 351.370 C 451.859 350.744, 450.330 349.730, 449.716 349.116 C 449.102 348.502, 447.655 348, 446.500 348 C 445.345 348, 443.939 347.539, 443.376 346.976 C 442.813 346.413, 440.692 345.890, 438.664 345.814 C 436.635 345.737, 434.471 345.068, 433.855 344.325 C 433.175 343.505, 432.296 343.319, 431.617 343.851 C 429.988 345.129, 426.726 344.929, 425 343.445 C 423.454 342.116, 420.362 341.141, 416 340.607 C 411.796 340.091, 405.118 338, 404.503 337.006 C 404.184 336.489, 402.671 336.316, 401.142 336.622 C 399.595 336.931, 396.673 336.472, 394.558 335.589 C 389.553 333.498, 385.438 333.633, 380.263 336.059 M 242.470 383.049 C 242.139 383.584, 240.661 384.018, 239.184 384.014 C 234.782 384, 227.576 385.164, 226.448 386.071 C 225.275 387.013, 221.717 386.423, 218.149 384.694 C 216.171 383.735, 215.566 383.867, 214.329 385.527 C 213.520 386.612, 212.393 387.372, 211.824 387.215 C 211.255 387.058, 210.182 387.434, 209.439 388.051 C 208.696 388.668, 207.605 388.874, 207.016 388.510 C 206.426 388.146, 205.072 388.894, 204.005 390.174 C 201.902 392.697, 201.389 396.504, 203.016 397.510 C 203.575 397.856, 203.782 398.544, 203.475 399.040 C 203.169 399.536, 203.511 401.192, 204.236 402.721 C 204.961 404.249, 205.505 407.075, 205.446 409 C 205.386 410.925, 205.751 413.043, 206.255 413.706 C 206.759 414.370, 206.922 415.317, 206.616 415.812 C 206.310 416.307, 205.822 418.690, 205.531 421.106 C 205.240 423.523, 204.750 426.695, 204.442 428.155 C 204.135 429.615, 204.299 431.067, 204.807 431.381 C 205.316 431.695, 205.515 433.087, 205.250 434.474 C 204.802 436.815, 204.985 436.953, 207.792 436.392 C 210.186 435.913, 211.043 436.212, 211.909 437.831 C 212.752 439.406, 213.961 439.861, 217.177 439.817 C 219.923 439.779, 221.756 440.314, 222.536 441.380 C 223.187 442.271, 224.930 443, 226.408 443 C 227.887 443, 231.558 444.575, 234.567 446.500 C 237.620 448.453, 241.330 450, 242.960 450 C 244.567 450, 246.174 450.472, 246.530 451.049 C 246.975 451.769, 247.605 451.742, 248.545 450.962 C 249.297 450.338, 250.313 450.076, 250.803 450.378 C 252.531 451.446, 257.249 445.361, 256.507 443.022 C 256.056 441.602, 256.406 440.209, 257.525 438.973 C 258.462 437.937, 259.299 435.831, 259.383 434.294 C 259.468 432.757, 259.884 430.951, 260.308 430.281 C 260.733 429.610, 260.958 426.406, 260.810 423.161 C 260.641 419.473, 261.018 416.683, 261.816 415.722 C 262.518 414.876, 263.035 412.230, 262.965 409.842 C 262.894 407.454, 263.014 404.012, 263.230 402.192 C 263.446 400.373, 263.333 398.706, 262.979 398.487 C 262.625 398.268, 262.415 395.032, 262.513 391.295 C 262.691 384.433, 261.832 381.777, 259.677 382.530 C 256.890 383.505, 247.585 383.793, 245.426 382.972 C 243.969 382.418, 242.841 382.448, 242.470 383.049 M 209.553 412.915 C 209.231 413.436, 209.394 414.125, 209.915 414.447 C 210.436 414.769, 211.125 414.606, 211.447 414.085 C 211.769 413.564, 211.606 412.875, 211.085 412.553 C 210.564 412.231, 209.875 412.394, 209.553 412.915 M 206.592 429.852 C 205.808 431.119, 210.664 435.326, 211.975 434.516 C 212.794 434.009, 212.769 433.426, 211.881 432.356 C 210.120 430.235, 207.207 428.856, 206.592 429.852 M 315.920 430.530 C 314.589 431.291, 312.500 432.368, 311.278 432.922 C 310.056 433.476, 308.774 435.052, 308.430 436.424 C 308.085 437.796, 307.126 439.480, 306.298 440.168 C 305.040 441.212, 302.905 445.136, 302.581 447 C 302.533 447.275, 301.257 449.117, 299.747 451.094 C 298.236 453.071, 296.988 455.096, 296.973 455.594 C 296.958 456.092, 295.688 458.017, 294.150 459.871 C 291.444 463.133, 291.403 463.352, 292.885 466.621 C 293.728 468.480, 294.931 470, 295.559 470 C 296.188 470, 298.828 471.130, 301.427 472.512 C 304.025 473.894, 306.520 474.797, 306.970 474.519 C 307.983 473.893, 314.634 476.598, 315.491 477.985 C 315.836 478.543, 317.126 479, 318.359 479 C 319.592 479, 321.027 479.412, 321.550 479.917 C 323.223 481.531, 332.243 486, 333.828 486 C 335.583 486, 341.670 487.826, 344.236 489.123 C 345.191 489.605, 347.104 490, 348.486 490 C 349.869 490, 351.900 490.900, 353 492 C 354.100 493.100, 356.055 494, 357.345 494 C 358.635 494, 360.497 494.891, 361.482 495.980 C 362.468 497.070, 364.900 498.237, 366.887 498.574 C 368.874 498.911, 371.719 500.045, 373.210 501.093 C 374.700 502.142, 376.522 503, 377.260 503 C 377.997 503, 379.101 503.501, 379.713 504.113 C 380.888 505.288, 383 504.535, 383 502.941 C 383 502.423, 382.380 502, 381.622 502 C 380.865 502, 379.750 501.404, 379.146 500.676 C 377.787 499.039, 379.506 497, 382.245 497 C 383.841 497, 383.992 496.493, 383.359 493.250 C 382.956 491.188, 382.682 488.825, 382.749 488 C 383.458 479.346, 383.216 476.878, 381.536 475.650 C 379.853 474.419, 379.899 474.120, 382.378 470.194 C 383.820 467.909, 385 465.650, 385 465.174 C 385 464.697, 385.716 462.872, 386.591 461.117 C 388.052 458.189, 388.048 457.722, 386.539 455.419 C 385.635 454.040, 383.681 452.481, 382.198 451.956 C 380.714 451.431, 378.825 450.550, 378 449.998 C 377.175 449.447, 375.531 448.574, 374.347 448.059 C 373.163 447.545, 371.899 446.646, 371.538 446.062 C 371.177 445.478, 369.868 445, 368.628 445 C 367.389 445, 364.042 443.875, 361.192 442.500 C 358.342 441.125, 355.388 440, 354.627 440 C 353.867 440, 352.685 439.325, 352 438.500 C 351.315 437.675, 349.712 437, 348.437 437 C 347.161 437, 345.846 436.561, 345.515 436.024 C 345.183 435.487, 342.936 435.133, 340.521 435.238 C 337.576 435.366, 335.513 434.869, 334.250 433.726 C 333.215 432.790, 330.823 431.754, 328.934 431.425 C 327.045 431.096, 324.825 430.563, 324 430.241 C 321.016 429.075, 318.293 429.173, 315.920 430.530 M 193.103 454.074 C 191.921 455.673, 190.665 458.425, 190.312 460.189 C 189.959 461.953, 188.620 464.945, 187.335 466.838 C 186.051 468.730, 185 471.090, 185 472.081 C 185 473.071, 184.536 474.169, 183.968 474.520 C 183.064 475.078, 177.733 485.804, 174.782 493 C 174.218 494.375, 173.098 496.759, 172.294 498.297 C 170.995 500.782, 171.011 501.368, 172.439 503.547 C 173.430 505.060, 175.091 506.057, 176.773 506.148 C 178.273 506.229, 180.237 506.342, 181.137 506.398 C 182.038 506.454, 183.613 507.230, 184.637 508.123 C 185.662 509.015, 188.525 510.017, 191 510.348 C 200.666 511.643, 202.398 512.048, 203.922 513.374 C 204.790 514.129, 207.300 515.043, 209.500 515.405 C 213.027 515.985, 215.520 516.813, 223.500 520.051 C 224.600 520.498, 227.601 521.141, 230.168 521.480 C 232.736 521.820, 235.351 522.718, 235.979 523.475 C 236.755 524.410, 238.709 524.734, 242.062 524.485 C 248.376 524.015, 248.692 523.781, 249.500 519 C 249.871 516.806, 250.585 514.757, 251.087 514.446 C 251.589 514.136, 252 513.212, 252 512.393 C 252 511.574, 252.889 509.064, 253.975 506.816 C 255.061 504.567, 255.708 502.336, 255.412 501.857 C 255.116 501.378, 255.789 499.701, 256.907 498.130 C 258.026 496.559, 258.674 495.007, 258.347 494.680 C 258.020 494.353, 258.925 491.157, 260.358 487.578 C 264.917 476.190, 262.616 472.685, 248.177 469.021 C 246.349 468.557, 244.087 467.484, 243.151 466.636 C 242.214 465.789, 239.465 464.778, 237.041 464.391 C 234.618 464.003, 230.739 462.407, 228.422 460.843 C 226.106 459.279, 223.105 458, 221.754 458 C 220.403 458, 217.318 456.949, 214.899 455.664 C 212.480 454.379, 209.911 453.525, 209.192 453.767 C 208.473 454.008, 207.123 453.520, 206.192 452.682 C 205.189 451.779, 202.616 451.160, 199.876 451.162 C 195.934 451.166, 194.936 451.595, 193.103 454.074 M 278.323 483.250 C 276.420 485.365, 273.512 493.733, 274.190 495.145 C 274.361 495.500, 273.773 496.625, 272.884 497.645 C 271.198 499.582, 269.529 504.616, 269.875 506.726 C 269.986 507.400, 269.384 509.290, 268.538 510.926 C 267.692 512.562, 267 515.054, 267 516.464 C 267 517.874, 266.592 519.809, 266.094 520.764 C 264.717 523.400, 262.608 531.326, 262.882 532.830 C 263.015 533.562, 262.387 535.286, 261.486 536.661 C 260.585 538.036, 260.115 539.857, 260.441 540.708 C 260.768 541.558, 260.539 542.850, 259.934 543.579 C 259.329 544.308, 258.705 546.087, 258.546 547.533 C 258.387 548.978, 257.263 551.505, 256.048 553.149 C 254.833 554.792, 254.080 556.767, 254.376 557.537 C 254.671 558.306, 254.513 559.183, 254.024 559.485 C 253.535 559.788, 252.606 562.615, 251.959 565.767 C 251.312 568.920, 250.433 571.950, 250.004 572.500 C 249.576 573.050, 249 575.300, 248.724 577.500 C 248.449 579.700, 247.445 584.425, 246.494 588 C 245.543 591.575, 244.677 595.278, 244.569 596.230 C 244.462 597.181, 244.065 598.268, 243.687 598.646 C 242.638 599.695, 242.869 603.801, 244.016 604.510 C 244.575 604.856, 244.797 605.519, 244.510 605.984 C 243.894 606.981, 250.837 611.497, 251.684 610.649 C 252.002 610.331, 253.204 610.730, 254.354 611.535 C 255.504 612.341, 257.400 613, 258.568 613 C 259.735 613, 261.505 613.900, 262.500 615 C 263.495 616.100, 265.478 617.007, 266.905 617.015 C 270.084 617.034, 276.644 619.244, 278.232 620.832 C 278.874 621.474, 280.451 622, 281.735 622 C 283.020 622, 285.067 622.642, 286.285 623.427 C 289.314 625.378, 293.650 624.332, 295.804 621.130 C 297.730 618.266, 300.193 611.694, 299.845 610.343 C 299.726 609.879, 300.387 607.758, 301.314 605.628 C 302.241 603.498, 303 600.776, 303 599.578 C 303 598.380, 303.432 596.968, 303.961 596.439 C 304.489 595.911, 305.124 593.908, 305.370 591.989 C 305.617 590.070, 306.760 586.325, 307.910 583.667 C 309.059 581.009, 310.014 578.084, 310.032 577.167 C 310.049 576.250, 310.717 574.637, 311.515 573.582 C 312.612 572.132, 312.689 571.331, 311.832 570.297 C 310.957 569.244, 311.170 568.491, 312.760 567.009 C 313.894 565.953, 315.126 563.703, 315.498 562.010 C 316.946 555.419, 323.994 554.526, 334.630 559.588 C 337.451 560.931, 340.492 561.748, 341.388 561.405 C 342.283 561.061, 344.573 561.518, 346.475 562.421 C 348.377 563.324, 351.815 564.249, 354.114 564.478 C 356.413 564.707, 358.768 565.368, 359.347 565.947 C 359.926 566.526, 362.035 567, 364.033 567 C 366.032 567, 367.992 567.325, 368.390 567.723 C 368.787 568.121, 370.701 568.547, 372.642 568.672 C 374.583 568.796, 376.722 569.354, 377.395 569.913 C 379.022 571.263, 384.460 569.770, 384.635 567.925 C 384.709 567.141, 384.890 566.050, 385.037 565.500 C 385.184 564.950, 385.392 564.050, 385.499 563.500 C 385.606 562.950, 386.050 561.675, 386.486 560.667 C 387.035 559.396, 386.665 558.221, 385.283 556.838 C 383.565 555.120, 383.407 554.201, 384.150 550.228 C 384.624 547.690, 384.718 544.687, 384.358 543.556 C 383.438 540.661, 382.878 535.231, 382.987 530.256 C 383.109 524.641, 377.536 518.562, 372.108 518.390 C 370.054 518.325, 367.992 517.512, 367.038 516.390 C 364.538 513.450, 359.270 510, 357.283 510 C 356.293 510, 353.371 508.875, 350.788 507.500 C 348.205 506.125, 344.943 505, 343.538 505 C 342.134 505, 338.851 503.910, 336.243 502.579 C 330.268 499.528, 327.834 498.631, 326.237 498.889 C 325.542 499.002, 324.722 498.438, 324.414 497.637 C 323.926 496.364, 320.531 494.869, 317.500 494.591 C 316.950 494.541, 315.375 493.738, 314 492.807 C 312.625 491.876, 309.250 490.549, 306.500 489.858 C 303.750 489.167, 300.790 488.017, 299.921 487.301 C 299.053 486.585, 297.451 486, 296.362 486 C 295.273 486, 293.509 485.339, 292.441 484.532 C 291.374 483.724, 289.514 483.049, 288.309 483.032 C 287.104 483.014, 285.840 482.550, 285.500 482 C 284.409 480.235, 280.411 480.931, 278.323 483.250 M 230.553 487.915 C 230.231 488.436, 230.394 489.125, 230.915 489.447 C 231.436 489.769, 232.125 489.606, 232.447 489.085 C 232.769 488.564, 232.606 487.875, 232.085 487.553 C 231.564 487.231, 230.875 487.394, 230.553 487.915 M 167.283 519.417 C 165.712 520.740, 163.913 523.755, 163.152 526.339 C 162.410 528.858, 161.173 531.442, 160.402 532.082 C 159.631 532.721, 158.993 534.427, 158.985 535.872 C 158.969 538.668, 157.248 544.054, 155.196 547.729 C 154.498 548.980, 154.237 551.096, 154.602 552.548 C 155.492 556.096, 162.132 560.399, 165.672 559.722 C 167.238 559.423, 169.362 559.846, 170.703 560.725 C 172.016 561.585, 175.704 562.339, 179.198 562.461 C 184.278 562.638, 185.628 563.060, 186.809 564.838 C 187.598 566.027, 188.977 567.007, 189.872 567.015 C 190.767 567.023, 193.442 567.706, 195.816 568.533 C 198.190 569.359, 200.576 569.762, 201.117 569.428 C 201.658 569.093, 203.696 569.577, 205.645 570.502 C 207.594 571.427, 210.018 571.967, 211.030 571.702 C 212.042 571.438, 213.811 571.880, 214.961 572.685 C 216.111 573.491, 217.602 573.963, 218.276 573.736 C 218.949 573.509, 220.948 573.925, 222.718 574.661 C 228.390 577.021, 232.566 576.418, 235.089 572.875 C 236.431 570.990, 237.265 568.425, 237.189 566.414 C 237.120 564.580, 237.499 562.809, 238.032 562.480 C 238.564 562.151, 239.036 560.896, 239.080 559.691 C 239.124 558.486, 239.925 555.250, 240.859 552.500 C 242.334 548.158, 242.380 547.040, 241.208 544 C 239.850 540.477, 234.854 537, 231.150 537 C 230.178 537, 228.509 536.339, 227.441 535.532 C 226.374 534.724, 224.698 534.049, 223.718 534.032 C 222.738 534.014, 220.263 533.253, 218.218 532.340 C 216.173 531.428, 214.275 530.633, 214 530.575 C 213.725 530.517, 212.938 530.112, 212.250 529.676 C 211.563 529.239, 211 529.203, 211 529.596 C 211 529.989, 210.052 529.453, 208.893 528.405 C 207.733 527.357, 205.371 526.450, 203.643 526.390 C 198.289 526.203, 191.374 524.392, 187.860 522.259 C 185.568 520.868, 183.464 520.380, 181.241 520.724 C 179.448 521.002, 177.409 520.754, 176.708 520.173 C 173.201 517.262, 170.134 517.016, 167.283 519.417 M 214.500 524 C 214.840 524.550, 215.316 525, 215.559 525 C 215.802 525, 216 524.550, 216 524 C 216 523.450, 215.523 523, 214.941 523 C 214.359 523, 214.160 523.450, 214.500 524 M 153.529 572.156 C 151.202 573.986, 150.874 574.836, 151.354 577.793 C 151.665 579.708, 151.399 583.218, 150.764 585.593 C 149.759 589.350, 149.840 590.165, 151.385 591.873 C 153.558 594.274, 153.299 602.500, 151.051 602.500 C 148.652 602.500, 148.775 604.830, 151.192 605.173 C 152.735 605.392, 153.536 606.208, 153.608 607.634 C 153.709 609.635, 155.496 615.541, 158.641 624.270 C 159.389 626.344, 160 628.829, 160 629.792 C 160 630.756, 161.393 633.235, 163.096 635.300 C 164.799 637.366, 165.958 639.667, 165.672 640.413 C 165.385 641.160, 166.517 643.060, 168.187 644.635 C 171.616 647.871, 182.123 661.582, 183.217 664.248 C 183.611 665.209, 186.354 667.066, 189.313 668.375 C 192.271 669.683, 194.954 671.439, 195.276 672.276 C 195.597 673.114, 197.579 674.362, 199.680 675.051 C 204.112 676.504, 208.299 679.034, 207.535 679.799 C 207.245 680.089, 208.396 681.171, 210.093 682.203 C 212.408 683.610, 212.914 684.398, 212.121 685.354 C 210.465 687.350, 219.325 694.386, 222.493 693.591 C 223.804 693.262, 225.157 693.446, 225.499 693.999 C 225.915 694.672, 226.757 694.665, 228.040 693.979 C 230.373 692.730, 235 693.732, 235 695.486 C 235 697.075, 232.172 699.506, 231.318 698.651 C 230.969 698.303, 230.148 698.462, 229.494 699.005 C 228.671 699.688, 227.746 699.377, 226.497 697.996 C 224.363 695.639, 223.056 695.507, 220.479 697.392 C 218.850 698.583, 218.771 699.019, 219.929 700.414 C 220.712 701.357, 222.045 701.803, 223.090 701.471 C 224.173 701.128, 225.693 701.693, 226.882 702.882 C 228.507 704.507, 229.067 704.624, 229.975 703.530 C 230.899 702.417, 231.533 702.419, 233.792 703.545 C 235.281 704.287, 238.075 705.061, 240 705.264 C 244.649 705.755, 248.291 707.800, 247.621 709.545 C 246.848 711.561, 248.558 712.237, 250.009 710.489 C 250.689 709.670, 252.072 709, 253.083 709 C 254.095 709, 255.792 708.066, 256.856 706.925 C 259.057 704.561, 261 706.090, 258.944 708.568 C 257.407 710.419, 258.587 711.813, 260.267 710.132 C 260.945 709.452, 261.500 707.232, 261.500 705.198 C 261.500 702.328, 261.867 701.560, 263.140 701.769 C 267.103 702.418, 274.330 684.558, 270.950 682.469 C 270.290 682.061, 270.791 680.645, 272.295 678.660 C 274.881 675.249, 275.958 671.791, 276.398 665.485 C 276.552 663.276, 277.129 660.576, 277.680 659.485 C 278.231 658.393, 279.267 654.284, 279.982 650.352 C 281.228 643.505, 281.189 643.075, 279.073 640.102 C 277.858 638.396, 276.280 637, 275.567 637 C 274.853 637, 273.144 636.115, 271.769 635.033 C 270.393 633.951, 269.024 633.309, 268.727 633.606 C 268.429 633.904, 266.863 633.463, 265.246 632.627 C 263.629 631.791, 261.417 631.340, 260.330 631.624 C 259.243 631.908, 256.702 631.167, 254.684 629.976 C 252.666 628.786, 249.099 627.636, 246.758 627.421 C 243.767 627.146, 241.838 626.274, 240.276 624.489 C 238.654 622.636, 237.426 622.106, 235.737 622.530 C 234.464 622.849, 232.089 622.563, 230.461 621.894 C 228.832 621.225, 227.176 620.745, 226.780 620.829 C 224.599 621.287, 224.019 616.761, 225.492 610.770 C 226.340 607.321, 227.261 602.989, 227.540 601.141 C 227.818 599.294, 228.488 596.957, 229.028 595.948 C 230.815 592.608, 224.921 584.695, 221.992 586.505 C 221.469 586.828, 220.085 586.581, 218.916 585.955 C 217.747 585.329, 215.375 584.660, 213.645 584.468 C 206.198 583.641, 203.613 582.959, 201.840 581.355 C 200.619 580.250, 198.012 579.582, 194.432 579.456 C 190.248 579.309, 188.325 578.714, 186.502 577.002 C 184.873 575.472, 183.380 574.929, 181.881 575.321 C 180.663 575.639, 177.279 575.061, 174.362 574.036 C 171.445 573.011, 168.196 572.397, 167.142 572.673 C 166.088 572.949, 164.936 572.705, 164.581 572.131 C 164.226 571.557, 163.321 571.323, 162.569 571.612 C 161.817 571.900, 160.905 571.656, 160.542 571.068 C 159.487 569.361, 156.491 569.826, 153.529 572.156 M 330.036 571.841 C 328.148 572.854, 326.242 574.316, 325.801 575.091 C 324.718 576.994, 322.639 582.263, 322.483 583.500 C 322.414 584.050, 321.602 586.242, 320.679 588.372 C 319.755 590.502, 319 593.391, 319 594.793 C 319 596.195, 318.375 598.053, 317.611 598.921 C 316.848 599.790, 315.765 602.525, 315.206 605 C 314.116 609.823, 312.284 615.399, 310.844 618.272 C 308.825 622.299, 308.654 628.960, 310.517 631.018 C 311.503 632.108, 312.845 633, 313.500 633 C 314.155 633, 315.505 633.900, 316.500 635 C 317.495 636.100, 319.170 637, 320.221 637 C 321.272 637, 323.064 637.499, 324.204 638.109 C 325.344 638.719, 327.677 639.364, 329.388 639.541 C 335.623 640.188, 341.830 642.068, 346.684 644.780 C 347.886 645.451, 349.319 646, 349.869 646 C 350.420 646, 352.073 646.457, 353.544 647.017 C 355.762 647.860, 356.008 648.286, 354.986 649.517 C 354.271 650.379, 354.180 651, 354.771 651 C 355.329 651, 356.017 650.397, 356.300 649.660 C 356.823 648.297, 360.398 648.064, 361.646 649.313 C 362.940 650.606, 364 650, 364 647.969 C 364 645.429, 366.527 644.362, 368.555 646.046 C 369.642 646.948, 370.395 647.005, 371.155 646.245 C 372.352 645.048, 371.349 642.666, 370 643.500 C 368.990 644.124, 367.529 642.138, 368.376 641.291 C 368.692 640.974, 369.630 641.278, 370.459 641.966 C 371.721 643.014, 372.132 642.782, 372.983 640.544 C 374.396 636.828, 374.257 634.942, 372.422 632.913 C 370.982 631.323, 370.989 630.946, 372.497 628.645 C 373.422 627.234, 374.754 626.352, 375.520 626.646 C 376.362 626.969, 376.911 626.466, 376.948 625.336 C 377.124 619.881, 377.627 617.624, 378.750 617.250 C 379.438 617.021, 380 616.331, 380 615.717 C 380 614.928, 379.654 614.946, 378.824 615.776 C 377.480 617.120, 375 615.644, 375 613.500 C 375 611.627, 377.674 609.663, 378.470 610.951 C 379.718 612.970, 381.032 611.977, 380.407 609.487 C 380.047 608.052, 380.302 606.341, 381 605.500 C 381.673 604.689, 381.929 603.258, 381.569 602.319 C 381.209 601.381, 381.448 598.532, 382.100 595.989 C 383.134 591.952, 383.057 591.016, 381.491 588.627 C 380.493 587.103, 378.419 585.634, 376.813 585.313 C 375.227 584.995, 373.462 583.863, 372.891 582.797 C 372.081 581.283, 370.973 580.921, 367.839 581.148 C 364.874 581.362, 363.573 580.988, 362.862 579.719 C 362.272 578.664, 360.690 578, 358.765 578 C 356.947 578, 354.681 577.110, 353.373 575.881 C 351.880 574.478, 349.483 573.648, 346.282 573.423 C 343.623 573.237, 339.785 572.390, 337.755 571.542 C 333.278 569.671, 334.144 569.638, 330.036 571.841 M 146 610.500 C 146 611.325, 146.450 612, 147 612 C 147.550 612, 148 611.325, 148 610.500 C 148 609.675, 147.550 609, 147 609 C 146.450 609, 146 609.675, 146 610.500 M 150.159 614.309 C 149.011 615.692, 149.601 622.016, 150.875 621.985 C 153.319 621.925, 153.860 620.278, 152.619 616.669 C 151.563 613.598, 151.110 613.163, 150.159 614.309 M 152.565 624.895 C 152.260 625.388, 152.688 626.050, 153.515 626.367 C 154.342 626.685, 154.902 627.362, 154.759 627.872 C 154.617 628.382, 154.950 628.845, 155.500 628.900 C 156.050 628.955, 156.455 628.550, 156.400 628 C 156.345 627.450, 156.233 626.325, 156.150 625.500 C 155.987 623.871, 153.461 623.445, 152.565 624.895 M 298.206 646.048 C 296.391 646.776, 293.621 651.102, 292.474 655 C 292.393 655.275, 292.065 656.175, 291.745 657 C 291.424 657.825, 290.932 659.625, 290.651 661 C 289.965 664.349, 288.415 669.826, 287.111 673.500 C 286.526 675.150, 285.777 678.264, 285.446 680.421 C 285.048 683.020, 283.790 685.328, 281.716 687.266 C 278.996 689.806, 278.801 690.309, 280.224 691.105 C 282.142 692.179, 281.983 696.775, 279.984 698.010 C 278.912 698.673, 278.992 699.339, 280.407 701.499 C 282.022 703.963, 282.254 704.035, 283.426 702.433 C 284.238 701.321, 284.932 701.081, 285.354 701.764 C 285.717 702.351, 284.885 704.171, 283.507 705.810 C 282.128 707.448, 281 709.061, 281 709.394 C 281 710.757, 283.292 709.861, 284.907 707.866 C 286.601 705.775, 286.708 705.768, 290.352 707.497 C 292.396 708.467, 294.699 710.160, 295.469 711.259 C 296.472 712.691, 297.617 713.115, 299.507 712.754 C 301.608 712.352, 302.328 712.733, 303.047 714.625 C 304.100 717.393, 305.221 717.794, 304.794 715.250 C 304.610 714.153, 305.101 713.543, 306.112 713.616 C 307.546 713.719, 307.582 713.261, 306.436 709.454 C 305.289 705.641, 305.339 705.003, 306.903 703.588 C 307.868 702.715, 309.335 702, 310.162 702 C 310.990 702, 311.965 701.702, 312.329 701.337 C 312.694 700.973, 314.456 700.519, 316.246 700.328 C 318.036 700.137, 320.078 699.203, 320.785 698.252 C 321.491 697.301, 322.616 696.493, 323.285 696.457 C 323.953 696.421, 325.792 695.843, 327.372 695.174 C 329.533 694.258, 330.584 694.240, 331.622 695.101 C 332.529 695.854, 333 695.885, 333 695.192 C 333 694.613, 334.001 693.995, 335.225 693.820 C 336.449 693.644, 337.927 692.539, 338.510 691.364 C 340.090 688.181, 344.292 684.042, 346 683.984 C 348.536 683.899, 351.985 680.326, 352.626 677.121 C 352.961 675.446, 354.307 673.374, 355.617 672.515 C 357.739 671.125, 359.135 666.622, 357.250 667.250 C 356.837 667.387, 356.464 667.275, 356.419 667 C 356.124 665.178, 353.709 662, 352.620 662 C 351.899 662, 350.490 661.094, 349.487 659.986 C 348.077 658.428, 346.920 658.112, 344.372 658.590 C 341.889 659.056, 340.422 658.690, 338.405 657.104 C 336.934 655.947, 334.721 655, 333.488 655 C 332.254 655, 330.724 654.372, 330.087 653.605 C 329.450 652.837, 327.257 651.904, 325.214 651.531 C 323.171 651.158, 319.987 649.972, 318.139 648.895 C 316.290 647.817, 313.960 647.195, 312.962 647.512 C 311.964 647.829, 309.484 647.393, 307.451 646.544 C 303.300 644.810, 301.527 644.714, 298.206 646.048 M 168.607 651.582 C 167.466 654.556, 167.999 655.311, 169.976 653.521 C 171.063 652.538, 171.712 651.343, 171.417 650.866 C 170.581 649.513, 169.273 649.846, 168.607 651.582 M 158 658 C 158 658.550, 158.450 659, 159 659 C 159.550 659, 160 658.550, 160 658 C 160 657.450, 159.550 657, 159 657 C 158.450 657, 158 657.450, 158 658 M 164.500 659 C 164.160 659.550, 164.359 660, 164.941 660 C 165.523 660, 166 659.550, 166 659 C 166 658.450, 165.802 658, 165.559 658 C 165.316 658, 164.840 658.450, 164.500 659 M 172 662 C 172 662.550, 172.450 663, 173 663 C 173.550 663, 174 662.550, 174 662 C 174 661.450, 173.550 661, 173 661 C 172.450 661, 172 661.450, 172 662 M 177.667 664.667 C 177.310 665.024, 177.547 665.954, 178.194 666.734 C 179.110 667.838, 179.054 668.349, 177.941 669.037 C 176.753 669.771, 176.848 670.171, 178.505 671.393 C 181.018 673.248, 182.306 672.067, 181.457 668.686 C 180.739 665.824, 178.686 663.647, 177.667 664.667 M 157 667 C 157 667.550, 157.450 668, 158 668 C 158.550 668, 159 667.550, 159 667 C 159 666.450, 158.550 666, 158 666 C 157.450 666, 157 666.450, 157 667 M 178 678.059 C 178 678.641, 178.450 678.840, 179 678.500 C 179.550 678.160, 180 677.684, 180 677.441 C 180 677.198, 179.550 677, 179 677 C 178.450 677, 178 677.477, 178 678.059 M 194 677.800 C 194 678.240, 194.563 679.170, 195.250 679.867 C 196.252 680.883, 196.115 681.419, 194.559 682.567 C 192.879 683.808, 192.844 684, 194.300 684 C 195.226 684, 196.545 684.900, 197.232 686 C 197.919 687.100, 199.328 688, 200.363 688 C 201.751 688, 201.975 687.672, 201.215 686.750 C 200.649 686.063, 200.031 683.925, 199.843 682 C 199.654 680.075, 199.050 678.169, 198.500 677.765 C 197.155 676.777, 194 676.801, 194 677.800 M 183.441 681.532 C 184.509 682.339, 185.832 683, 186.382 683 C 186.932 683, 186.509 682.339, 185.441 681.532 C 184.374 680.724, 183.050 680.064, 182.500 680.064 C 181.950 680.064, 182.374 680.724, 183.441 681.532 M 204.607 685.582 C 203.712 687.915, 203.778 688, 206.500 688 C 209.230 688, 209.664 687.064, 207.800 685.200 C 206.187 683.587, 205.333 683.689, 204.607 685.582 M 189.750 688.584 C 191.537 689.992, 193 692.016, 193 693.081 C 193 694.767, 193.259 694.855, 195 693.768 C 197.287 692.339, 197.674 690, 195.622 690 C 194.865 690, 193.689 689.330, 193.009 688.511 C 192.329 687.692, 191.405 687.249, 190.956 687.527 C 190.506 687.805, 189.856 687.575, 189.510 687.016 C 189.165 686.457, 188.346 686.005, 187.691 686.011 C 187.036 686.017, 187.963 687.175, 189.750 688.584 M 208.232 694 C 209.714 696.373, 211.476 696.684, 210.607 694.418 C 210.273 693.548, 210 692.648, 210 692.418 C 210 692.188, 209.321 692, 208.492 692 C 207.233 692, 207.190 692.332, 208.232 694 M 205 696.559 C 205 697.416, 205.457 697.835, 206.016 697.490 C 206.575 697.144, 206.774 696.443, 206.457 695.931 C 205.600 694.544, 205 694.802, 205 696.559 M 193.459 699.067 C 193.096 699.653, 192.977 700.310, 193.194 700.527 C 193.880 701.214, 198 699.805, 198 698.883 C 198 697.632, 194.252 697.783, 193.459 699.067 M 249.670 701.045 C 248.191 702.208, 247.250 703.596, 247.579 704.129 C 247.958 704.741, 248.651 704.705, 249.462 704.031 C 250.169 703.445, 251.433 703.229, 252.272 703.551 C 254.427 704.378, 255.522 702.094, 253.798 700.369 C 252.546 699.117, 252.009 699.205, 249.670 701.045 M 272.667 699.667 C 271.399 700.934, 272.008 702, 274 702 C 275.111 702, 276 701.333, 276 700.500 C 276 698.978, 273.885 698.449, 272.667 699.667 M 293.931 703.584 C 292.544 705.254, 292.694 705.504, 295.609 706.398 C 297.682 707.034, 300.981 704.660, 299.299 703.743 C 296.724 702.341, 295.004 702.290, 293.931 703.584 M 312 706 C 312 706.550, 312.477 707, 313.059 707 C 313.641 707, 313.840 706.550, 313.500 706 C 313.160 705.450, 312.684 705, 312.441 705 C 312.198 705, 312 705.450, 312 706 M 317.330 706.583 C 316.978 707.501, 317.582 709.026, 318.766 710.210 L 320.809 712.254 320.706 708.627 C 320.600 704.856, 318.484 703.576, 317.330 706.583 M 221 709.559 C 221 710.416, 221.457 710.835, 222.016 710.490 C 222.575 710.144, 222.774 709.443, 222.457 708.931 C 221.600 707.544, 221 707.802, 221 709.559 M 224 709.639 C 224 710.424, 225.058 711, 226.500 711 C 227.875 711, 229 710.602, 229 710.117 C 229 709.631, 227.875 709.018, 226.500 708.755 C 224.824 708.435, 224 708.726, 224 709.639 M 254.543 711.931 C 253.860 713.036, 255.437 714.230, 256.361 713.306 C 257.311 712.355, 257.134 711, 256.059 711 C 255.541 711, 254.859 711.419, 254.543 711.931 M 239 713.059 C 239 713.641, 239.450 713.840, 240 713.500 C 240.550 713.160, 241 712.684, 241 712.441 C 241 712.198, 240.550 712, 240 712 C 239.450 712, 239 712.477, 239 713.059 M 271.500 714 C 272.495 715.100, 273.760 716, 274.310 716 C 274.860 716, 274.495 715.100, 273.500 714 C 272.505 712.900, 271.240 712, 270.690 712 C 270.140 712, 270.505 712.900, 271.500 714 M 252 716 C 252 716.550, 252.450 717, 253 717 C 253.550 717, 254 716.550, 254 716 C 254 715.450, 253.550 715, 253 715 C 252.450 715, 252 715.450, 252 716 M 229.510 717.016 C 229.856 717.575, 230.557 717.774, 231.069 717.457 C 232.456 716.600, 232.198 716, 230.441 716 C 229.584 716, 229.165 716.457, 229.510 717.016 M 297.229 717.188 C 297.847 719.042, 300 719.349, 300 717.583 C 300 716.712, 299.288 716, 298.417 716 C 297.546 716, 297.011 716.534, 297.229 717.188 M 292.636 718.494 C 292.952 719.316, 293.620 719.735, 294.121 719.425 C 295.170 718.777, 294.328 717, 292.972 717 C 292.472 717, 292.321 717.672, 292.636 718.494 M 244 724 C 244 724.550, 244.450 725, 245 725 C 245.550 725, 246 724.550, 246 724 C 246 723.450, 245.550 723, 245 723 C 244.450 723, 244 723.450, 244 724 M 498 881.378 C 498 946.901, 498.227 959.943, 499.384 960.904 C 500.330 961.689, 505.783 961.965, 516.634 961.776 L 532.500 961.500 533 923.500 C 533.529 883.281, 533.432 884.090, 538.406 878.270 C 540.869 875.388, 547.388 872, 550.472 872 C 551.797 872, 553.160 871.550, 553.500 871 C 553.840 870.450, 555.216 870, 556.559 870 C 557.902 870, 559 870.450, 559 871 C 559 871.550, 560.237 872.005, 561.750 872.010 C 566.668 872.029, 573.318 876.111, 574.359 879.750 C 574.871 881.538, 575.674 883, 576.145 883 C 576.615 883, 577 884.773, 577 886.941 C 577 889.109, 577.450 891.160, 578 891.500 C 578.636 891.893, 579 904.844, 579 927.059 L 579 962 595.054 962 L 611.109 962 610.804 914.963 C 610.601 883.500, 610.152 867.690, 609.448 867.213 C 608.418 866.515, 605 859.846, 605 858.534 C 605 858.168, 602.638 855.520, 599.750 852.649 C 594.660 847.588, 588.814 844, 585.658 844 C 584.811 844, 583.840 843.550, 583.500 843 C 583.160 842.450, 581.585 842, 580 842 C 578.415 842, 576.840 841.550, 576.500 841 C 576.160 840.450, 572.335 840, 568 840 C 563.665 840, 559.840 840.450, 559.500 841 C 559.160 841.550, 557.585 842, 556 842 C 554.415 842, 552.861 842.415, 552.548 842.923 C 552.234 843.431, 550.632 844.142, 548.989 844.503 C 547.345 844.864, 546 845.573, 546 846.079 C 546 846.586, 545.452 847, 544.781 847 C 544.111 847, 541.186 849.347, 538.281 852.216 L 533 857.432 533 830.216 L 533 803 515.500 803 L 498 803 498 881.378 M 416 828.500 L 416 844 407.082 844 C 402.177 844, 397.452 844.273, 396.582 844.607 C 395.248 845.119, 395 847.317, 395 858.607 L 395 872 405.500 872 L 416 872 416 901.941 C 416 920.823, 416.369 932.110, 417 932.500 C 417.550 932.840, 418 934.691, 418 936.613 C 418 944.219, 428.971 958.634, 435.575 959.706 C 437.459 960.012, 439 960.653, 439 961.131 C 439 961.609, 440.323 962, 441.941 962 C 443.559 962, 445.160 962.450, 445.500 963 C 445.851 963.568, 450.824 964, 457 964 C 463.176 964, 468.149 963.568, 468.500 963 C 468.840 962.450, 470.891 962, 473.059 962 C 475.227 962, 477 961.550, 477 961 C 477 960.450, 477.675 960, 478.500 960 C 480.791 960, 480.726 933.216, 478.433 932.336 C 477.571 932.005, 476.356 932.244, 475.733 932.867 C 475.065 933.535, 471.077 934, 466.020 934 C 457.551 934, 457.398 933.956, 454.220 930.586 L 451 927.172 451 899.586 L 451 872 465.500 872 L 480 872 480 858 L 480 844 465.500 844 L 451 844 451 828.500 L 451 813 433.500 813 L 416 813 416 828.500 M 91.544 840.929 C 91.180 841.518, 89.932 842, 88.770 842 C 85.741 842, 74.092 847.880, 72.697 850.114 C 72.049 851.151, 70.943 852, 70.238 852 C 69.534 852, 68.445 853.125, 67.818 854.500 C 65.924 858.657, 65 857.346, 65 850.500 L 65 844 48 844 L 31 844 31 903 L 31 962 46.800 962 C 57.756 962, 62.968 961.632, 63.800 960.800 C 64.689 959.911, 65 950.323, 65 923.853 C 65 888.524, 65.027 888.055, 67.288 883.803 C 68.547 881.436, 71.117 877.925, 72.999 876 L 76.421 872.500 87.961 872.500 C 99.435 872.500, 99.517 872.517, 102.561 875.500 C 108.971 881.781, 109 881.994, 109 922.701 C 109 950.067, 109.310 959.910, 110.200 960.800 C 111.696 962.296, 133.588 962.476, 134.500 961 C 134.840 960.450, 137.116 960, 139.559 960 L 144 960 144 918.559 C 144 895.766, 143.614 876.880, 143.143 876.588 C 142.672 876.297, 142.035 873.625, 141.728 870.652 C 141.162 865.168, 139.520 861.152, 137.250 859.700 C 136.563 859.260, 136 858.339, 136 857.653 C 136 856.069, 128.817 849, 127.208 849 C 126.544 849, 126 848.647, 126 848.216 C 126 846.980, 120.412 844, 118.096 844 C 116.943 844, 116 843.599, 116 843.109 C 116 841.113, 92.713 839.037, 91.544 840.929 M 213.500 841 C 213.160 841.550, 211.135 842, 209 842 C 206.865 842, 204.840 842.450, 204.500 843 C 204.160 843.550, 203.189 844, 202.342 844 C 200.668 844, 193.809 846.983, 193 848.063 C 192.725 848.430, 191.375 849.079, 190 849.506 C 184.522 851.205, 168 867.186, 168 870.786 C 168 871.319, 167.325 872.315, 166.500 873 C 165.675 873.685, 165 874.909, 165 875.721 C 165 877.083, 163.503 880.929, 160.648 886.902 C 159.074 890.195, 159.222 917.622, 160.822 919.222 C 161.470 919.870, 162.002 921.322, 162.004 922.450 C 162.009 925.280, 167.304 935.662, 169.883 937.898 C 171.047 938.908, 172 940.147, 172 940.651 C 172 942.014, 182.367 952, 183.781 952 C 184.452 952, 185 952.398, 185 952.885 C 185 954.090, 196.701 960, 199.086 960 C 200.139 960, 201 960.450, 201 961 C 201 961.550, 202.035 962, 203.300 962 C 204.565 962, 206.129 962.529, 206.776 963.176 C 207.578 963.978, 212.914 964.353, 223.500 964.353 C 234.086 964.353, 239.422 963.978, 240.224 963.176 C 240.871 962.529, 242.547 961.986, 243.950 961.968 C 245.352 961.951, 247.374 961.276, 248.441 960.468 C 249.509 959.661, 251.202 959, 252.205 959 C 254.385 959, 258.186 956.991, 259.300 955.250 C 259.740 954.563, 260.674 954, 261.375 954 C 262.077 954, 263.708 952.875, 265 951.500 C 266.292 950.125, 267.808 949, 268.370 949 C 269.797 949, 275 943.874, 275 942.468 C 275 941.831, 275.911 940.485, 277.025 939.478 C 278.138 938.470, 280.440 934.688, 282.140 931.073 C 283.840 927.458, 285.741 923.419, 286.365 922.099 C 287.907 918.835, 287.896 887.132, 286.352 883.901 C 283.714 878.383, 282 874.129, 282 873.099 C 282 872.494, 281.550 872, 281 872 C 280.450 872, 280 871.403, 280 870.674 C 280 869.945, 278.875 868.292, 277.500 867 C 276.125 865.708, 275 864.146, 275 863.529 C 275 862.122, 267.788 855, 266.363 855 C 265.784 855, 264.463 854.065, 263.429 852.921 C 261.185 850.441, 250.829 845.306, 246.229 844.392 C 244.430 844.034, 242.716 843.350, 242.420 842.871 C 242.124 842.392, 240.135 842, 238 842 C 235.865 842, 233.840 841.550, 233.500 841 C 233.159 840.448, 228.676 840, 223.500 840 C 218.324 840, 213.841 840.448, 213.500 841 M 363.570 842.887 C 363.269 843.374, 361.514 844.056, 359.671 844.402 C 357.828 844.748, 355.269 846.149, 353.986 847.515 C 352.702 848.882, 351.154 850, 350.546 850 C 349.939 850, 348.780 850.963, 347.971 852.139 C 347.162 853.316, 345.554 855.453, 344.399 856.889 C 343.243 858.325, 342.041 860.175, 341.728 861 C 341.414 861.825, 341.122 858.337, 341.079 853.250 L 341 844 323.500 844 L 306 844 306 903 L 306 962 312.300 962 C 315.867 962, 319.121 961.479, 319.800 960.800 C 320.733 959.867, 321.267 959.867, 322.200 960.800 C 323.879 962.479, 338.418 962.406, 339.825 960.711 C 340.520 959.874, 341 948.244, 341.197 927.461 C 341.445 901.269, 341.770 895.049, 342.996 893 C 345.213 889.294, 354.247 880, 355.633 880 C 356.293 880, 357.002 879.493, 357.209 878.873 C 357.416 878.253, 359.937 877.520, 362.813 877.244 C 365.689 876.968, 368.284 876.350, 368.580 875.871 C 369.389 874.562, 376.774 874.823, 377.226 876.177 C 377.441 876.824, 378.154 877.023, 378.809 876.618 C 379.654 876.096, 380 870.967, 380 858.941 L 380 842 372.059 842 C 367.691 842, 363.871 842.399, 363.570 842.887 M 213 872.652 C 206.331 874.849, 201.783 879.047, 197.843 886.640 C 195.248 891.642, 195 893.034, 195 902.615 C 195 911.013, 195.403 913.995, 197.019 917.542 C 199.341 922.639, 204.603 929, 206.497 929 C 207.206 929, 208.045 929.675, 208.362 930.500 C 208.678 931.325, 210.050 932, 211.410 932 C 212.769 932, 214.160 932.450, 214.500 933 C 215.279 934.260, 232.425 934.321, 234.764 933.073 C 235.719 932.563, 237.175 931.883, 238 931.562 C 241.405 930.236, 245.564 927.223, 246.500 925.402 C 247.050 924.333, 248.512 922.048, 249.750 920.325 C 250.988 918.601, 252 916.275, 252 915.155 C 252 914.035, 252.450 912.840, 253 912.500 C 253.552 912.159, 254 907.656, 254 902.441 C 254 896.814, 253.596 893, 253 893 C 252.450 893, 252 891.891, 252 890.537 C 252 887.484, 241.479 875.930, 236.584 873.607 C 233.311 872.054, 216.840 871.387, 213 872.652" stroke="none" fill="#193136" fill-rule="evenodd"/>
</svg>